/* XPM */
static char *_d1bbbc0db7e42a28108924fe6cde22eP7DF4gbLkpb1afCq[] = {
/* columns rows colors chars-per-pixel */
"64 64 38 1 ",
"  c #3C2F1C",
". c #4C3D26",
"X c #644F2E",
"o c #65502F",
"O c #675231",
"+ c #685332",
"@ c #695433",
"# c #6A5534",
"$ c #6C5736",
"% c #6D5837",
"& c #6E5938",
"* c #745F3E",
"= c #977C45",
"- c #997E47",
"; c #9A7F48",
": c #9B8049",
"> c #9D824B",
", c #9E834C",
"< c #9F844D",
"1 c #A0854E",
"2 c #A28750",
"3 c #AB8751",
"4 c #A38851",
"5 c #A48952",
"6 c #A78C55",
"7 c #AD8953",
"8 c #AE8A54",
"9 c #B18D57",
"0 c #B38F59",
"q c #AC915A",
"w c #B4905A",
"e c #B7935D",
"r c #B9955F",
"t c #BA9660",
"y c #BC9862",
"u c #BE9A64",
"i c #BF9B65",
"p c #C9A56F",
/* pixels */
"####@@@@    @@@@@@@@OOOO            @@@@####    &&&&@@@@$$$$%%%%",
"####@@@@    @@@@@@@@OOOO            @@@@####    &&&&@@@@$$$$%%%%",
"####@@@@    @@@@@@@@OOOO            @@@@####    &&&&@@@@$$$$%%%%",
"####@@@@    @@@@@@@@OOOO            @@@@####    &&&&@@@@$$$$%%%%",
"@@@@wwww9999wwwwwwwwwwwwwwwwwwww88889999wwwwwwwwrrrrttttwwwwXXXX",
"@@@@wwww9999wwwwwwwwwwwwwwwwwwww88889999wwwwwwwwrrrrttttwwwwXXXX",
"@@@@wwww9999wwwwwwwwwwwwwwwwwwww88889999wwwwwwwwrrrrttttwwwwXXXX",
"@@@@wwww9999wwwwwwwwwwwwwwwwwwww88889999wwwwwwwwrrrrttttwwwwXXXX",
"    weee>>>>,,,,<<<<====<<<<::::6666<<<<<<<<<<<<<<<<2222weww#@@@",
"    eeww>>>>,,,,<<<<====<<<<::::6666<<<<<<<<<<<<<<<<2222wwew@@@@",
"    ewee>>>>,,,,<<<<====<<<<::::6666<<<<<<<<<<<<<<<<2222eeww@@@@",
"    eewe>>>>,,,,<<<<====<<<<::::6666<<<<<<<<<<<<<<<<2222wwwe@@@@",
"+@@@wwww4444eeeeyyyyyyyyyyyyyyyyyyyyrereyyyyrrrryuyu<<<<wwww    ",
"@@@@wwww4444eeeeyyyyyyyyyyyyyyyyyyyyereryyyyrrrruyuy<<<<wwww    ",
"@@@@wwww4444eeeeyyyyyyyyyyyyyyyyyyyyrereyyyyrrrryuyu<<<<wwww    ",
"@@@@wwww4444eeeeyyyyyyyyyyyyyyyyyyyyereryyyyrrrruyuy<<<<wwww    ",
"....0000>>>>yyyywwwwrrrrwwwwwwwwwwwweeeewwwwrereyyyy<<<<wwww@@@@",
"....0000>>>>yyyywwwwrrrrwwwwwwwwwwwweeeewwwwereryyyy<<<<wwww@@@@",
"....0000>>>>yyyywwwwrrrrwwwwwwwwwwwweeeewwwwrereyyyy<<<<wwww@@@@",
"....0000>>>>yyyywwwwrrrrwwwwwwwwwwwweeeewwwwereryyyy<<<<wwww@@@@",
"    wwww>:>:yyyywwww<<<<44445555<<<<<<<<<<<<wwwwrrrr::::wwww@@@@",
"    wwww:>:>yyyywwww<<<<44445555<<<<<<<<<<<<wwwwrrrr::::wwww@@@@",
"    wwww>:>:yyyywwww<<<<44445555<<<<<<<<<<<<wwwwrrrr::::wwww@@@@",
"    wwww:>:>yyyywwww<<<<44445555<<<<<<<<<<<<wwwwrrrr::::wwww@@@@",
"    wwww1<<<tttteewe>>>>tttttytyuuiiyyyy<<<<wwwwrere<<<<wwww    ",
"    wwww<<<<ttttwewe>>>>ttttytytiiiiyyyy<<<<wwwwerer<<<<wwww    ",
"    wwww<<<<ttttewee>>>>tttttytyiiiiyyyy<<<<wwwwrere<<<<wwww    ",
"    wwww<<<<tttteeew>>>>ttttytytiiiiyyyy<<<<wwwwerer<<<<wwww    ",
"    weww<<<<pppp0www<<<<yyyywwwwwwwwytyt12127777yyyy<<<<wwww****",
"    wwew<<<<ppppwwww<<<<yyyywwwwwwwwtyty21217777yyyy<<<<wwww****",
"    eeww<<<<ppppwwww<<<<yyyywwwwwwwwytyt12127777yyyy<<<<wwww****",
"    wwwe<<<<ppppwwww<<<<yyyywwwwwwwwtyty21217777yyyy<<<<wwww****",
"@@@@wwwwqqqqyyyywwww<<<<ttttwwwwwwwwyyyy,,,,wwwwyyyy>:>:rere@@@@",
"@@@@wwwwqqqqyyyywwww<<<<ttttwwwwwwwwyyyy,,,,wwwwyyyy:>:>erer@@@@",
"@@@@wwwwqqqqyyyywwww<<<<ttttwwwwwwwwyyyy,,,,wwwwyyyy>:>:rere@@@@",
"@@@@wwwwqqqqyyyywwww<<<<ttttwwwwwwwwyyyy,,,,wwwwyyyy:>:>erer@@@@",
"@@@@eeee>:>:yyyy0000;;;;yyyyyyyyyyyyuuuu<<<<wwwwyuyu>>>>wwww@@@@",
"@@@@eeee:>:>yyyy0000;;;;yyyyyyyyyyyyuuuu<<<<wwwwuyuy>>>>wwww@@@@",
"@@@@eeee>:>:yyyy0000;;;;yyyyyyyyyyyyuuuu<<<<wwwwyuyu>>>>wwww@@@@",
"@@@@eeee:>:>yyyy0000;;;;yyyyyyyyyyyyuuuu<<<<wwwwuyuy>>>>wwww@@@@",
"OoOo9999<<<<eeeewwww<<<<<<<<<<<<1<<<<<<<<<<<rrrryuyu<<<<wwww++++",
"oOoO9999<<<<eeeewwww<<<<<<<<<<<<1<<<<<<<<<<<rrrruyuy<<<<wwww++++",
"OoOo9999<<<<eeeewwww<<<<<<<<<<<<<<<<<<<<<<<<rrrryuyu<<<<wwww++++",
"oOoO9999<<<<eeeewwww<<<<<<<<<<<<<<<<<<<<<<<<rrrruyuy<<<<wwww++++",
"    0000<<<<yyyy0000eewewwww0000wwwwwwwwwwwwrrrryyyy5555wwwwoooo",
"    0000<<<<yyyy0000wewewwww0000wwwwwwwwwwwwrrrryyyy5555wwwwoooo",
"    0000<<<<yyyy0000eweewwww0000wwwwwwwwwwwwrrrryyyy5555wwwwoooo",
"    0000<<<1yyyt0000eeewwwww0000wwwwwwwwwwwwrrrryyyy5555wwwwoooo",
"    wwww<<<<uiiiyuyueeeetytyyyyyyyyyyyyyiiiiyyyytttt<<<<weww    ",
"    wwww<<<<uiiiuyuyeeeeytytyyyyyyyyyyyyiiiiyyyytttt<<<<wwew    ",
"    wwww<<<<iiiiyuyueeeetytyyyyyyyyyyyyyiiiiyyyytttt<<<<eeww    ",
"    wwww<<<<iiiiuyuyeeeeytytyyyyyyyyyyyyiiuuyyyytttt<<<<wwwe    ",
"    wwww----1<<<5555<<<<<<<<<<<<;;;;11111<<<4444666655559090    ",
"    wwww----1<<<5555<<<<<<<<<<<<;;;;11111<<<4444666655550909    ",
"    wwww----<<<<5555<<<<<<<<<<<<;;;;1111<<<<4444666655559090    ",
"    wwww----<<<<5555<<<<<<<<<<<<;;;;1111<<<<4444666655550900    ",
"....wwwwwwwwwwwwwwwweeee77778888wwwwwwww3333wwwwwwwwwwww0www@@@@",
"....wwwwwwwwwwwwwwwweeee77778888wwwwwwww3333wwwwwwwwwwwwwwww@@@@",
"....wwwwwwwwwwwwwwwweeee77778888wwwwwwww3333wwwwwwwwwwwwwwww@@@@",
"....wwwwwwwwwwwwwwwweeee77778888wwwwwwww3333wwwwwwwwwwwwwwww@@@@",
"#@@@&*%&    $$$$@@@@++++    ####@@@@@@@@@@@@@@@@            @@@@",
"@@@@&&&&    $$$$@@@@++++    ####@@@@@@@@@@@@@@@@            @@@@",
"@@@@*%%*    $$$$@@@@++++    ####@@@@@@@@@@@@@@@@            @@@@",
"@@@@&&&&    $$$$@@@@++++    ####@@@@@@@@@@@@@@@@            @@@@"
};
