/* XPM */
static char *bb5fd4d9e2274d90ba3f3bc2a34b4988CSumkHRhPqqNF2Pk[] = {
/* columns rows colors chars-per-pixel */
"64 64 246 2 ",
"   c #191D18",
".  c #0F1B06",
"X  c #152503",
"o  c #1A2C03",
"O  c #14240B",
"+  c #1C2C0B",
"@  c #182908",
"#  c #1C3304",
"$  c #1C320A",
"%  c #1C3708",
"&  c #1A2313",
"*  c #1D2C11",
"=  c #1D2819",
"-  c #12270E",
";  c #212D0C",
":  c #22350D",
">  c #243C0B",
",  c #263D08",
"<  c #222C14",
"1  c #242B1B",
"2  c #282C1C",
"3  c #222519",
"4  c #233313",
"5  c #2B3D13",
"6  c #2B341C",
"7  c #2C3D1B",
"8  c #253816",
"9  c #333E1C",
"0  c #252422",
"q  c #2A2C23",
"w  c #2C2C2A",
"e  c #262924",
"r  c #2C3224",
"t  c #2D312A",
"y  c #2D3923",
"u  c #323426",
"i  c #333B24",
"p  c #32342C",
"a  c #343B2C",
"s  c #3A3C2D",
"d  c #3A3B32",
"f  c #373933",
"g  c #2E3430",
"h  c #403F3A",
"j  c #2C4C05",
"k  c #2C440C",
"l  c #2D4B0C",
"z  c #264406",
"x  c #324C0D",
"c  c #304A09",
"v  c #33520D",
"b  c #365A0D",
"n  c #3A5C0E",
"m  c #355208",
"M  c #264111",
"N  c #2C4414",
"B  c #2E4B13",
"V  c #2C421A",
"C  c #2C4A19",
"Z  c #314414",
"A  c #334C14",
"S  c #33441B",
"D  c #354B1B",
"F  c #394C1D",
"G  c #394B16",
"H  c #345314",
"J  c #3A5514",
"K  c #365A13",
"L  c #3B5B13",
"P  c #36521A",
"I  c #3B531C",
"U  c #3D5C1B",
"Y  c #375C19",
"T  c #2F5211",
"R  c #3D630D",
"E  c #3D6314",
"W  c #3E621A",
"Q  c #3F6913",
"!  c #354423",
"~  c #364923",
"^  c #3C4C24",
"/  c #3A442B",
"(  c #3D4B2A",
")  c #384427",
"_  c #3E5324",
"`  c #3D5B21",
"'  c #3C5428",
"]  c #3F4D32",
"[  c #3C4334",
"{  c #425C1C",
"}  c #415918",
"|  c #456B0E",
" . c #40640C",
".. c #426415",
"X. c #446B13",
"o. c #43631B",
"O. c #456B1B",
"+. c #4B6D1C",
"@. c #496B16",
"#. c #4B721B",
"$. c #4B7417",
"%. c #52781A",
"&. c #424C2B",
"*. c #40462A",
"=. c #415325",
"-. c #435C23",
";. c #43542B",
":. c #455B2B",
">. c #4A5C2D",
",. c #495B29",
"<. c #414434",
"1. c #434C34",
"2. c #43453C",
"3. c #454B3B",
"4. c #494C3D",
"5. c #484B36",
"6. c #455433",
"7. c #4A5634",
"8. c #465933",
"9. c #4B5C33",
"0. c #455139",
"q. c #4B543C",
"w. c #4D5B3B",
"e. c #525D3C",
"r. c #50553C",
"t. c #515A2B",
"y. c #446322",
"u. c #496324",
"i. c #4B6B24",
"p. c #4A632B",
"a. c #486827",
"s. c #516829",
"d. c #4D7222",
"f. c #4E7A21",
"g. c #547922",
"h. c #4D6233",
"j. c #4D6138",
"k. c #526334",
"l. c #546B33",
"z. c #53633B",
"x. c #5A6B3D",
"c. c #58683B",
"v. c #5C713B",
"b. c #413F42",
"n. c #474A42",
"m. c #4A4D44",
"M. c #4D4E49",
"N. c #454644",
"B. c #465242",
"V. c #4D5343",
"C. c #4E5A41",
"Z. c #4E524B",
"A. c #47504B",
"S. c #525445",
"D. c #535B43",
"F. c #53544C",
"G. c #555B4B",
"H. c #595C4D",
"J. c #585D47",
"K. c #545551",
"L. c #565952",
"P. c #5A5B54",
"I. c #5D5E59",
"U. c #504F4D",
"Y. c #605F5A",
"T. c #556343",
"R. c #5A6444",
"E. c #5C6B44",
"W. c #5C634C",
"Q. c #5E6B4B",
"!. c #566447",
"~. c #5F7246",
"^. c #5D6353",
"/. c #5F625A",
"(. c #5F6C50",
"). c #5F7050",
"_. c #626C4C",
"`. c #616949",
"'. c #64744D",
"]. c #66744A",
"[. c #626554",
"{. c #646B54",
"}. c #696D54",
"|. c #63645B",
" X c #666A5B",
".X c #6A6C5C",
"XX c #69675B",
"oX c #657154",
"OX c #6B7454",
"+X c #6C7A54",
"@X c #6C735B",
"#X c #6E795C",
"$X c #667555",
"%X c #71755D",
"&X c #747B5D",
"*X c #737D59",
"=X c #6B6C62",
"-X c #666761",
";X c #6E7162",
":X c #6F7464",
">X c #727464",
",X c #757A63",
"<X c #797C65",
"1X c #75766A",
"2X c #767A6A",
"3X c #7B7C6C",
"4X c #7C7D72",
"5X c #706D64",
"6X c #817F6E",
"7X c #817E74",
"8X c #5B8226",
"9X c #79825D",
"0X c #7B8264",
"qX c #7D826B",
"wX c #768063",
"eX c #7E8171",
"rX c #81846D",
"tX c #848C6C",
"yX c #808B63",
"uX c #838474",
"iX c #858973",
"pX c #8A8C75",
"aX c #848579",
"sX c #86897B",
"dX c #8B8C7B",
"fX c #888679",
"gX c #8B9275",
"hX c #8E917B",
"jX c #8B957B",
"kX c #92947D",
"lX c #959A7C",
"zX c #949578",
"xX c #899072",
"cX c #8F9281",
"vX c #949482",
"bX c #969983",
"nX c #9A9C85",
"mX c #9C9C8A",
"MX c #979688",
"NX c #8D8D81",
"BX c #A09E8D",
"VX c #9CA189",
"CX c #A2A38C",
"ZX c #A4A488",
"AX c #A6A793",
"SX c #AFB098",
/* pixels */
"( 6.( R.:.S z.R.uXdX<X<X{.r.W.>XuX,X>X=XP.q.1.2.u p f N.U.F.M.3 b.2.M.K.|.=XH.^.Z.[ Z.Z.F.n.0.~ B.T.( q.^.{.@X<X>XXX|.[.{.c.e.2 ",
"T.z.9.+Xh.=.9.:.iXCXCXCXhX,X6XbXmXpX<X=X.X_.Q.L.L.K.K.L.I.P.L.w U.I.Y.=X-X-XP.|.|.M.P.|.F.q.V.0.D.$Xw.q./.;XsXvXhX<X6XfXrX&XOXt ",
"z.k.c.x.I :.F z.iXBXZXZXZXkXkXmXBXvXpXeX:XR.w.!.P.L.K.L.I.P.L.0 m.Y.I.-XI.H.F.F.K.L.L.V.1.r.J.Z.[.;XG.W..X^.@XqX<X].OX2X X>X3Xp ",
":.9.;.E.p.A D ~.rXBXCXVXnXmXkXmXmXkXqX>X$Xk.^ ( S.F.K.P.Y.Y.I.0 m.I.L.Y.K.P.I.I.XX-XV.( :.p.z.2X3X1X.XQ.c.w.E.s.OX].c.W.q._.@Xq ",
"~ 6.c.OXE.k._.&XkXmXnXlXpXpXpXmXMXkXrXoX{.z.:.6.S.F.F.L.I.I.L.0 M.P.P.I.K.|.-X1XqX#XC.-.p.} ;.=X>X1X;X:.-.p.a.O.' =.D 6.h.h.9.< ",
"4 7.#Xz.z.0XpXdXkXhXgXgX6X&X6XkXmXnXiX<X_.&.^ D.H.H.K.L.I.I.I.0 m.K.I.P.F.I.-X1X%X,XoXp.G x 7.`.>X1X#Xp.o.+.X.X.M F =.9.p.Y A X ",
"> 9.:.9.E.+XpXuXpXkXlXzX&X,X6XpXmXkXrX>XW.&.( G.G.S.m.F.L.L.K.0 M.P.I.I.K.I.1X4X6X<X#X`.=.;.}.rXuX,X*XE.H #.8XR l I k.j.y.n L o ",
"z _ F x.l.E.tXgXvXkXtX%Xe.OX6X>XuXdXgX3X,XoXQ.H.S.4.N.m.F.F.F.0 m.L.F.K.P.H.eXeX2X1XOX<X.X>X6XpX1XOX7.e.-.L o.Y { G w.T.u.| y.+ ",
"l A :.k.;.9.tXBXpXlX9XOXt._.gXcXlXpX<X3XrXqXeX;XH.S.3.m.F.M.U.w M.K.U.K.L.P.iX3X>XiX1X3XpXpXrXrXiXiXz.U #.O.L B }  .I :.` R $.- ",
"A A p.z.&.OXlXrXrXbXpX%X`.<XkXMXbXjX>X<XaXaXsX2X2X;X|.>X-X-XL.0 m.-XL.K.K.=XsX=X>XaXuXzX6X<XrXhXkXjXc.U O.d.l I g...z J y.o.c O ",
"k B -.~.OXzXbXuXnXkXuX,X&XiXMXAXnXuX>X;X>X4X:X1X1X2X=X1X1XNX=X0 L.|.I.K.^.>X3X5X1XuXdXvX6XrXdXpXzXtXh.I U n , x E T C E H N k 4 ",
"k ` F I OXlXnXBXZXuXdXdXiXpXpXrXdXtXdX,X@X1X-XP.XX=X1X4X-X4XaXu U./.;XV.|.eX.X>X2XuXdXvXpXdXzXrXxX}.E.:.I k c I L l A b v A J o ",
"> Z ~ :.OXzXbXBXlXiXvXMXkXtXrX&XpXiXqXrX;X=XsX1X;X-XXX>X4X7X4Xw F.dX1XOX3X%X2X%X%X<XfXbXhXrXrXpXuX}.,X+Xw.~ ;.^ 7 ( ' I Z C H + ",
"o :.z.7.`.zXAXnXhXbXhX;X%X<X<X%XqX,X3XiX2X2XNX1X|.=X5X1X7X2X4Xd 1XbXrX.X}.@X[.@X>X6XuXhXbXbXpXpX&XOXE._.z.c.h._ F.e.r.E.j.h.-.- ",
"<.(.Q.[.,XhXMXmXBXaX3X>X,X`.J.rXdXNXMX4X;XsXuX1X=XY.4X1X|.2XNXd NXmXuX}.J.>X>X=X1XfXfXuXhXAXMXuXxX#Xt.=.^ z.=.F E.k.h.l.p.+.n @ ",
"1 u 1 i i h 4.4.n.w <.s u < & 3.n.4.m.d p s p s w p 2.p q d 2.s M.2.2.3.s s 2.s s 2.F.n.h K.S.S.4.y 6 + * y & + 8 9 7 # > , #   ",
"~ 6.) w.}.0X,XH.F.F.|.K.J.;.7.u 2.G.>X2XH.4.S.U.L.P./.^.V.S.|.5X1XXXF.m.F.S.H.G.Y.1X3X6XdX1X=X4.m.7.5 9 7 / 7 : < : : , k k 5 > ",
"-.p.E.z.`.iXeX=X3XiXpX>X`.,.z.2 S.uXfX6XfX3X|..X=X[.(.^.{.1XaXfX7X=X=X-X4XaX7X4XfXBXdXkXSXmXMX5..X<Xw.E.D.w.6.~ I U W i.o.H A -.",
"i.m { P _ D.[.:X>XiX<X@XOX>.9.@ 4.6X>X|.4XfXXXW.H.W.!.q.1.C.XX4X3XP.L.=XeX4X7XMXmXvXkXbXBXbXdXs J.&Xc.E.:.:.` Y W j o.L W z H y.",
"J H j l N ~ `.W.|.@X X:XoXr.{.s r.1X7X1X2XiX%X[.q.S.q.[ [ V.P.|.|.|.I.L.I.-XdXBXdXMXsXBXCX3X%X<.r.E.-.-.I A L #.o.c H H A l H ` ",
"H l { A D w.q.>X3X[.[.eX3X%X2Xa 5.3X4X.X.X#XQ.R.q.D.C.1.[ 2.n.2.4.F.U.F./.-XsX3XiXdXdXBXgX%XG.3 W._.Z G F D y.X.I A G I H J b L ",
"x J J N ) W.|.>XR.z.E.#X3X&X{.2 q.3XoXw.e.x.>.:.R.W.D.3.3.V.M.n.m.m.F.L.P.[.qXhX<X3XfXbXgX%X/ 1 ^.Q._ ' 6.!.p.j k N I F ` H R $.",
"H c c F q.|.>X2Xc.>.F 9.OX<XOXr / oX_.j.:.-.I A e._.oXW.q.[ 2.V.4.4.F.K.P.[.,X,Xl.z.Q.tX9X>.6.: 9.!.{.#X X*X9.D S 8.;.9._ H K O.",
"M Z G ~ q.@XpX*XE.I B 7.D.@XqXu i {.w.>.u.I v l ^ 7.e.R.W.q.<.1.n.M.U.-X XG.#XOXU A -.v.l.A P o G ;. XsX9Xt.=.0.{.3X%XH.c.S I I ",
"' G F 1.W.0XtXE.Q.z.9.q..XrXiXd V.OX`.D.(.>.G D ( ~ :.:.w.B.n.n.N.A.H.|.|.W.z.o.C W $.n j U I + > ! G.=XOX&.7.e. XiX,XW.w.q.H.H.",
"C.) q.H.2XjX'.T.z.:.=.oX6X<X2X2.^.pX&XQ.!.z.B ' ;.s.u.l V 1.3.3.M.K.|.5X|.W.9.H Q | O.T H o.v X > ! F.H.W.c.D.J.&XeX%XD.{.>X[..X",
"|.W.W.,XkXOX9.F e.:._ W.%X6X6Xd ^.pX<XD.6.=.P ` U u.E j M ] 3.M.m.P.-X=X_.T.l.p.O.O.O.T K L H * % ( P.P.XX,X@X=X2XrX<X,X,X1X5X-X",
"1X>X}.tXOXc.:.h.).j.9.q.G.rXbXh P.rX&X`.z.9.p.I B H b H D / [ M.H.I.I.F.e.p.u.y.#.@.d.W X.| U * : ] L./.-X X[.=X7XfXiXuXqX.X[.2X",
":X#X+X9X:.j.( z.h.I :.w.W.,XdX4.H.rX%XR.7.E.G x H T { H N ) 4.m.Z.L.L.C.:.} n K X.b T ` E R o.o + D.H.F.G.^.=X=XaXiX`.$X'.>.E.].",
"s.l.{ m H N :.9.} b x F oX0XiXM.}.dX6X`._.oX7.G H z H k 5 ! 4.4.n.A.L.B.-.U K b E T B y.Q X.{ $ < 0.F.(.{.W.3XMXgXOXx.u.U o.} { ",
"J { J { x ~ S Z k A Z ) oX%X.Xd [.7X4X>X3X X!.=.D 5 S ! S / 5.2.K.M.m.3.8.:.F B o.v L $.%.$.A X 1 S.W.w.T.!.,X3X&X&Xx.y.a.Y L U ",
"> + $ % . - w q & * O 1 q 3 u s u 3 p h u p q X . & q 0       0 0 0 3 & + @ X + $ o V % k $ . & 1 < ; o 5 8 6 u 6 i 4 k # o > M ",
"4 o > % 8 3.[.,XG.V.4.7.*.) W. X7.;.w.E.~ ) w.*.) R.H.F.M.d d 0 g N.N.3.8.P M B j N C # $ - M k V 5 V k > $ V I l z ~ V M c m 4 ",
"k } O.J =.R.`.e.Q.W.,XwX9.e.T.{.h.=.:.=.9.z.&.e.OX X>X4XY.F.I.w f L.S._.v.d.@.@.#.U J c Y U U o.l H H T A I s.d.i.H ' ` Y +.+.+ ",
"v X.$...I ^ w.w.p.F `.&XoXe.9._.x.A A _ :.8.w._.}.<X4X1XXX[.P.= w G.J.9.{ @.X.$.W v k G I v K H b O.H c J P x | Y J A b #.8X%.$ ",
"o.Q O.J > ( z.9.} P =.J.&XR.9.z.x.^ -.h.e.Q.,X_.D.,X;XD.{.@XW.1 p G.oX:.-.W K W L Y : ~ F m +.U v I M D :.;.D Y G k B d.%.$.@.# ",
"#.E T M y oX~.I J H 5 7.#X{.9.9.#X:.F ;.Q.1XrXtX,X$XR.r.D.7.6.O 3./.Q.c.:.A B Y L H 5 V.6.v O.l H V ) C.C..X+X:.S _ -.o.E E $.% ",
"E K l M w.#Xk.J A N =.9.$X{.T.Q.`.Q.=.=.OXdXvX,Xc.;.6.;.;.( 6.< V.).T.h.=.A l L U Z ( q.1.D P N A 7 q.|.W.:XuXOX XxX+XI T K } $ ",
"L +.J D W.2XE.:.~ _ >.^ T.T.R.R._.E.F _ R.%X<Xc.H I -.~ ;.-.9.: i z.w.;.( =.G A k Z ;.} I D Z G N ) S.{.@X,XdXkXhXdX,XQ.:.G J % ",
"k G k 5 [.4X:X!.0.x.G F h.6.e.R.[.j.U I 9.#XE.I L J G D 9.9.w.: N E.;.] 4.4.!.6.0.!.e.k C / ] q.&.q.G.^..X3XMXMXiXnXNXrXqXk.A 8 ",
"4 ! i D.>X3X3X>X~.I x _ 8.:.>._ =.u.H B =.}.E.>.P v v l ^ -.h.+ 9 E.e.3.H.(.[.W.e.R.E.=.S ( V.L.S.F.V.D.(.@XkXdXmXVXnXMXkXpX0Xi ",
"r.{.(.@X>XeXeX;XQ.:.Z :.9.8.k.z.9.` T D w..X#XQ._ F ~ ] w.,.:.+ 7 8.z.D.P.XX{.D.w.;.9.=.w.3.S.A.L.H.G.G.1.W.iXdXmXgXBXfXkXZXgX<.",
"$XiXqXqX>X1X4X.X,XOX9.>.:.k.c.:.e.=.N ^ {.>XoXw.{ >.j.(.Q.} ^ ; M A >.D.^.[.[.S.C.:.I _ ,X/.I.F.L.L.(.@XJ.{.>X>X4X6XvXaXdXlXnXH.",
"W.qXdXvXpXuX4X2XqXaX0Xc.Z z.9._ e.E.;.( }.^.C.] A J J -.h.9.r.@ # A ^ w.|.H.S.K._ { v J _.H.4.5.I.|.W.#XOXoXD.V.S.OX9X9X].t.yX[.",
") %XrXpXkXkXiX3X1X4XNX+X=.Q.oX'.}.OXe.r.H.J.D.q.~ Z c A P :.Q.[ : 6.q.S./.C.w.D.:.K Y I ( G.V.4.|. XD.z.z.e.C.V.A.$X].l.o.c k.V.",
"9 OXrXrXkXmXfX>X2X3X3X#X,.h.Q.c.+X{.}.%X}.{.[.D.] ~ I U j j _ r 2 D.[.H.e.} { Y -.B K k S C.V.3.m.S.D.R.e.q.C.3.B.$Xd.L  .m y.* ",
"5.,XuXpXMXmXuXXX}.OX_.{.z.c.`.k.R.Q.>XuX>X X(.S.V.&.~ U o.+.} . s S.`.(.7.J ..K J o.s.W =.:.^ ( 4.F.[. X[.J.3.a ;.v.U b  .@.i.o ",
"2 y i <.S.m.d w e r t p t ; < e 6 i s p [ <.y 2 e O o 4 > : X & 2 q p g 1 o o * > % M % o + < = q a p q r r . & 2 8 6 * + N V X ",
"# , ! S.[..X`.R.S.1.6.U ` % ^ = &.K.J.&.[ ) 6.G.S.) D l m c k A ! q.S.U.N.a V , M z B M > + = & 1 Z V M A 5 7 7 n.T._ k l { l C ",
"y.B ^ 3XdX7X3X,XOXc.t.#.X.Y } + ( sX,XR.T.T.7.R.[.=.` E Y J P A S / V.Y.-X^.7.;.N } +.} k I {.3 F } o.d.%.o.o.v ( l.u.b O.#...A ",
"c : e.2X1X4XuXqX#XE.l.| | O.} X V '.~.:.E.h.{ =.1.C W T l B P j F ~ C.H.[.[.S.H.k.G , 5 ) z._.2 B R E #.%.O.O.Q V a.i.y.K W c B ",
"Z 7.#X1X4X;X XgXvX,Xx.O.d.L L o v ..L -._ ' =.~ ~ ` W T C ~ P x A ~ r.q.e.R.q.L.9.A.B.;.w.C.( + V W W O.O.K Y y.H E o.E o.E H k ",
"9 q.G.XX=X[.#X9X0XOX^ { ..Q @.k E %.O.U P _ ' ( S F F > ) ] ' ^ ^ ' :.^ I -._ ' &.B.8.X.R U :.+ A L U %.X.H } R z K O.H l z k N ",
"6.G. X|.[.>XpXOX].*X'.y.L O.g.k H #.$.K B B P Z _ ) ~ i 3.C.W.`.w.8.=.J K K H H U y.g.%.R b A X # m b O...A J b P -.U P M A D ! ",
"1.{.>XP.3XaX3XgX`.&XjXl.U b +.M B $.R { l Y A A _ ^ V.4.4.H.oX;X6.=.J L Y K b b R X.f.i.O.#.A X < u.I Y o.M A U U R L j I J { I ",
"r.<XiX1X4X4XiXgXrXpXjXi.m O.O.$ x 8X%.{ Y Y A l B ) Z.M.V..X4X=XQ.>.L b W y.o.@.#.8XQ #.%.X.` o 7 { H v J M P U v E L B H J x l ",
"!.2XdXMXsXuXdXzXzXBX0Xh.v R ..: k i.L l b b j K i C.K.n.S.}.=X-X(.-.L j o.K L $.%.f.Q X.8XQ @.8 > I A G A 5 _ l A x ..L H ~ Z =.",
"D.<XpXnXAXZXAXSXZXbXxXk.U E ..> l n v l o.o.U } 6 q.Z.M.S.P.I.M.C.:.A k U K a.$.#.o.W f.$.$.X.$ , A _ 6.6.;.S ^ F I J A 5 ( 9.9.",
"}.3XuXMXZXzXnXSXlXrX0X>.H E H @ P O.o.P J x Z , ) m.K.L.I.P.F.M.V.&.S N J Y y.U R H A n #.i.O.+ > I ~ !.{.G.0.e.T.;.I G ( !. X[.",
"4X3X3XcXmXvXCXSXnXwXx.-.l K l O l o.U M N Z S 9 4.S.Z.M.F.F.K.K.m.<.V.6.o.b H x z A P l W Y H @ % V ! q.[.;X}.%X#XQ.9.w.!.;X3X,X",
"2X3XkXkXpXkXCXAXlX&Xk.-.P v P O A } j 7 ;.w.V.S.G.F.m.N.M.U.L.K.P.B.G.q.{ } v v I B V J H P v X 4 1.6.H.5X1XpXyX<X&X_.D..XqX1X1X",
"OXOXtXxX&XtXVXZXlXrXOX].j.A G & : Z Z w.{.(.Z.|.I.P.M.F.I.I.I.L.L././.G.F k I I N ~ ^ _ S N k < y <.|..X=X3X%X9XiXqX5X.X3XrX X}.",
"R.D.R.&X9XqXnXbXdXuXqXwX{.^ ^ y V.Q.{.1X1XG.m.L.P.P.F.I.-XI.P.L.I.^.K.K.W.D.1.5 ) [ m.&.q./ 9 & a S. X.X>X>X,XpXdXiX1X1X2X{.D._.",
"& 3 < s s r 4.2.<.s s 2.a 4 6 q N.<.d f u ; 3 3 w q 0 w f p w t g e w w t t 0 2 q 3 0 w = e 2   = q p 2 h d m.P.XX^.2.d a < * * "
};
