/* XPM */
static char *_e5afcf9d8b94192ebd84b8acd80e5118Rlb7hWiiujidSqq[] = {
/* columns rows colors chars-per-pixel */
"64 64 218 2 ",
"   c #65675E",
".  c #5E6567",
"X  c #5C7263",
"o  c #666666",
"O  c #686765",
"+  c #656B65",
"@  c #6A6A65",
"#  c #65666A",
"$  c #6C666A",
"%  c #67696B",
"&  c #6B6B6B",
"*  c #796F66",
"=  c #736E6D",
"-  c #796D6C",
";  c #63746B",
":  c #6B726E",
">  c #74736D",
",  c #797768",
"<  c #79726D",
"1  c #6B6F73",
"2  c #696A77",
"3  c #746E74",
"4  c #7B6E79",
"5  c #667473",
"6  c #6C7274",
"7  c #667977",
"8  c #6A7B76",
"9  c #66737D",
"0  c #6C737B",
"q  c #747474",
"w  c #797374",
"e  c #757974",
"r  c #787977",
"t  c #737579",
"y  c #7A757A",
"u  c #757A7B",
"i  c #7D7D7D",
"p  c #876E71",
"a  c #827D75",
"s  c #817E7D",
"d  c #69817B",
"f  c #75827D",
"g  c #7D817D",
"h  c #80807E",
"j  c #6A7782",
"k  c #647C85",
"l  c #647D8B",
"z  c #697C8C",
"x  c #757E83",
"c  c #7D7E81",
"v  c #747C89",
"b  c #7C7D8C",
"n  c #677F95",
"m  c #827E82",
"M  c #847889",
"N  c #5F8495",
"B  c #658285",
"V  c #65828B",
"C  c #6C838C",
"Z  c #6A8988",
"A  c #748382",
"S  c #7D8182",
"D  c #728884",
"F  c #74828A",
"G  c #7B848C",
"H  c #6C8394",
"J  c #6F8890",
"K  c #6E8A9D",
"L  c #738B94",
"P  c #7E8C94",
"I  c #74899A",
"U  c #7B9799",
"Y  c #7B9B9D",
"T  c #74A39F",
"R  c #6F8AA1",
"E  c #7A98A6",
"W  c #6DA4AD",
"Q  c #77A1A8",
"!  c #3FBEFD",
"~  c #59ADDD",
"^  c #4DB5DF",
"/  c #5DB5D4",
"(  c #63A9C2",
")  c #64A6D6",
"_  c #63B2DE",
"`  c #56ADE5",
"'  c #5BADE3",
"]  c #57ABE9",
"[  c #4DBAE3",
"{  c #55B2E4",
"}  c #55B6EC",
"|  c #5AB8EA",
" . c #4ABCF4",
".. c #48B7F8",
"X. c #46BFFC",
"o. c #4BBDFC",
"O. c #56B7F4",
"+. c #52BDF3",
"@. c #52BCFB",
"#. c #3FD9DC",
"$. c #3ED6E5",
"%. c #36DDE5",
"&. c #3ADCE4",
"*. c #34DDEB",
"=. c #3EC5FC",
"-. c #35DDF6",
";. c #1BF6FF",
":. c #2DEAE6",
">. c #3CE3E5",
",. c #32E4ED",
"<. c #26E6F4",
"1. c #2BE5F5",
"2. c #2CEAF6",
"3. c #2BE6FB",
"4. c #24E8F9",
"5. c #24EAFD",
"6. c #2AEAFC",
"7. c #31E3F4",
"8. c #3CE5F6",
"9. c #30ECF4",
"0. c #31E4FA",
"q. c #22F3FF",
"w. c #2EF0FF",
"e. c #4FC5CF",
"r. c #57C7CC",
"t. c #55CACB",
"y. c #49CCD5",
"u. c #47D6D6",
"i. c #46D3DC",
"p. c #42DADB",
"a. c #50D2D6",
"s. c #44C8ED",
"d. c #43D5E4",
"f. c #47D8E6",
"g. c #41D5EA",
"h. c #43D9E9",
"j. c #42C6F7",
"k. c #43C4FA",
"l. c #4DC2FD",
"z. c #51C1F8",
"x. c #41E3EC",
"c. c #818282",
"v. c #8F8683",
"b. c #898A85",
"n. c #828489",
"m. c #868A8B",
"M. c #8D8D8D",
"N. c #918D83",
"B. c #978A85",
"V. c #918E8D",
"C. c #86958D",
"Z. c #8D918D",
"A. c #91908E",
"S. c #848C93",
"D. c #8D8E92",
"F. c #918E92",
"G. c #9C8B90",
"H. c #849295",
"J. c #8E9091",
"K. c #84949D",
"L. c #8A929A",
"P. c #939393",
"I. c gray59",
"U. c #9A919F",
"Y. c #94999D",
"T. c #9A9A9A",
"R. c #95A29E",
"E. c #8898A7",
"W. c #959AA2",
"Q. c #89A0AB",
"!. c #96A0A8",
"~. c #A5A5A5",
"^. c #A9A9A9",
"/. c #B3CDDF",
"(. c #9DD4E6",
"). c #9CD6EC",
"_. c #89DCFA",
"`. c #9AD9F0",
"'. c #9BDCFA",
"]. c #B8CCE3",
"[. c #A5D4E5",
"{. c #ABD5EC",
"}. c #B4D2E5",
"|. c #BAD2E5",
" X c #B4D3EB",
".X c #BAD7EB",
"XX c #A7D7FB",
"oX c #A6DBFC",
"OX c #ACDAFC",
"+X c #B3D9F4",
"@X c #BDDCF6",
"#X c #B6DFFC",
"$X c #B9DFFE",
"%X c #96E5F6",
"&X c #9CE5FB",
"*X c #A4E3FC",
"=X c #ABE0FD",
"-X c #BDE1F7",
";X c #B4E1FE",
":X c #BCE2FC",
">X c #B7EAFD",
",X c #C3DFFD",
"<X c #C9DEF9",
"1X c #C5E0EF",
"2X c #C4E1F6",
"3X c #C3E3FE",
"4X c #CAE4F8",
"5X c #DDEAF1",
"6X c #CEF6FB",
"7X c #D9F9F9",
"8X c #EDEDEC",
"9X c #E5F5FA",
"0X c #E7F9FA",
"qX c #ECF9FD",
"wX c #F7F7FD",
"eX c #FBF7FD",
"rX c #F4FCFD",
"tX c #FEFEFE",
/* pixels */
"P.b.M.m.c.i S i s i g c i i S s i i S S b.b.M.M.I.T.T.T.T.T.T.A.r q q y T.T.T.T.b.M.M.n.h s i i g i i g c s c i s c c c.M.b.M.T.",
"b.c i i q q q q q q q q q q q q > q q q i m h c.M.A.V.A.M.A.P.n.& O o & b.P.J.b.c.s c i q q q q q q q q q q q q q q q r i s c I.",
"b.i s i q q q q q e q q q e q q q q q q c i i c.M.V.J.M.V.D.P.n.& & o & M.Z.J.M.c.S i i q q q q q q q q q q q q q q q q m i c I.",
"M.c i i y q q r y y r r r y r y i i y y c.c.c.n.M.J.M.P.D.M.P.b.& & & q M.M.F.M.c.c.c.c.y y i e q = 1 q q r q q q q q r i i i P.",
"m.s s i S i i c.M.M.M.M.M.M.Z.M.V.V.M.M.V.M.M.D.P.M.Z.F.Z.F.F.b.q q q y M.M.F.M.M.M.J.V.M.M.V.n.& & % & i g c m s s i i q q q M.",
"b.m i c s h i c.M.M.A.D.J.M.F.J.F.D.Z.Z.Z.F.F.F.V.J.V.D.M.P.F.b.q q q r M.P.M.P.M.P.F.Z.A.A.A.b.& O % & s s m s s g g i q q q M.",
"M.c m i c.i i S J.P.D.F.A.J.F.F.L.F.N.M.Z.D.P.F.J.D.V.D.M.J.P.M.q q q y M.D.M.P.M.M.M.P.A.A.A.b.  o o @ i s a a g g g i q q q M.",
"b.c i i i i i i b.b.b.M.b.m.b.M.E E E.E.m.b.b.b.b.M.b.M.b.M.b.n.r r r i m.M.b.b.M.M.M.b.M.M.M.m.0 2 4 t L K R I S s h i r q q P.",
"b.S i i & & o & y q q q q t , Z +.....) 0 q > q q e q q q q q i M.Z.M.b.r q q r i c.S s h s i K.<X3X3X*XO.O.@._ A h S S s c s I.",
"M.g i y o & o & q q q q q y 3 z l.o.X.} 6 q q q q q q q q 3 q i D.Z.F.F.q q q r i s s c h i i P ;X$X,XoX .o.o.' A a m g i h g I.",
"b.m s i & o O & q q q q q q > V l.o.o.} 8 q q q q q q q q q > y C.Z.D.b.q q q q S i S s h i h K.:X:X;X*X@.l.l.| F s g g g m m I.",
"b.c i i q & 1 q q q y q q r q H / ` ' ) 8 3 > q q y q e S F A S Q E.E.Y w r q r i i i i i s r S. X X}.(.~ ] { ( G s i i m i g I.",
"M.c i c.M.Z.M.b.i i i i c s i m S M F n @ $ & : g i i H.2X:X3X*X1.0.6.h.J g c i r q q e q q q q j 1 * * 6 0 7 j e y q r h c.i I.",
"M.i c c.M.M.F.M.c.c.c.c.c.h S S g g s i @ o # & i S S P :X;X;X&X<.<.4.u.b c.i i q q q q q q q q t q t q q q y w > q q q i g c.I.",
"b.i s c.M.P.A.M.s i i i c.g c c.i i i i & @ # & i i c P 3X;X:X&X<.6.6.*.b i c.i q q q q q q q q q q q q q q q q q q q e g g m T.",
"M.c.i c.M.F.Z.M.n.c.c.c.i i y i i i i y & & & & i i i S.].{. X(.p.d.g.y.D i i i y i y i i r y i y i y r r i u r i y y i y i y J.",
"M.c i c.V.M.P.M.M.M.M.b.y q q q q q q q q 6 q q q q q q : & 1 6 5 5 7 5 q q e y b.M.M.M.M.M.M.M.M.M.M.M.M.M.M.M.M.M.M.b.& & . m ",
"b.i g c.D.A.P.M.P.J.P.b.q q q q q q q q q q q q q q > q > q > q q q t q > q q y J.F.A.V.M.V.P.A.P.Z.M.P.P.F.M.P.A.J.F.m.& o O c.",
"M.m i c.D.D.M.P.D.V.D.b.q q q q q q q q q q q & q q > q q q 0 q q q t q e q q e M.V.M.M.N.N.Z.A.Z.D.D.V.F.D.D.P.M.D.F.b.& o O c.",
"m.i i m b.b.M.b.M.M.M.b.y q r r t r q i h c.h c.x C F G q q u q q q q q > q 6 i ~.T.T.Y.Y.Y.Q.W.b.M.M.b.b.b.M.b.b.b.b.n.& & & b.",
"S q q e y q q r h c.g c.i i i i i i i P.tXtXtXrX@X;X:X|.> q q w i i g y & @ o y tXtXtXqX+X#X:X/.: q q e y e q q & & & & c i s I.",
"s q q q q q q q i m m i h h i s s i i M.tXtXtXwX-X;X;X X1 q t r h s h i & o o q tXtXtXqX:X#X;X}.& q q q q q q 6 o & & & s c c I.",
"i q e q q q q q i g S i i i i i S i w v.tXtXtXwX-X;X;X}.= * q q g i h i o # o q tXtXtXeX-X#X,X].& q q q q e q q o & & & i g m I.",
"c.y y u y r y i m g i c.M.M.b.b.L G S U.7X9X9X7XoXoXOX(.l l N Z S g i i : & & u 9X0X9X5X&X&X&X(.r i q y y y r e : & : > y i y P.",
"T.M.M.Z.M.M.M.M.c i i M.tXtXtXrX@X-X:XOX}  . . . .X. .s.8.2.w.a.f g s S g i r L O. ... .<.<.1.a.U M.V.M.M.M.M.M.M.M.M.n.& & o c.",
"T.J.M.P.J.V.P.b.i c.i M.tXtXtXqX:X;X;XXXX.! ..X.X.X. .k.0.6.3.f.u h s i S g h K ..o.o.j.1.1.5.i.Y A.Z.D.A.J.A.F.D.V.P.b.& O o c.",
"T.F.M.P.F.J.F.D.m g i M.tXtXtXrX-X;X3XOX .@.o.o.o.l.o.k.9.6.6.&.f g c c.s h h L +.o.l.=.3.0.5.f.L.V.M.D.D.A.J.D.V.M.P.b.& o o c.",
"I.M.M.b.b.M.M.b.c.i i F.8X8X8X5X].}. X).~ ' ] ` ` ` ` ^ d.h.*.e.g g i i s r i C / ` ` { g.g.*.r.H.b.M.b.M.b.b.M.M.M.M.n.& = & n.",
"b.c.i c.c.i h i i g c.i > & & 6 2 9 - * : 8 6 : 6 q 6 = > : ; 6 q q q q & o @ $ j 1 = : 7 & 5 1 4 y q r q q q q c.i h c.h i i I.",
"M.S i m i c.S i h c i i q q q q q > q q q q q q q q 6 q q q q q q q q q & + + & q q q q q q : q 4 t q q q q q e i c.i s h c h I.",
"b.i c c i i i i s i h s y q q > > > q q 3 > > 8 6 q e q q w w q q q q > O o     6 e 6 q q w t y q q q q q q q e i c.h h h h i I.",
"M.c i c.L.D.M.S.L L K L 6 > = q y i i y q q q q q q e e r w w u S.c.n.S 0 u y v r i u e i y e i y i y u i i y y c.c.n.c.c.c.n.T.",
"M.c s L.:X;X:X=X..@.l.` # $ O q M.M.D.b.r q q q i s g i i i i I.tXtXtXrX-X:X>X@XL.M.M.Z.M.M.M.M.M.V.M.M.M.M.P.M.M.M.M.M.M.M.M.~.",
"b.i s G -X:X;XoX .o.o.{ X o o & M.F.F.b.y q q e i g m S S S i D.tXtXtXwX:X#X;X XV.V.G.G.P.J.P.F.P.M.J.P.M.P.M.P.M.P.P.M.P.M.M.^.",
"M.i i G 3X;X;X*X .o.X.{ # # o q M.M.M.M.q q q q c.i g h i i < N.tXtXtXeX$X#X:X|.v.N.A.A.M.Z.P.D.P.D.P.M.D.F.Z.D.D.F.Z.P.P.D.M.^.",
"M.c s H. X{. X[.~ ` ] ) # 1 # q b.b.M.m.q q q q i i c S H.n.S Y.7X7X7X6X*X&X*X).Y E.Q E S.M.b.M.b.M.M.b.M.b.M.M.V.Z.F.M.M.M.b.~.",
"m.m i c 6 q > < 6 6 0 j q > q q r q e q q q u q q q q D :X=X3X'.7.1.7.1.3.1.3.1.,.:.9.a.0 r q e y q y e q t q i M.M.D.M.m i c.T.",
"b.s c.y q q q q q q q q q q > q t t 0 t 6 > q q q q q m 3X;X,X&X1.2.1.1.1.2.1.9.w.0.3.&.; q q q q q q q q q q r M.P.M.M.i g i I.",
"b.s g i q q q q q q q q q q w w q > t q e e q q q q q v 3X:X:X%X<.3.5.3.6.6.6.3.6.3.q.%.; q q q q q q q q q q e M.P.F.M.c.i i I.",
"M.c h i y r q e e i y y q q t j d V V u e y y e i y r G  X+X.X`.$.$.&.$.$.h.$.h.h.i.f.r.0 r i y y r r r e q y i M.b.M.b.i i c.I.",
"M.i h s S S i c.M.F.M.b.y 6 q H | l.o._ K.V.N.M.M.M.M.M.6 5 - 3 # . . . 5 5 1 0 L.Z.D.U B.F.M.M.V.M.V.V.c.i c h c i c.c.i s S I.",
"b.c i i i s s c.M.M.A.b.q q , B l.l.k.] H.V.Z.A.D.A.A.b.q q q 3 o o O o > q q q Z.A.D.D.M.V.A.Z.M.Z.Z.M.S S s g i c.g c s c s I.",
"M.h S i g m S c.D.P.F.b.q y q V l.X.X.| H.M.M.P.F.M.J.b.q q q : @ o & & q q q r M.D.F.V.V.V.F.V.V.Z.A.b.s S g c.s S s c.h g S I.",
"n.y i i c i s c.b.M.D.b.r q y C ' ' ' ) H.M.M.M.M.M.D.b.r y y q 1 3 & 6 y y r i M.M.M.A.Y.E.W.E.T E Q T M S c.c.c.c.c.c.i y i P.",
"q & & & i m g m g c.m S i s S y k 8 7 l a c.c.c.h c.g m i i S c.M.M.M.M.D.M.A.M.c.c.a M.2X;X3X*X>.7.6.p.K.A.A.A.D.M.F.b.& & o c.",
"q o # & s g s g s S g s s h g i q < q r a m c.c m h c.i h c.i c.D.Z.J.J.M.P.M.M.h c i S.:X;X#X&X0.3.6.>.I.A.N.A.Z.P.F.b.& o O c.",
"q o o & g S S s g c.c.g S s g i q q q r i i i i i i S g i c.i c.V.M.V.M.M.F.M.M.s i , m.>X:X<X*X1.4.6.i.V.h G.F.P.F.A.b.& @ # c.",
"e & & = i y i i y i i y i i i y q q q e y i i i i i i i y i i c.W.!.T.P.T.T.T.R.S.S.b.E.'.'.oX_.-.-.-.d.W Q W E D.b.M.n.& = & n.",
"b.i i i q q q q q y t q q q q q q q q q q q q y q q q q q q q S.3X;X;X<XtXtXtXrX@X;X:XOXz. .O.@.k. .o.j.x.:.9.a.5 q y r i i i I.",
"M.c c.i q q q q q q q q q q q r q q 6 q e q q q q q q q q q 6 n.:X;X#X4XtXtXtXqX@X#X$XXXX.o.l.o.o.o. .j.3.3.5.h.0 > q r m h c.I.",
"b.m i i q q q 3 q q q q 3 > q q 6 q > w q q q q q q q e q q q n.>X>X;X2XtXtXtXwX-X#X3X+Xo.o.o.o.o.o.o.j.-.6.;.h.9 < q q g m i I.",
"b.g m i r r r r q q q t n.x u x B l n z r q y q q u q y q q q n.|.}.}.}.7X7X7X6X&X*X&X%X~ ` ` { ] { { [ f.h.&.t.7 r w i c.c.c.I.",
"M.c s c.M.M.M.m.q q w G 1X-X-X&X,.4.9.u.C i s i i i s i q q q y t 0 1 k $.,.,.7.1.3.1.y.9 6 0 0 G f u A f d A b V.Z.M.M.M.M.M.~.",
"b.S c c.M.P.D.M.q q q A 3X;X;X&X<.3.3.>.b s s s i S g y q q q q q q * k 3.4.6.4.<.3.3.%.; > q y c g m s S S s m V.D.V.M.P.M.D.~.",
"M.c i c.M.D.M.M.q q q G 3X;X,X&X<.6.;.:.v i s c g m g i q q q 6 q w > B w.6.6.6.3.0.5.*.0 q > q i g i h h s g c.V.Z.Z.P.M.D.V.~.",
"b.m i c.b.M.M.b.r q q c.|.{..X(.u.#.h.t.M i a s i i i i q q q q q q q V u.h.p.p.p.g.h.r.0 y r i g s i i i i i c.M.b.M.b.M.M.b.~.",
"b.i i s c.c.c.c.i c i i 6 5 - 3 5 5 0 d 6 q q q q q q q q q q y m g i S D c u x Z.P E H.G.V.M.b.S i i i q q q q q q q r S m g T.",
"M.c.i S i i i g m c s i w q q q q w p > > 8 8 q q q q q q q q r m i h s i g i c.V.V.V.V.Z.M.P.M.s c i i q q q q q q q r i S i I.",
"M.c c.i c s S i i h S i q q q q 3 w t q q q q e q q q q q q q e g s m m c S S c.D.M.Z.V.Z.F.P.M.c.i i i r q q q q q q q i c.i I.",
"b.y i i i i i i i i i i q 3 q q q 1 q q r y y y r y u r q y e y s m s c s s s c.M.m.M.M.M.b.b.n.i i i i q q q q y q y r c i c.I.",
"c.q q q q q r y e q y q q q q 3 & o & q b.M.M.M.M.M.M.M.c.i i c.i s c h S i h S m h c.s y q r q q q q q q q q y i c h c i S s I.",
"S q q q q q q q q q q q q q q > & o o & M.P.M.P.J.J.J.M.c.i c.i c.S s i s c i s S s i i q q q q q q q q q q q q g s c.i h s c I.",
"c q q q q q q q q q q q q q q 3 @ O o # M.D.J.M.M.M.V.M.c.i i s i S i c.h c c.i g S i i q q q q q q q q q q q r s c i c.i i r I.",
"I.M.M.M.M.D.M.M.M.M.M.M.M.M.M.b.n.c.c.b.^.~.~.~.^.~.~.~.T.I.I.I.I.I.I.I.I.I.I.I.I.I.I.I.M.M.M.M.D.M.M.M.M.M.M.M.I.I.I.I.I.I.I.^."
};
