/* XPM */
static char *_3cedbe74f7a4fcfca431506d3faf443NG4oGLq7QHmIq6fC[] = {
/* columns rows colors chars-per-pixel */
"64 64 213 2 ",
"   c #493B24",
".  c #443822",
"X  c #54472A",
"o  c #5E512F",
"O  c #5F523F",
"+  c #534A3B",
"@  c #665A38",
"#  c #454345",
"$  c #474548",
"%  c #4C494B",
"&  c #554E48",
"*  c #534F50",
"=  c #555354",
"-  c #585657",
";  c #575759",
":  c #595758",
">  c #645C4B",
",  c #635D56",
"<  c #6F6349",
"1  c #726544",
"2  c #766943",
"3  c #77694B",
"4  c #6E6657",
"5  c #716755",
"6  c #766B59",
"7  c #7C715E",
"8  c #766A64",
"9  c #7A6B65",
"0  c #7C6E6A",
"q  c #766965",
"w  c #7C7165",
"e  c #7D716C",
"r  c #7F786E",
"t  c #7E7473",
"y  c #7D7874",
"u  c #867956",
"i  c #8A7E51",
"p  c #82755C",
"a  c #83775B",
"s  c #847465",
"d  c #857B63",
"f  c #81736D",
"g  c #857A6D",
"h  c #8A7B6C",
"j  c #8A7B64",
"k  c #827573",
"l  c #867A74",
"z  c #8A7D75",
"x  c #847C7C",
"c  c #897E7A",
"v  c #807778",
"b  c #907E7A",
"n  c #8E825A",
"m  c #978B58",
"M  c #A0965B",
"N  c #8B8266",
"B  c #93896C",
"V  c #978A67",
"C  c #8C8274",
"Z  c #8C827A",
"A  c #8B8879",
"S  c #93857C",
"D  c #948B7D",
"F  c #9A8D7B",
"G  c #948A75",
"H  c #9B937C",
"J  c #9D967B",
"K  c #A59B67",
"L  c #A1927E",
"P  c #A89B7A",
"I  c #ABA36B",
"U  c #ACA267",
"Y  c #B1A76C",
"T  c #B4AA6E",
"R  c #ACA373",
"E  c #A9A17B",
"W  c #B4AB72",
"Q  c #B5A875",
"!  c #BFB075",
"~  c #C2B47B",
"^  c #8D8483",
"/  c #928582",
"(  c #948B83",
")  c #9A8D84",
"_  c #968E8A",
"`  c #9C9284",
"'  c #9D938B",
"]  c #938E90",
"[  c #949295",
"{  c #9C9492",
"}  c #9E9A94",
"|  c #9B9899",
" . c #A29385",
".. c #A99B82",
"X. c #A3958C",
"o. c #A59A8C",
"O. c #AA9C8C",
"+. c #A49D80",
"@. c #A49A92",
"#. c #AB9C92",
"$. c #A59D9C",
"%. c #A69996",
"&. c #ADA482",
"*. c #A7A08E",
"=. c #A9A389",
"-. c #B4A68B",
";. c #ACA494",
":. c #ADA39B",
">. c #A7A399",
",. c #B3A596",
"<. c #B4AC95",
"1. c #B9AC96",
"2. c #B3A59C",
"3. c #B5AA9C",
"4. c #BAAD9D",
"5. c #B8A79D",
"6. c #BCB29D",
"7. c #A5A3A3",
"8. c #ACA5A4",
"9. c #AEABAC",
"0. c #ACA9A4",
"q. c #B1A7A2",
"w. c #B4ABA3",
"e. c #BBAEA3",
"r. c #B3AEAB",
"t. c #B8ADAA",
"y. c #BDB1A4",
"u. c #B5B1AD",
"i. c #BBB2AC",
"p. c #B7B1A3",
"a. c #AFADB0",
"s. c #B1AFB0",
"d. c #B5B3B5",
"f. c #B9B5B5",
"g. c #BDB8B5",
"h. c #B6B4B9",
"j. c #B8B5B9",
"k. c #BDBBBD",
"l. c #C8B988",
"z. c #C1B396",
"x. c #C4B59A",
"c. c #CCBE9A",
"v. c #D0BF93",
"b. c #C1B4A5",
"n. c #CABBA3",
"m. c #C4B6AA",
"M. c #C6B9AC",
"N. c #C9BCAE",
"B. c #C5B8A4",
"V. c #D0BEA8",
"C. c #C3B7B1",
"Z. c #C5BAB3",
"A. c #CBBEB4",
"S. c #C4BDBC",
"D. c #C8BEBC",
"F. c #D0BEB0",
"G. c #D2C59C",
"H. c #DACA97",
"J. c #D4C58E",
"K. c #CEC1A6",
"L. c #CBC0AE",
"P. c #D3C3A3",
"I. c #DBCCA7",
"U. c #D2C2AB",
"Y. c #D7C8AC",
"T. c #DDCCAC",
"R. c #D8C8A2",
"E. c #CCC2B5",
"W. c #CCC1BB",
"Q. c #C5C0BC",
"!. c #D1C3B3",
"~. c #D2C6BB",
"^. c #D4C9BB",
"/. c #DBCDBE",
"(. c #D9CBB5",
"). c #DCD0BF",
"_. c #E7D6A9",
"`. c #BFBDC0",
"'. c #C2BCC1",
"]. c #C6C2C3",
"[. c #CAC5C5",
"{. c #CBC7C8",
"}. c #CECACB",
"|. c #CDC8C4",
" X c #D4CAC4",
".X c #DBCDC2",
"XX c #D3CDCD",
"oX c #D9CECB",
"OX c #D0C7C2",
"+X c #DDD0C3",
"@X c #D5D1CE",
"#X c #DAD2CD",
"$X c #D3CFD0",
"%X c #D6D2D3",
"&X c #DBD5D4",
"*X c #DBD9D7",
"=X c #DAD7D9",
"-X c #DDDBDB",
";X c #D7D5D8",
":X c #E2D2C3",
">X c #E3D5CA",
",X c #E1D7D5",
"<X c #E2DAD5",
"1X c #E0D7DB",
"2X c #E1DDDC",
"3X c #DEE0DF",
"4X c #E4E0DF",
"5X c #EBE2DD",
"6X c #DFDFE1",
"7X c #E1DEE2",
"8X c #DFE0E4",
"9X c #E1E0E2",
"0X c #E7E4E8",
/* pixels */
"# 9.9.9.d.d.d.s.d.d.d.d.d.d.d.d.h.h.d.d.d.d.h.h.d.d.f.d.d.d.j.j.f.f.h.h.h.h.h.h.d.d.d.d.d.d.d.h.d.d.d.d.s.d.d.d.h.d.d.d.d.s.d.[ ",
"# 9.r.9.d.d.d.d.d.d.h.d.d.d.d.d.h.h.d.d.d.d.h.h.s.h.d.d.d.h.j.d.d.d.d.d.h.d.h.s.h.h.d.h.d.d.d.d.d.d.h.d.h.h.d.d.d.d.h.d.h.h.h.[ ",
"# 0.d.a.d.h.d.d.d.d.h.d.d.d.d.d.h.d.d.d.d.d.d.h.d.d.d.d.d.d.d.s.h.h.h.h.s.h.s.h.h.h.h.h.d.d.d.d.d.h.d.d.h.h.d.d.h.h.d.d.d.h.h.[ ",
"# 9.d.d.h.h.d.d.d.d.d.d.d.d.h.h.d.d.d.d.d.d.d.d.h.h.h.h.d.d.d.d.d.d.d.h.h.h.h.s.h.h.d.d.d.d.d.d.d.d.d.d.d.d.d.h.d.d.d.d.h.d.d.[ ",
"# 9.u.s.d.h.d.d.d.d.d.d.h.d.d.h.s.d.d.d.d.d.d.d.h.d.a.s.d.r.s.u.u.u.u.u.s.f.f.j.f.d.d.d.h.d.f.d.d.d.d.d.d.d.d.d.d.d.d.h.d.d.d.[ ",
"# 9.d.d.h.h.d.d.d.d.d.d.d.d.d.d.d.s.d.d.d.d.d.d.a.u.r.p.p.3.<.<.<.<.<.3.w.e.t.t.u.s.f.d.h.h.s.u.d.h.h.d.h.d.d.d.d.d.d.d.d.d.h.[ ",
"# 9.d.d.d.d.d.h.d.d.d.d.d.d.a.d.u.d.d.d.d.d.d.u.3.p.;.J J =.-.E R E E E E E E &.0.p.u.f.h.d.d.d.d.d.h.d.h.s.d.d.d.h.d.d.d.d.h.[ ",
"# 9.d.a.d.d.d.h.d.d.h.d.a.d.d.a.d.d.d.d.d.d.d.u.=.P n O @ n R R R R R I I I I Y >.<.u.d.h.d.d.d.d.d.d.d.h.h.d.d.d.h.d.d.d.h.h.[ ",
"# 9.d.s.d.f.d.f.h.h.d.d.a.d.d.d.s.f.h.h.s.j.u.} j u 1 @ u @ K Q Y I I Y U U T K V A s.h.d.u.f.s.d.d.d.d.d.d.h.h.h.d.d.d.h.d.d.[ ",
"# 9.d.f.d.d.u.d.s.d.d.d.h.d.s.d.j.f.d.h.j.f.>.D i u o u 1 X i ! I I Y W T T T K 3 6 7.h.d.d.f.k.d.d.d.d.d.d.h.h.d.h.d.d.d.d.d.[ ",
"# 9.f.s.d.d.d.d.d.d.d.d.d.d.d.d.s.h.h.s.j.u.` g u u o @ o   2 i I W W ! ~ ~ W M < , 7.h.a.u.d.h.h.h.h.s.h.d.d.d.d.d.d.h.h.d.d.[ ",
"# 9.s.s.f.u.d.d.d.d.d.d.d.d.h.h.h.h.j.8.r.t.) G P j @ X     @ j M I J.J.H.H.~ m X + ^ 9.d.s.d.d.h.h.d.d.d.d.d.d.d.h.h.s.d.d.h.[ ",
"# 9.d.s.d.d.u.d.d.d.d.d.d.d.d.d.j.h.s.{ 2.5.L -.P -.u     s ....J R v._._._.l.i . & r } s.u.d.h.d.d.d.h.d.d.d.d.d.h.d.s.h.d.h.[ ",
"# 9.d.d.d.f.d.f.u.d.d.d.d.d.d.d.f.s.t.@.2.5. .....-...O.5.F.F.T.z.z.V.T.I.P.-.p O w A } u.0.d.d.d.d.d.s.d.h.d.h.d.h.d.d.h.d.h.[ ",
"+ 9.d.d.d.d.d.d.d.d.d.d.h.d.d.a.i.p.b.#.#.5.b P ..b L ..#.5.5.5.6.4.1.1.-...F p 4 w r [ <.>.u.d.d.d.d.d.d.d.d.d.d.h.h.h.h.h.h.[ ",
"# 9.d.d.d.d.d.d.h.h.j.h.h.d.a.a.#.,.O.F b b s j j s b s s b b b S ) S S S h f w 6 4 6 ( =.<.p.d.h.d.d.d.d.d.d.d.d.h.h.h.h.h.h.[ ",
"$ a.d.d.h.h.h.h.d.f.d.d.h.f.r.} J J B a B G g 6 s f , f f q 9 q 0 0 0 0 k f 0 b ' C w ` o.;.>.i.h.d.h.d.d.d.d.h.d.d.d.d.f.d.f.[ ",
"$ a.h.d.d.h.h.h.d.d.d.d.j.f.>.y r N 7 H 6.<.C w s f s , q f f 9 q q 0 0 f 0 k %.w.2.A A H *.*.u.h.h.d.d.h.d.h.d.f.d.f.d.f.d.d.[ ",
"# a.d.d.d.d.d.h.h.f.d.d.h.d.{ , < 4 7 J 1.L w s , f f , f f q q q 0 f 0 q q k %.q.w.D 9 C A ` 0.d.h.d.h.h.d.d.d.f.f.d.u.d.d.d.[ ",
"$ a.d.d.h.h.d.d.d.d.d.f.h.h.} , < 4 7 d j s z O.f s f f q q , f 0 q 0 0 0 0 k / ' { @.D C C ' u.d.f.h.h.h.d.h.h.d.d.d.d.d.d.g.[ ",
"$ s.h.h.h.h.d.d.j.h.f.h.h.j.8.y 4 9 )  .h s  .2.) f f q q q s q 0 q 0 0 0 k f k c ^ i.i.) A :.u.d.d.d.d.d.d.h.d.u.f.d.d.f.d.g.} ",
"# s.d.d.d.d.d.d.h.f.f.f.d.j.h.| 9 e X.q.( F e.!.5.b q s q f q q q 0 0 0 0 k k k e k t.2.C ^ w.r.s.d.h.h.d.h.d.f.d.d.d.d.d.d.d.[ ",
"$ s.h.h.f.f.h.h.j.j.d.j.h.h.k.r._ e c %.q.Z..X~.C.%.f q f f f q k 0 v 0 0 0 0 f 0 f _ b Z >.g.f.d.d.h.d.d.d.h.h.d.g.f.d.d.d.d.[ ",
"% d.`.`.`.`.`.`.'.k.k.S.k.k.'.S.d.] v c ' m..XD.F.5.b f f q q f k q q k 0 f 0 0 f f k l @.Z.g.j.`.`.`.`.`.`.`.`.k.`.`.k.k.k.k.} ",
"% k.[.].{.[.{.{.[.[.{.[.{.{.[.{.}.Q.7.^ c $.C.D.M.~.#.f s f q f q f k f q f 0 q e 0 c 8.D.D.S.|.].[.[.[.[.[.].[.|.].].{.].{.{.| ",
"% ].{.|.}.{.}.{.}.}.}.}.}.}.}.}.}.@X@X[.q.$.:.C.D.F.F.) q f q f f f q 0 k q 0 t c X.u.OXXXXX XXX}.}.}.}.}.}.}.}.}.}.}.}.}.}.}.7.",
"= [.}.}.$XXXXXXX$XXX$X$X$X$X$X$X}.}.}.;XoXD.q.m.D.F.^.m.b s f f q f q f f q ^ $.Z.OX#XXXOXXXXXoX$X$X}.$X$X$X$XXX@X@X@X$X$X$X%X7.",
"= {.%X%X%X$X%X%X$X$X%X$X$X%X$X$X$X%X$XXX$X}.t.g.F..X^..Xb.b f 9 q k k f q f 8.oXoXoXXXoX#XoXoXoX$X$X$X$X$X$X$XXX@X%X$X$X$X$X%X7.",
"= {.;X@X%X%X%X%X%X%X%X%X&X&X&X&X$X6X;X%X%X}.t.m.'.:X:X/..Xb.b f e f 0 9 0 v t.oXXX XoX#X&X#X#X&X;X%X%X&X%X%X&X=X%X%X#X&X%X%X*X7.",
"= {.%X%X*X%X=X%X=X;X=X=X;X&X&X=X;X$X$X;X3X#Xt.A.'.:X.X:X:X/.5.f 0 0 0 0 0 v '.oX,X,X&X&X&X#X,X&X*X=X=X=X*X*X&X&X*X&X%X*X*X*X3X9.",
"= }.3X;X*X;X*X=X=X=X=X&X;X=X=X&X-X;X=X-X&X Xp.~.:X>X/.:X:X.X.X%.l w 0 f f b '.,X#X#X&X*X,X2X1X&X*X-X*X*X*X*X*X*X-X-X&X*X3X%X3X0.",
"= }.*X*X-X-X-X=X=X-X&X=X=X=X1X-X-X;X-X*X%X@Xp.A..X:X:X:X(.:X:XF.X.g 9 9 f b oX,X,X,X,X,X<X&X*X2X1X-X,X-X-X<X-X-X<X3X*X3X*X3X3X9.",
"= @X3X;X;X*X*X-X3X%X*X*X*X;X*X*X*X*X-X;X-X|.t.!./.+X+X+X.X).).).^.X.r 8 e ^ XX4X*X<X-X<X-X-X-X<X-X-X,X-X*X<X-X*X<X*X<X-X-X-X*Xp.",
"= }.*X*X*X*X;X=X%X*X*X*X*X*X=X*X&X%X-X;X;XD.i.!..X.X+X+X/.(.).)..XL.#.w 0 ^ #X&X-X1X-X*X2X*X-X-X-X-X-X-X-X-X*X2X2X*X-X<X*X<X-X9.",
"= @X*X*X*X3X*X*X3X%X;X3X;X3X*X=X*X3X;X-X*XC.y.E.^..X^././.^.(./.^.@XM.C e _ &X*X*X-X2X*X*X2X*X<X-X<X,X-X,X-X,X-X<X*X<X-X&X-X*Xp.",
"= @X*X*X;X;X;X=X3X;X-X;X*X*X-X-X*X*X*X-X&Xt.i.A.W.~.^.^.~.^.^.^.E.^.E.X.r ` &X<X-X,X-X-X1X*X1X-X<X&X-X-X-X-X-X*X-X*X<X-X*X-X2Xu.",
"= %X3X3X-X-X;X-X3X*X-X-X-X-X-X-X*X3X&X3XoXq.m.N.E.W.E.E.D.F.E.E.!.A.N.e.g ' ,X1X-X2X2X-X*X-X*X2X-X2X<X-X2X-X-X2X<X*X<X*X<X4X-Xu.",
"= %X3X;X-X-X-X-X*X3X-X3X-X-X8X-X3X3X-X<XD.8.t.N.E.L.L.L.N.N.A.N.E.M.b.4.g @.<X1X2X2X2X<X2X,X-X,X2X-X-X-X-X<X-X<X4X&X3X<X*X<X4Xu.",
"; ;X3X3X-X8X-X3X3X-X3X3X3X3X3X8X3X9X-X2XC.q.p.M.N.N.M.M.M.M.M.M.M.b.e.#.z X.<X2X2X2X2X2X2X-X2X2X2X2X-X2X2X2X2X-X*X*X-X*X-X-X-Xp.",
"= ;X-X-X-X8X-X3X-X3X3X-X-X3X-X-X8X9X-X<Xr.,.t.M.N.N.m.g.M.m.M.m.m.y.4. .S ) oX7X2X2X2X2X2X2X2X2X-X<X4X-X2X-X2X2X4X<X4X<X*X<X-Xu.",
"= *X3X3X-X-X3X3X-X9X8X9X8X8X9X8X-X8X2XXX3.5.b.Z.M.M.M.m.m.m.B.m.m.e.2.X.) z S.4X<X-X<X2X2X-X1X2X2X2X2X2X1X2X1X2X3X<X4X4X*X4X4Xp.",
"= -X3X3X3X3X3X3X9X3X8X-X8X-X-X8X3X4X4XE.3.1.m.M.M.M.n.m.m.m.m.m.y.e.b.#.) Z w.1X2X-X<X2X2X2X2X2X2X2X2X2X2X2X2X-X*X4X*X4X<X*X-Xu.",
"= ;X3X3X3X3X-X8X8X8X8X-X-X-X8X-X-X2X#Xp.1.4.b.M.M.M.M.M.M.M.B.m.b.b.b.O.X./ ' #X2X2X-X2X2X2X2X2X2X2X2X2X2X2X2X2X<X4X-X<X-X-X4Xu.",
"= 3X3X3X-X-X4X3X-X8X8X8X8X8X8X3X8X4X^.1.1.4.b.N.M.M.M.M.M.M.m.M.b.b.b.#.O.' _ A.2X2X2X7X-X-X3X4X7X7X4X-X3X2X6X2X4X-X-X4X2X4X4Xu.",
"; =X-X9X8X8X8X8X9X9X-X9X6X9X9X7X7X<Xn.x.x.x.b.m.M.M.M.M.M.M.m.m.b.e.5.2.X.X.O.e.#X<X4X3X-X8X3X-X2X7X-X9X2X7X-X-X2X-X7X2X-X-X9Xh.",
"; -X8X8X6X-X8X3X8X9X9X9X9X9X9X9X7XoXx.c.c.x.b.m.m.m.m.m.B.m.M.m.5.b.q.5. .O.1.x..X#X<X3X3X8X8X4X9X6X6X9X6X6X8X8X9X9X-X7X4X3X4Xd.",
"; =X8X9X8X-X9X-X9X8X9X9X9X8X9X9X1XF.c.H.G.B.4.y.b.b.b.m.m.m.B.m.e.b.q.2.X.,.n.n.E..X<X4X6X6X9X2X-X8X6X6X6X6X6X6X7X7X6X7X7X6X9Xh.",
"; ;X-X9X8X6X9X8X6X6X6X6X8X7X7X7X&Xb.G.H.R.V.b.p.e.e.b.B.m.m.m.m.b.e.w.,.5.B.V.Y.B.^.&X4X-X8X7X7X9X6X6X9X9X8X9X9X9X7X7X7X7X2X9Xd.",
"; -X8X8X6X6X8X9X8X3X9X8X8X4X2X9X XB.G._.I.U.b.y.m.e.e.b.b.b.y.y.e.e.q.:.b.F.(.T.K.N.oX2X0X9X-X8X8X9X8X8X9X9X8X8X3X6X8X9X9X-X0Xd.",
"; ;X8X8X8X-X8X-X8X7X9X8X9X8X9X4X|.y.R.I.T.!.b.4.q.e.e.5.e.4.e.e.e.e.5.2.b.!.)./.n.m.oX1X=X9X9X9X8X-X7X3X-X8X9X9X8X6X8X9X9X8X9Xd.",
"; -X3X8X8X3X8X8X-X8X9X8X8X9X9X4XW.6.V.R.U.F.N.4.2.2.,.#.2.;.2.w.e.5.5.5.m.~..X^.!.,.8.8.7.s.}.-X6X3X-X9X6X9X8X4X-X8X-X9X8X8X0Xd.",
"; =X3X8X8X-X9X4X9X9X8X8X9X9X4X2XW.o.1.B.M.m.e.,.X.' ) / S D _ ' @.@.%.2.A.~.F.m.,.( ^ ] ] 7.[.9X7X8X8X9X9X3X8X8X9X9X9X9X8X8X8Xd.",
"; -X3X8X8X3X8X8X6X9X9X8X9X9X2X4X^.D F O.2.2.X.D z k k e e e t x b z S ' 8.t.2.X.w _ u.{.$X$X;X3X9X8X8X3X9X8X8X9X3X9X3X9X3X8X9Xd.",
"; -X8X8X6X3X8X4X9X8X9X8X6X9X9X2X#XD 8 f l S z z k k e t t e t t f f f z / b k f C Z.1X6X-X-X8X8X8X9X8X4X6X4X9X8X8X3X8X9X9X3X0Xd.",
"; 6X8X8X6X8X8X8X9X8X8X8X9X9X9X2X<Xq.b k 6 f 0 v k t t t t t t t t k k t f f f f / D.1X7X6X6X6X6X4X3X9X8X8X4X8X9X3X9X3X8X8X8X0Xd.",
"; ;X8X8X6X6X3X8X6X9X9X8X8X9X2X4X5X<XoXA.) ) v y k k t t t y t y t v v k k k b X.:.Z.oX7X6X-X0X7X8X8X8X7X8X8X8X-X8X3X3X0X3X3X8Xd.",
"; =X6X-X-X6X9X6X6X9X9X9X9X7X-X;X&X&XW.@XZ.Q.@.( ( ( / ^ ^ ^ x y x x k x ^ %.Z.'.XX&X,X7X0X7X6X7X8X-X9X9X8X-X3X9X9X-X-X8X8X3X9Xd.",
"; -X6X8X6X6X8X6X-X9X9X8X6X6X-X%X X|.Q.OXOX#X X@X&X&X%X@X$X$X$X}.'.'.D.[.{.}.=XoX&X&X2X2X7X2X6X8X9X8X8X9X9X-X8X9X9X9X8X9X-X8X9Xd.",
"; -X6X8X6X6X9X9X9X9X9X8X7X7X6X;X&X#X&X%X-X*X5X4X4X4X2X2X7X7X9X6X7X0X7X0X0X2X-X*X-X2X7X7X2X6X9X8X9X8X8X9X8X8X8X8X9X8X8X9X3X8X9Xd.",
"; -X6X9X8X8X9X9X9X9X9X9X7X7X7X6X3X-X0X4X0X-X4X3X2X*X-X1X7X9X8X0X7X0X7X1X6X-X;X2X7X0X9X9X7X9X8X4X9X-X-X-X3X8X8X-X9X9X-X9X8X8X8Xd.",
"; 6X6X8X9X9X9X8X6X6X6X6X7X6X7X7X6X-X9X-X7X6X6X7X9X7X-X6X8X-X9X7X7X9X9X3X7X-X-X8X6X0X6X8X6X6X8X6X8X-X-X-X6X8X8X8X9X9X9X9X3X8X9Xd.",
"; ;X6X8X6X9X9X9X9X7X6X7X7X6X6X6X9X9X8X8X6X6X6X6X9X-X-X7X9X9X6X9X9X8X9X8X9X-X=X3X9X6X8X9X8X8X8X6X9X8X6X6X-X8X8X-X9X9X8X9X6X-X8Xd.",
"; =X6X8X9X8X9X8X0X6X7X7X7X6X6X7X6X6X9X8X9X9X7X7X6X6X-X6X0X9X9X9X9X6X9X4X-X9X-X-X7X7X7X9X8X9X6X6X6X8X-X-X-X8X9X9X6X8X6X9X8X3X8Xd.",
"= =X8X8X9X8X9X6X6X6X6X6X7X-X6X7X9X6X9X6X9X-X7X6X7X-X6X7X9X9X9X-X0X-X0X9X-X3X-X-X6X6X6X6X6X6X6X6X6X8X6X;X-X6X9X8X-X9X3X8X6X3X8Xs."
};
