/* XPM */
static char *b81b6899015d4f46edc5656dffa36dbfpsWsSvXgVZR6O4Cl[] = {
/* columns rows colors chars-per-pixel */
"64 64 256 2 ",
"   c black",
".  c #010101",
"X  c #020202",
"o  c gray1",
"O  c #040404",
"+  c gray2",
"@  c #060606",
"#  c #070707",
"$  c gray3",
"%  c #090909",
"&  c gray4",
"*  c #0B0B0B",
"=  c #0C0C0C",
"-  c gray5",
";  c #0E0E0E",
":  c gray6",
">  c #101010",
",  c #111111",
"<  c gray7",
"1  c #131313",
"2  c gray8",
"3  c #151515",
"4  c #161616",
"5  c gray9",
"6  c #181818",
"7  c #191919",
"8  c gray10",
"9  c #1B1B1B",
"0  c gray11",
"q  c #1D1D1D",
"w  c #1E1E1E",
"e  c gray12",
"r  c #202020",
"t  c gray13",
"y  c #222222",
"u  c #232323",
"i  c gray14",
"p  c #252525",
"a  c gray15",
"s  c #272727",
"d  c #282828",
"f  c gray16",
"g  c #2A2A2A",
"h  c gray17",
"j  c #2C2C2C",
"k  c #2D2D2D",
"l  c gray18",
"z  c #2F2F2F",
"x  c gray19",
"c  c #313131",
"v  c #323232",
"b  c gray20",
"n  c #343434",
"m  c #353535",
"M  c gray21",
"N  c #373737",
"B  c gray22",
"V  c #393939",
"C  c #3A3A3A",
"Z  c gray23",
"A  c #3C3C3C",
"S  c gray24",
"D  c #3E3E3E",
"F  c #3F3F3F",
"G  c gray25",
"H  c #414141",
"J  c gray26",
"K  c #434343",
"L  c #444444",
"P  c gray27",
"I  c #464646",
"U  c gray28",
"Y  c #484848",
"T  c #494949",
"R  c gray29",
"E  c #4B4B4B",
"W  c #4C4C4C",
"Q  c gray30",
"!  c #4E4E4E",
"~  c gray31",
"^  c #505050",
"/  c #515151",
"(  c gray32",
")  c #535353",
"_  c gray33",
"`  c #555555",
"'  c #565656",
"]  c gray34",
"[  c #585858",
"{  c gray35",
"}  c #5A5A5A",
"|  c #5B5B5B",
" . c gray36",
".. c #5D5D5D",
"X. c gray37",
"o. c #5F5F5F",
"O. c #606060",
"+. c gray38",
"@. c #626262",
"#. c gray39",
"$. c #646464",
"%. c #656565",
"&. c gray40",
"*. c #676767",
"=. c #686868",
"-. c DimGray",
";. c #6A6A6A",
":. c gray42",
">. c #6C6C6C",
",. c #6D6D6D",
"<. c gray43",
"1. c #6F6F6F",
"2. c gray44",
"3. c #717171",
"4. c #727272",
"5. c gray45",
"6. c #747474",
"7. c gray46",
"8. c #767676",
"9. c #777777",
"0. c gray47",
"q. c #797979",
"w. c gray48",
"e. c #7B7B7B",
"r. c #7C7C7C",
"t. c gray49",
"y. c #7E7E7E",
"u. c gray50",
"i. c #808080",
"p. c #818181",
"a. c gray51",
"s. c #838383",
"d. c #848484",
"f. c gray52",
"g. c #868686",
"h. c gray53",
"j. c #888888",
"k. c #898989",
"l. c gray54",
"z. c #8B8B8B",
"x. c gray55",
"c. c #8D8D8D",
"v. c #8E8E8E",
"b. c gray56",
"n. c #909090",
"m. c gray57",
"M. c #929292",
"N. c #939393",
"B. c gray58",
"V. c #959595",
"C. c gray59",
"Z. c #979797",
"A. c #989898",
"S. c gray60",
"D. c #9A9A9A",
"F. c #9B9B9B",
"G. c gray61",
"H. c #9D9D9D",
"J. c gray62",
"K. c #9F9F9F",
"L. c #A0A0A0",
"P. c gray63",
"I. c #A2A2A2",
"U. c gray64",
"Y. c #A4A4A4",
"T. c #A5A5A5",
"R. c gray65",
"E. c #A7A7A7",
"W. c gray66",
"Q. c #A9A9A9",
"!. c #AAAAAA",
"~. c gray67",
"^. c #ACACAC",
"/. c gray68",
"(. c #AEAEAE",
"). c #AFAFAF",
"_. c gray69",
"`. c #B1B1B1",
"'. c #B2B2B2",
"]. c gray70",
"[. c #B4B4B4",
"{. c gray71",
"}. c #B6B6B6",
"|. c #B7B7B7",
" X c gray72",
".X c #B9B9B9",
"XX c gray73",
"oX c #BBBBBB",
"OX c #BCBCBC",
"+X c gray74",
"@X c gray",
"#X c gray75",
"$X c #C0C0C0",
"%X c #C1C1C1",
"&X c gray76",
"*X c #C3C3C3",
"=X c gray77",
"-X c #C5C5C5",
";X c #C6C6C6",
":X c gray78",
">X c #C8C8C8",
",X c gray79",
"<X c #CACACA",
"1X c #CBCBCB",
"2X c gray80",
"3X c #CDCDCD",
"4X c #CECECE",
"5X c gray81",
"6X c #D0D0D0",
"7X c gray82",
"8X c #D2D2D2",
"9X c LightGray",
"0X c gray83",
"qX c #D5D5D5",
"wX c gray84",
"eX c #D7D7D7",
"rX c #D8D8D8",
"tX c gray85",
"yX c #DADADA",
"uX c gray86",
"iX c gainsboro",
"pX c #DDDDDD",
"aX c gray87",
"sX c #DFDFDF",
"dX c gray88",
"fX c #E1E1E1",
"gX c #E2E2E2",
"hX c gray89",
"jX c #E4E4E4",
"kX c gray90",
"lX c #E6E6E6",
"zX c #E7E7E7",
"xX c gray91",
"cX c #E9E9E9",
"vX c #EAEAEA",
"bX c gray92",
"nX c #ECECEC",
"mX c gray93",
"MX c #EEEEEE",
"NX c #EFEFEF",
"BX c gray94",
"VX c #F1F1F1",
"CX c gray95",
"ZX c #F3F3F3",
"AX c #F4F4F4",
"SX c gray96",
"DX c #F6F6F6",
"FX c gray97",
"GX c #F8F8F8",
"HX c #F9F9F9",
"JX c gray98",
"KX c #FBFBFB",
"LX c gray99",
"PX c #FDFDFD",
"IX c #FEFEFE",
"UX c white",
/* pixels */
"a i s f j z c n M V Z S G J L U T E Q ~ / ) ` ] { | ! A J [ #.$.%.*.=.-.;.:.>.,.<.1.1.2.2.3.3.3.3.3.3.3.3.3.2.2.1.1.<.,.>.:.;.>.",
"d a f h l x b m B C S F H L I Y E Q ~ / ) ` ] { | S ; X O 5 Q *.*.-.;.:.>.,.<.1.2.2.3.4.4.4.5.5.5.5.5.5.5.4.4.3.3.2.2.1.<.,.>.<.",
"g d g k x v m N C A F H K I Y R Q ~ / ) ` ] {  .E *         9 O.;.:.>.,.<.1.2.3.4.4.5.6.6.6.7.7.7.7.7.7.6.6.6.5.5.4.3.2.1.1.,.1.",
"j f j z v n N V A D H K P Y R W ~ / ) ` ] { | X.B           . V >.,.<.1.2.3.4.5.6.6.7.8.8.8.9.9.9.9.9.9.8.8.7.7.6.6.5.4.3.2.1.3.",
"k h l c b M V Z D G K P U R W ! / ) ` ] { | ..O.m             % I 1.2.3.4.5.6.7.8.8.9.0.0.0.q.q.q.q.q.0.0.0.9.9.8.7.6.6.5.4.2.4.",
"z k x b m B C S G J P U T W ! ^ ) ` ] { | ..o.@.! &             3 *.5.5.6.7.8.9.0.0.q.w.w.w.w.e.e.e.w.w.w.q.q.0.0.9.8.7.6.5.4.6.",
"c z v m N C A F H L I T E ! ^ ( _ ] { | ..o.+.#.#.i             o ~ 8.7.8.9.0.q.w.w.e.e.r.r.r.r.r.r.r.r.r.e.e.w.q.q.0.9.8.7.5.7.",
"b c n M V A D H K I Y E Q ^ ( _ ' { | ..o.+.#.%.=.( ;             H 0.9.0.q.w.e.r.r.t.t.y.y.y.y.y.y.y.y.t.t.r.r.e.w.q.0.9.8.7.8.",
"n b M B Z S G K P Y R Q ~ / _ ' [ | ..o.+.#.%.*.-.:.Q <           J w.q.w.e.r.t.y.y.u.u.i.i.i.i.i.i.i.i.u.u.y.t.t.r.e.w.q.0.8.0.",
"M n N C S F J P U R W ~ / ) ' [ } ..o.+.#.%.*.-.:.,.2.} ,         T r.e.r.t.y.u.i.i.p.p.a.a.a.a.a.a.a.p.p.i.i.u.y.t.r.e.w.q.0.q.",
"B M V A F H L I T W ! ^ ) ` [ }  .o.+.#.%.*.-.>.1.2.4.=.7       o ' u.u.u.u.i.p.a.a.s.s.d.d.d.d.d.d.d.s.s.a.a.p.i.u.y.t.r.e.q.w.",
"C B Z D G K I Y E Q ^ ( ` ] }  .X.+.#.%.*.-.>.$.L A V r X       . u B K 5.a.a.s.d.d.f.f.g.g.g.g.g.g.f.f.d.d.s.a.a.p.i.y.t.r.w.r.",
"Z C S F J P Y R Q ~ ( _ ] {  .X.O.@.%.*.-.:.:.l                         V a.f.f.g.g.h.h.j.j.j.j.j.h.h.h.g.g.f.d.s.a.p.i.u.t.r.t.",
"S A F H L U T W ~ / _ ' { | X.O.@.$.*.-.:.1.) #                         4 w.h.h.j.j.k.k.k.l.l.l.l.k.k.j.j.h.h.g.f.d.s.p.i.u.t.y.",
"F S G K I T E ! ^ ) ' [ | ..o.@.$.&.-.:.,.<.g                           $ -.l.k.l.l.z.z.z.x.x.z.z.z.z.l.l.k.j.h.g.f.d.s.a.i.u.i.",
"H F J P Y R Q ^ ( ` ] }  .o.+.$.&.=.:.,.2.#.>                             ^ x.z.x.x.c.c.c.c.c.c.c.c.x.x.z.z.l.k.j.h.g.d.s.a.i.p.",
"J H L U T W ~ ( _ ] {  .X.+.#.&.=.;.,.1.5.^ o                             V c.c.v.v.b.b.b.b.b.b.b.b.v.v.c.x.z.l.k.j.h.g.d.s.p.a.",
"L K I T E ! / ) ' { | X.O.#.%.=.;.>.1.3.2.f                         : o   u h.n.n.n.m.m.m.m.m.m.m.n.n.b.b.v.c.x.z.l.j.h.g.d.a.s.",
"I L Y R Q ^ ) ` [ } ..O.@.%.*.;.>.<.3.6.` #   X X                 - | 6   * 6.N.M.M.N.N.N.N.N.N.N.M.M.m.n.n.b.v.x.z.l.k.h.g.d.f.",
"Y I T W ~ ( _ ] }  .o.@.$.*.-.>.<.2.5.2.i     g >                 G v.J   . } C.B.B.V.V.V.V.V.V.B.B.N.N.M.m.n.b.v.c.z.l.j.h.f.g.",
"T Y E ! / ) ' {  .X.+.#.&.=.:.,.2.4.8.( +   4 &.0               * 4.B.6.-   C B.C.C.Z.Z.Z.Z.Z.Z.C.C.V.B.B.N.M.m.b.v.c.z.l.j.g.h.",
"E R Q ^ ( ` [ | ..O.#.%.=.;.,.1.4.8.,.t   # ) p.z               v v.B.m.c   < u.S.A.S.S.S.S.S.A.A.Z.Z.C.V.B.N.M.m.n.v.c.z.k.h.j.",
"Q E ~ / _ ] }  .o.@.%.*.;.>.1.4.6.| t .   b u.f.G             X +.C.V.A.[     ~ F.D.D.F.F.F.D.D.D.S.S.A.Z.C.V.B.M.m.b.v.x.z.k.k.",
"! Q ^ ) ' { | X.+.$.&.-.>.<.4.3.E -     6 ,.d.g.Z             . X.A.Z.D.0.*   w c.H.G.H.H.G.G.G.F.F.D.S.A.Z.C.V.B.M.m.b.v.x.l.l.",
"^ ~ ( ` [ | ..O.#.&.=.:.<.3.%.b +   O a &.d.g.r.q               j b.D.D.Z.C   o #.L.J.J.J.J.J.J.H.H.G.F.D.S.A.C.V.B.M.n.b.c.z.z.",
"( / _ ] {  .o.@.%.*.;.<.<.Y 2   $ i ` e.d.f.k._ X               + >.H.G.K.u.,   h S.P.L.L.L.L.K.K.J.H.H.G.D.S.A.Z.V.N.M.n.v.x.x.",
") ( ` [ | X.+.$.&.;.;.{ c O & N +.q.a.s.f.h.f.h                   C D.J.K.L.` X % e.Y.I.I.I.I.P.P.L.K.J.H.G.F.S.A.C.V.N.m.b.c.c.",
"` _ ] } ..O.#.%.=.=.B %   2 [ e.u.i.a.f.h.l.0.,                   , g.I.P.U.D.C   L U.Y.Y.Y.U.U.I.I.P.L.K.H.G.F.S.A.C.B.M.n.v.v.",
"] ' {  .o.@.$.*.:.K O o c %.e.t.u.a.d.g.k.c.2.$                   O 3.T.U.Y.R.b.r , l.W.R.R.T.T.Y.U.I.P.L.K.H.G.D.S.Z.V.N.m.b.b.",
"[ ] | ..O.#.&.-.;.k 3 B 6.e.r.u.p.d.g.j.z.b.<.#                     +.E.T.R.E.Q.q.= ` Q.W.E.E.R.R.T.Y.U.I.L.K.H.G.D.A.C.B.M.n.n.",
"} {  .o.@.%.=.:.,.@.#.5.q.e.y.i.s.f.j.l.c.m.>.@                     ( W.E.W.Q.Q.W.F 0 S.~.Q.Q.W.E.R.T.Y.U.I.L.K.H.F.S.Z.V.N.m.m.",
" .| X.+.$.*.;.,.1.5.8.0.w.t.i.a.f.h.l.x.b.N.2.#                     K W.Q.!.~.~.!.G   @./.~.!.!.Q.W.E.R.Y.U.I.L.J.G.F.S.Z.B.M.M.",
".. .O.#.&.-.:.<.3.6.9.q.r.u.a.d.h.k.x.v.m.B.p.1                     N W.^.^././.Q.P l j Y./.^.~.~.!.W.E.R.Y.U.P.K.J.G.D.A.V.N.N.",
"o.X.+.$.*.;.,.2.5.8.0.e.y.p.s.g.k.z.v.n.M.V.n.p                     m Q.(.(.).).W.>.x.l S._.(./.^.~.!.Q.E.R.Y.I.P.K.H.F.A.C.B.B.",
"O.O.#.&.-.>.1.4.7.9.w.t.i.s.f.j.l.c.n.M.B.Z.D.I                     N ~._._.`.`.`._.J.G P.`.).).(./.~.!.Q.E.T.Y.I.L.J.G.S.Z.V.V.",
"@.+.%.=.:.<.2.5.8.q.r.u.a.d.h.l.x.b.m.B.C.S.H.4.#       X .         S (.'.'.].].].[.!.x.`.'.`._.).(./.~.!.W.E.T.U.P.K.H.D.A.C.V.",
"$.#.&.-.>.1.4.7.0.e.y.p.s.g.k.x.v.m.N.C.A.F.J.Z.h       + #         F `.[.[.{.{.{.{.{.}.[.[.].'.`._.(./.~.!.W.R.Y.I.L.J.F.S.C.C.",
"%.%.=.:.<.3.6.9.w.t.i.a.f.j.z.c.n.N.V.A.D.H.K.U.;.+     * 1         J ].}.}.}.|.|.|.|.}.}.{.[.].'.`._.(.^.~.Q.E.T.U.P.J.G.D.Z.Z.",
"*.&.;.>.2.5.8.q.e.y.p.d.h.l.c.b.M.V.Z.D.G.K.P.Y.G.j     : p         Q |.|. X X.X.X.X.X X X|.}.{.[.'.`.).(.^.!.W.R.Y.I.K.H.D.A.Z.",
"=.=.:.<.3.6.9.w.t.i.s.g.k.x.v.m.B.C.S.G.J.L.U.T.!. .    > V          .oX.XXXXXoXoXoXXXXX.X X X}.{.[.'.`.)./.~.Q.E.T.I.L.J.F.A.A.",
";.-.,.2.5.8.q.r.u.a.f.j.l.c.n.N.C.A.F.H.L.I.T.E.^.e.+   , ) O       :.+XoXOXOX+X+XOXOXOXoXXX.X X|.{.[.'._.(.^.!.W.R.U.P.J.G.S.S.",
":.:.<.3.6.9.e.y.i.d.g.k.x.b.M.V.Z.D.H.K.I.Y.E.Q./.v.:   =  .&     + s.$X+X@X@X@X@X@X@X+X+XOXoX.X X}.{.].`.)./.~.Q.R.Y.I.K.G.D.S.",
",.,.2.5.8.q.r.u.a.f.j.z.v.m.B.C.S.G.K.P.Y.R.Q.~.).C.1   . A ,     2 P.$X#X$X$X$X$X$X$X#X@X+XOXoX.X X}.[.'._.(.^.!.E.T.I.L.H.D.D.",
"<.<.3.7.0.e.y.p.d.h.l.c.n.N.V.A.F.J.L.U.R.W.~./.`.V.,     w q     q /.&X%X&X&X&X&X&X%X%X$X#X@XOXoX.X|.{.].`.)./.!.W.T.U.L.J.F.D.",
"2.2.5.8.q.r.u.a.f.k.z.v.m.B.Z.D.H.L.I.T.E.!.^.).'.P.0     3 z     t ].=X*X=X=X=X=X=X*X&X%X$X#X@XOXXX X}.[.'._.(.~.Q.R.U.P.J.F.F.",
"3.3.7.0.e.y.p.d.h.l.c.n.N.C.S.G.K.P.Y.E.Q.^.(.`.].[.~     u (     e `.;X-X;X;X;X;X-X-X=X*X&X$X#X+XoXXX|.{.].`.(.^.Q.E.Y.P.K.G.F.",
"5.5.8.q.r.i.s.g.k.x.b.M.V.A.F.J.L.U.R.Q.~.(._.].{.XXM.:   R y.o   5 ~.,X:X>X>X>X>X:X;X;X=X*X&X$X@X+XoX X}.[.'.)./.!.E.T.I.K.G.F.",
"6.6.9.e.y.p.d.h.l.c.n.B.C.S.G.K.I.T.W.!./._.'.{.|.XX}.A   -.G.=   * F.1X,X<X<X<X,X,X>X:X;X-X*X%X$X@XOX.X|.{.'._./.~.W.T.I.K.G.G.",
"8.8.q.r.u.s.g.k.x.b.M.V.A.F.J.P.Y.E.!.^.).'.[.|..XoX$X1.  ..(.8   . r.4X1X2X2X2X1X<X<X,X:X;X=X*X%X#X+XXX X}.]._.(.~.W.T.U.L.H.G.",
"9.9.w.y.p.d.h.l.v.m.B.Z.D.H.L.U.R.W.~.(.`.].}..XoX+X*Xd.  C Q.9     | 4X3X4X4X3X3X2X1X<X,X:X;X=X&X$X+XoX.X}.[.`.(.^.Q.R.U.L.H.G.",
"0.0.r.u.a.f.k.x.b.M.V.A.F.J.P.Y.E.!./._.].{. XXX+X#X=Xc.O h N.:     J 1X6X5X5X5X5X4X3X2X<X,X:X-X*X%X@XOX.X|.[.'.).^.Q.R.U.L.H.G.",
"w.w.t.p.d.h.l.c.m.B.Z.D.H.L.U.R.Q.^.).'.[.|.XXOX#X%X;X6.  4 q.&     Z 1X8X7X7X7X6X5X4X3X1X<X>X;X=X&X#X+XXX X{.'.).^.!.E.Y.P.H.G.",
"e.e.u.a.f.k.x.b.M.V.A.F.K.I.T.W.~.(.`.].}..XOX@X%X*X*X} f [ B.;     ' 8X9X9X9X9X8X7X6X4X3X1X,X:X-X&X$X+XoX X{.]._./.!.E.Y.P.H.G.",
"r.t.i.d.h.l.c.n.B.Z.D.H.L.U.R.Q.^.).'.{. XoX+X$X*X-X:XOX$X2X+Xd     u.rXqXqXqX0X0X8X7X6X4X2X<X>X;X*X%X@XoX.X}.]._./.!.E.Y.P.J.H.",
"y.y.a.f.j.z.b.M.V.A.F.J.I.T.W.~.(.`.[.|.XXOX#X&X=X:X,X2X4X6X6X/   % J.yXeXeXeXwXqX0X9X7X5X3X1X,X;X=X%X#XOX.X}.]._./.!.E.Y.P.J.H.",
"u.u.s.g.l.c.n.N.Z.D.H.L.U.R.Q./._.].}..XoX@X%X=X;X,X1X4X6X8XwX7.  4 |.uXtXtXrXrXeXqX0X8X6X4X2X<X:X=X&X#XOX.X}.[.`.(.!.E.Y.P.J.H.",
"i.p.d.j.z.v.M.V.A.F.J.I.T.W.~.(.`.[.|.XX+X$X*X;X>X1X3X6X8X0XtXV.X d ,XiXuXuXyXtXrXeXqX9X7X5X3X<X>X-X&X$X+XXX|.[.`.(.!.E.Y.P.J.H.",
"a.a.g.k.x.n.N.C.S.H.L.U.R.Q./._.].}..XOX#X&X-X:X<X3X5X7X0XwXuXI.O N 9XpXpXiXiXuXyXrXwX0X8X6X4X1X>X;X*X$X+XXX|.[.`.(.!.E.Y.P.J.G.",
"s.s.h.l.v.m.B.A.F.J.P.T.W.~.(.`.[. XoX@X%X=X;X,X2X5X7X9XwXrXpXP.o P yXsXaXaXpXiXuXtXeXqX9X7X4X2X,X;X*X$X+XXX|.[.`.(.!.E.Y.P.H.G.",
"d.f.j.x.b.M.V.S.G.K.U.R.Q.^._.].}..XOX#X&X-X>X1X4X6X9XqXrXyXsXD.. Q aXfXdXdXsXaXiXyXtXwX0X7X5X2X,X;X=X%X+XXX|.[.`.(.!.E.Y.P.H.G.",
"d.f.j.x.b.M.C.S.G.L.U.R.!./._.].|.XX+X$X*X;X,X2X5X7X0XwXtXuXgXl.  C tXhXgXgXfXdXaXiXyXrXwX9X6X3X1X>X-X&X#XoX X{.'.).~.W.T.I.J.H.",
"d.d.j.z.b.M.V.S.G.K.U.R.Q./._.].}.XX+X$X*X;X,X2X5X8XqXeXyXaX(.x   B tXkXjXjXhXgXdXaXiXyXeXqX8X5X2X,X;X*X$X+XXX|.]._./.!.R.U.L.J.",
"s.d.j.z.v.M.V.A.G.K.U.R.Q.^._.].}.XX+X$X*X;X,X2X5X8XqXrXyXsXQ.g   ! hXlXlXlXkXjXgXdXaXiXtXeX0X7X4X1X>X-X&X#XoX X{.'.(.~.W.Y.P.L.",
"s.d.h.z.v.m.V.A.G.K.I.R.Q.^._.].}..X+X$X*X;X<X3X6X9XwXrXuXaXgXE.u 9.xXxXxXxXzXlXjXgXdXaXuXrXwX9X6X2X,X;X*X$X+X.X}.]._.^.Q.R.I.P."
};
