/* XPM */
static char *result[] = {
/* columns rows colors chars-per-pixel */
"64 64 256 2 ",
"   c black",
".  c #010101",
"X  c #020202",
"o  c gray1",
"O  c #040404",
"+  c gray2",
"@  c #060606",
"#  c #070707",
"$  c gray3",
"%  c #090909",
"&  c gray4",
"*  c #0B0B0B",
"=  c #0C0C0C",
"-  c gray5",
";  c #0E0E0E",
":  c gray6",
">  c #101010",
",  c #111111",
"<  c gray7",
"1  c #131313",
"2  c gray8",
"3  c #151515",
"4  c #161616",
"5  c gray9",
"6  c #181818",
"7  c #191919",
"8  c gray10",
"9  c #1B1B1B",
"0  c gray11",
"q  c #1D1D1D",
"w  c #1E1E1E",
"e  c gray12",
"r  c #202020",
"t  c gray13",
"y  c #222222",
"u  c #232323",
"i  c gray14",
"p  c #252525",
"a  c gray15",
"s  c #272727",
"d  c #282828",
"f  c gray16",
"g  c #2A2A2A",
"h  c gray17",
"j  c #2C2C2C",
"k  c #2D2D2D",
"l  c gray18",
"z  c #2F2F2F",
"x  c gray19",
"c  c #313131",
"v  c #323232",
"b  c gray20",
"n  c #343434",
"m  c #353535",
"M  c gray21",
"N  c #373737",
"B  c gray22",
"V  c #393939",
"C  c #3A3A3A",
"Z  c gray23",
"A  c #3C3C3C",
"S  c gray24",
"D  c #3E3E3E",
"F  c #3F3F3F",
"G  c gray25",
"H  c #414141",
"J  c gray26",
"K  c #434343",
"L  c #444444",
"P  c gray27",
"I  c #464646",
"U  c gray28",
"Y  c #484848",
"T  c #494949",
"R  c gray29",
"E  c #4B4B4B",
"W  c #4C4C4C",
"Q  c gray30",
"!  c #4E4E4E",
"~  c gray31",
"^  c #505050",
"/  c #515151",
"(  c gray32",
")  c #535353",
"_  c gray33",
"`  c #555555",
"'  c #565656",
"]  c gray34",
"[  c #585858",
"{  c gray35",
"}  c #5A5A5A",
"|  c #5B5B5B",
" . c gray36",
".. c #5D5D5D",
"X. c gray37",
"o. c #5F5F5F",
"O. c #606060",
"+. c gray38",
"@. c #626262",
"#. c gray39",
"$. c #646464",
"%. c #656565",
"&. c gray40",
"*. c #676767",
"=. c #686868",
"-. c DimGray",
";. c #6A6A6A",
":. c gray42",
">. c #6C6C6C",
",. c #6D6D6D",
"<. c gray43",
"1. c #6F6F6F",
"2. c gray44",
"3. c #717171",
"4. c #727272",
"5. c gray45",
"6. c #747474",
"7. c gray46",
"8. c #767676",
"9. c #777777",
"0. c gray47",
"q. c #797979",
"w. c gray48",
"e. c #7B7B7B",
"r. c #7C7C7C",
"t. c gray49",
"y. c #7E7E7E",
"u. c gray50",
"i. c #808080",
"p. c #818181",
"a. c gray51",
"s. c #838383",
"d. c #848484",
"f. c gray52",
"g. c #868686",
"h. c gray53",
"j. c #888888",
"k. c #898989",
"l. c gray54",
"z. c #8B8B8B",
"x. c gray55",
"c. c #8D8D8D",
"v. c #8E8E8E",
"b. c gray56",
"n. c #909090",
"m. c gray57",
"M. c #929292",
"N. c #939393",
"B. c gray58",
"V. c #959595",
"C. c gray59",
"Z. c #979797",
"A. c #989898",
"S. c gray60",
"D. c #9A9A9A",
"F. c #9B9B9B",
"G. c gray61",
"H. c #9D9D9D",
"J. c gray62",
"K. c #9F9F9F",
"L. c #A0A0A0",
"P. c gray63",
"I. c #A2A2A2",
"U. c gray64",
"Y. c #A4A4A4",
"T. c #A5A5A5",
"R. c gray65",
"E. c #A7A7A7",
"W. c gray66",
"Q. c #A9A9A9",
"!. c #AAAAAA",
"~. c gray67",
"^. c #ACACAC",
"/. c gray68",
"(. c #AEAEAE",
"). c #AFAFAF",
"_. c gray69",
"`. c #B1B1B1",
"'. c #B2B2B2",
"]. c gray70",
"[. c #B4B4B4",
"{. c gray71",
"}. c #B6B6B6",
"|. c #B7B7B7",
" X c gray72",
".X c #B9B9B9",
"XX c gray73",
"oX c #BBBBBB",
"OX c #BCBCBC",
"+X c gray74",
"@X c gray",
"#X c gray75",
"$X c #C0C0C0",
"%X c #C1C1C1",
"&X c gray76",
"*X c #C3C3C3",
"=X c gray77",
"-X c #C5C5C5",
";X c #C6C6C6",
":X c gray78",
">X c #C8C8C8",
",X c gray79",
"<X c #CACACA",
"1X c #CBCBCB",
"2X c gray80",
"3X c #CDCDCD",
"4X c #CECECE",
"5X c gray81",
"6X c #D0D0D0",
"7X c gray82",
"8X c #D2D2D2",
"9X c LightGray",
"0X c gray83",
"qX c #D5D5D5",
"wX c gray84",
"eX c #D7D7D7",
"rX c #D8D8D8",
"tX c gray85",
"yX c #DADADA",
"uX c gray86",
"iX c gainsboro",
"pX c #DDDDDD",
"aX c gray87",
"sX c #DFDFDF",
"dX c gray88",
"fX c #E1E1E1",
"gX c #E2E2E2",
"hX c gray89",
"jX c #E4E4E4",
"kX c gray90",
"lX c #E6E6E6",
"zX c #E7E7E7",
"xX c gray91",
"cX c #E9E9E9",
"vX c #EAEAEA",
"bX c gray92",
"nX c #ECECEC",
"mX c gray93",
"MX c #EEEEEE",
"NX c #EFEFEF",
"BX c gray94",
"VX c #F1F1F1",
"CX c gray95",
"ZX c #F3F3F3",
"AX c #F4F4F4",
"SX c gray96",
"DX c #F6F6F6",
"FX c gray97",
"GX c #F8F8F8",
"HX c #F9F9F9",
"JX c gray98",
"KX c #FBFBFB",
"LX c gray99",
"PX c #FDFDFD",
"IX c #FEFEFE",
"UX c white",
/* pixels */
"a i s f j l c b M B Z S F J L I T E Q ~ / ) ` ] [ | { E L ~ O.%.%.&.=.-.;.:.>.,.<.<.1.2.2.2.3.3.3.3.3.3.3.2.2.2.1.<.<.,.>.:.;.>.",
"d p d h l x b m B C S F H L I Y R W ~ / ) ` ] [ | ) i % + & j ..=.=.;.:.>.,.<.1.1.2.3.3.4.4.4.5.5.5.5.5.4.4.4.3.3.2.1.<.<.,.:.<.",
"g s g k z v m N C A D H K I Y R W ! / ) ` ] { | | j           p O.:.>.,.<.1.2.3.3.4.5.5.6.6.6.7.7.7.7.6.6.6.5.5.4.4.3.2.1.<.,.1.",
"h f j z c n M V Z D G K P U R W ! ^ ) ` ] { | ..` :             g *.<.1.2.3.4.5.5.6.7.7.8.8.8.9.9.9.8.8.8.8.7.7.6.5.5.4.3.2.1.2.",
"k h l c b M B Z S G J P U T W ! ^ ( ` ] { | ..o.{ <             X x ,.3.4.5.6.7.7.8.9.9.0.0.0.0.0.0.0.0.0.9.9.8.8.7.6.5.4.3.2.4.",
"z k x v m B C S F J L U T E ! ^ ( _ ] { | ..o.+.+.y               # ` 6.6.7.8.9.0.0.q.q.w.w.w.w.w.w.w.w.w.q.q.0.9.9.8.7.6.5.4.5.",
"c z v n N V A F H L I T E Q ^ ( _ ' { | ..o.+.#.&.F .               v 7.8.9.0.q.w.w.e.e.r.r.r.r.r.r.r.r.e.e.w.w.q.0.9.9.7.6.5.7.",
"v x b M V Z D H K I Y R Q ~ ( _ ' [ | ..o.+.#.%.*.o.7               p 7.0.q.w.e.r.r.t.t.y.y.y.y.y.y.y.y.t.t.r.r.e.w.q.0.9.8.7.8.",
"n v m B Z S G J P U R W ~ / _ ' [ } ..o.+.#.%.*.-.:.( 5 X           z q.w.e.r.t.t.y.u.u.i.i.i.i.i.i.i.u.u.y.y.t.r.r.e.w.q.9.8.0.",
"M n N C A F J L U T W ! / ) ' [ }  .o.+.#.%.*.-.:.,.1.&.j           Z r.r.t.y.u.i.i.p.p.p.a.a.a.a.a.p.p.p.i.i.u.y.t.r.e.w.q.9.q.",
"B M V A D H L I T E ! ^ ) ` ] }  .X.+.#.%.*.-.:.,.2.4.8.E .         U u.u.u.i.p.a.a.s.s.s.d.d.d.d.d.s.s.a.a.p.p.i.u.y.t.r.w.q.w.",
"V B Z S G K P Y E Q ^ ( ` ] {  .X.O.@.%.*.-.:.,.*.^ R G 7           0 B >.a.a.s.d.d.f.f.f.g.g.g.g.f.f.f.d.d.s.a.p.i.u.y.t.r.w.r.",
"Z V S F J P U R W ~ ( _ ] { | X.O.@.$.*.-.:.,.,.z X .                   h u.d.f.g.g.h.h.h.h.j.j.h.h.h.g.g.f.f.d.s.a.p.i.u.t.r.t.",
"S Z D H L I T W ! / ) ' [ | ..O.@.$.&.-.:.,.2.} %                       - 2.h.h.j.j.k.k.k.k.k.k.k.k.k.j.j.h.g.f.f.d.a.p.i.u.t.y.",
"F S G K I Y E ! ^ ) ` [ } ..o.@.$.&.=.:.,.1.4.V                         X ] l.k.l.l.z.z.z.z.z.z.z.z.l.l.k.k.j.h.g.f.d.s.p.i.y.i.",
"G F J P U R Q ~ ( ` ] }  .o.+.#.&.=.;.,.1.3.1.e                           Z z.z.x.x.c.c.c.c.c.c.c.c.x.x.z.l.l.k.j.h.f.d.s.p.i.p.",
"J H L I T W ~ / _ ] {  .X.+.#.%.=.;.>.1.3.6.&.:                           s j.c.v.v.v.b.b.b.b.b.b.v.v.c.c.x.z.l.k.j.h.g.d.s.p.a.",
"L J P Y E ! ^ ) ' [ | X.O.#.%.*.;.>.<.3.5.9.E X                     e &   1 r.n.n.n.n.m.m.m.m.m.m.n.n.b.v.v.c.x.z.l.j.h.g.d.a.s.",
"I L U R Q ^ ( ` [ } ..o.@.$.*.-.>.<.2.4.7.4.u                     1 <.d   o #.N.M.M.M.N.N.N.N.N.M.M.m.m.n.b.v.c.x.z.l.j.h.f.d.f.",
"U I T W ~ / _ ] {  .o.+.$.&.-.:.<.2.4.7.0.[ @                   . W m.' .   H B.B.B.B.V.V.V.V.B.B.B.N.N.M.m.n.b.v.x.z.l.j.h.f.g.",
"T Y E ! ^ ) ' { | X.+.#.&.=.:.,.2.4.6.9.0.x     .               5 u.N.a.7   t z.C.C.C.Z.Z.Z.Z.C.C.V.V.B.N.N.M.n.b.v.c.z.l.j.g.h.",
"E T Q ~ ( ` [ } ..O.@.%.=.;.,.1.3.6.8.w.*.:   5 q               T M.N.B.P   % 5.D.A.A.A.S.A.A.A.A.Z.Z.C.V.B.N.M.m.b.v.x.z.k.h.j.",
"W E ! / _ ] }  .o.@.$.*.-.>.1.3.5.8.q.;.f   o _ D             $ 4.V.V.A.=.o   H A.D.D.D.D.D.D.D.S.S.A.Z.Z.C.V.N.M.m.b.v.x.l.j.k.",
"! Q ^ ) ' { | X.+.#.&.-.:.<.2.5.7.q.+.8     a t.M             $ 3.A.Z.S.g.5   < s.H.G.G.G.G.G.G.F.F.D.S.A.Z.C.V.B.M.m.b.c.x.l.l.",
"^ ~ ( ` ] } ..O.#.%.=.:.,.2.4.7.0.O.7     t ,.i.w               V M.S.D.F.R     ' K.J.J.J.J.J.H.H.G.G.F.D.S.A.C.V.N.M.n.b.c.z.z.",
"/ ^ _ ' {  .o.@.$.*.;.>.1.4.7.3.P -   - D 0.l.#.#               @ <.H.G.J.j.7   a C.P.L.L.L.L.K.K.J.H.G.F.D.S.A.C.V.N.M.n.v.x.x.",
") ( ` [ | X.+.#.&.-.>.<.3.7.>.v . * B =.d.j.k.Z                   A F.J.K.P.@.+ $ q.Y.I.I.I.P.P.L.L.K.J.H.G.D.S.A.C.B.N.m.b.c.c.",
"` _ ] } ..O.@.%.=.:.,.2.2.R 8   2 +.p.g.h.k.s.r                   8 n.P.P.I.K.I   U Y.Y.Y.Y.U.U.I.P.L.K.J.H.G.F.S.Z.C.B.M.n.v.v.",
"' ` {  .X.+.$.*.;.>.1.5.Y @   q @.s.d.g.j.x.w.,                   - d.Y.U.Y.R.B.d 3 v.E.R.T.T.Y.Y.U.I.P.L.K.H.G.D.S.Z.V.N.m.b.b.",
"[ ] } ..O.#.&.-.>.<.4.:.0 @ y 1.a.s.g.j.l.v.7.=                   O 4.R.T.R.R.Q.i.: o.!.E.E.E.R.T.T.Y.U.P.L.K.H.G.D.A.C.B.M.n.n.",
"} {  .o.@.%.=.:.,.2.5.2.H L ;.p.s.f.j.l.x.m.:.@                     X.W.E.W.W.!.J.r h I.!.Q.W.W.E.R.T.Y.U.P.L.K.H.F.S.Z.V.N.m.m.",
"| } X.+.$.*.-.>.1.4.7.0.q.t.i.a.f.h.l.x.v.N.o..                     R Q.Q.!.!./.z., = u./.~.!.Q.Q.W.E.R.Y.U.P.L.J.G.D.A.C.B.M.M.",
".. .o.@.%.=.:.<.3.6.8.q.r.u.p.d.g.k.z.v.n.V.]           .           F Q.~.^.^.).y.^ M ' ).^.^.~.!.Q.W.E.R.Y.U.P.K.H.F.D.Z.V.N.N.",
"X.X.+.$.*.;.,.2.5.7.0.e.y.i.s.g.j.z.c.n.M.Z./         O 0 .         H ~./.(.(._.n.C.| R ).(.(./.^.~.!.W.E.R.Y.I.L.K.H.D.A.C.B.B.",
"O.o.#.&.-.>.1.3.6.9.w.t.i.a.f.j.l.c.b.M.B.S.[         ; I o         R ).)._._.`.`.[.;.6.]._.).(./.^.~.!.W.E.T.U.I.L.J.F.S.Z.V.B.",
"@.+.$.*.;.,.2.5.8.q.r.u.p.d.h.k.x.b.m.B.C.F.-.o       8 =.#         ( '.`.'.'.].].[.R.!.].'.`._.).(./.~.!.W.R.T.U.P.K.G.D.A.V.V.",
"#.#.&.-.>.1.4.7.0.e.y.i.s.g.k.z.v.m.N.C.A.G.i.;       g s.:         | [.].[.[.{.{.{.{.{.[.].].'.`.).(./.~.Q.W.R.Y.I.L.H.F.S.C.C.",
"%.$.=.:.<.3.6.9.w.r.u.a.f.j.l.c.n.M.V.Z.D.H.A.k       F S.0         ;.|.{.}.}.|.|.|.}.}.}.{.[.].'.`.).(.^.~.Q.E.T.U.P.J.G.D.Z.Z.",
"&.&.-.>.1.4.7.0.e.y.p.d.h.k.x.b.M.B.Z.S.G.J.U.@.X     ! W.z       O y..X|. X X X.X.X X X|.|.}.{.[.'.`.).(.^.!.W.R.Y.P.K.H.D.A.Z.",
"=.=.:.<.3.6.9.w.t.i.s.g.k.z.v.m.B.C.S.F.J.L.T.d.*     .._.H       = m.oX.XXXXXXXoXXXXXXX.X X|.}.{.[.'.`.)./.~.Q.E.T.I.L.J.F.A.A.",
"-.-.,.2.5.8.q.r.u.a.f.h.l.c.n.N.V.A.F.H.L.I.R.l.-   + r.{.Q       4 P.OXoXOXOXOXOXOXOXoXoXXX.X X}.{.].'._.(.^.!.W.T.U.P.J.G.S.S.",
":.:.<.3.6.9.w.t.i.s.g.k.x.b.M.B.Z.D.G.K.I.Y.W.x.-   * v.|.[       y /.+X+X@X@X@X@X@X@X+XOXoXXX.X X}.{.].`.)./.~.Q.R.Y.P.K.G.D.S.",
",.>.2.5.8.q.r.u.a.f.j.z.v.m.N.C.S.G.J.P.U.R.!.k.=   o 0.oX,.      v }.#X#X$X$X$X$X$X#X#X@X+XOXoX.X X}.[.'._.(.^.Q.E.T.I.L.H.D.D.",
"<.<.3.6.9.e.t.p.d.h.l.c.b.M.V.A.F.H.L.U.T.W./.a.$     [ oXn.=     L @X%X%X&X&X&X&X&X%X$X$X#X+XOXoX.X|.{.].`.)./.!.W.T.U.L.H.F.D.",
"2.1.5.8.q.r.u.a.f.j.z.v.m.B.Z.D.H.K.I.T.E.!.).w.O     / oX^.i     Q &X*X*X=X=X=X=X*X*X&X%X$X#X+XOXXX X}.[.'._./.~.Q.R.U.P.J.F.D.",
"3.3.6.9.e.y.p.d.h.l.c.n.N.C.S.G.J.P.Y.R.Q.^.`.p.#   . <.@XoXK     G %X-X-X;X;X;X;X-X-X=X*X&X$X#X+XoX.X|.{.].`.(.^.Q.E.Y.P.J.G.F.",
"4.4.8.q.r.u.a.f.j.z.b.M.V.Z.D.H.L.U.R.W.~.(.'.B.>   r R.#X%X}     z OX:X:X:X>X>X:X:X;X-X=X*X&X$X@XOXXX X}.[.`.).^.!.E.Y.I.K.G.F.",
"6.6.9.w.y.p.d.h.l.c.n.N.C.S.G.K.I.T.E.!./.).].Y.w   ..@X#X=Xw..   9 _.<X,X,X<X,X,X,X>X:X;X=X*X%X#X@XoX.X|.{.'._./.!.W.T.I.K.G.G.",
"7.7.q.r.u.a.g.k.x.b.M.V.A.F.J.P.Y.R.Q.^.).`.[./.f $ M.&X%X;XF.=   # n.4X1X1X1X1X1X<X,X>X:X;X=X&X%X#XOXXX X{.]._.(.~.W.T.U.L.H.G.",
"9.9.w.t.p.d.h.l.c.n.N.C.D.H.K.I.T.W.~.(.`.].|.Q.r , Y.*X*X:XY.>     &.4X3X3X3X3X3X2X1X<X,X:X-X=X&X$X+XoX.X}.[.`.(.^.Q.R.U.L.H.G.",
"0.0.r.u.a.f.j.x.b.M.V.A.F.J.P.Y.E.!./._.'.{.XXD., $ b.;X-X<XD.*     T 3X5X5X5X5X4X4X3X1X<X>X:X-X*X$X@XOX.X|.[.`.).^.Q.R.U.L.H.G.",
"w.w.t.i.d.h.l.c.n.B.Z.D.H.L.U.R.Q.^.).`.[.|.XX&.  X 7.>X:X2XA.%     L 3X7X7X7X7X6X5X4X3X1X<X>X;X=X%X#X+XXX|.{.'.).^.Q.E.Y.P.H.G.",
"e.e.u.a.f.j.x.b.M.V.A.F.J.P.T.W.!./._.].}.XXY.B b >.}.>X,X4XR.:     #.0X9X9X9X8X8X7X6X4X3X1X,X:X-X&X$X+XoX X{.'._./.!.E.Y.P.H.G.",
"r.t.i.s.g.l.c.n.N.C.D.H.L.U.R.Q.^.).'.{. XoX X).OX-X>X,X1X5XOXu   O v.rXqXqXqX0X9X8X7X5X4X2X<X>X-X*X%X@XoX X}.]._./.!.E.Y.P.J.H.",
"y.y.p.f.j.z.v.M.V.A.F.J.P.T.W.~.(.`.[.|.XXOX#X*X-X:X,X1X3X6X4XY   > /.tXeXeXwXwXqX0X8X7X5X3X1X,X;X=X%X#XOX.X}.]._./.!.E.Y.P.J.H.",
"u.u.s.g.k.c.n.N.C.D.H.L.U.R.Q.^.).].{. XoX@X%X*X;X,X1X3X5X7XwX,.  u *XyXtXrXrXeXwXqX0X8X6X4X2X,X:X=X&X#XOX.X}.]._./.!.E.Y.P.J.H.",
"i.p.d.h.z.v.m.V.A.F.J.P.T.W.~.(.`.[.|.XX+X$X*X-X>X1X3X5X7X9XtXi.  C 8XuXyXyXyXtXrXeXqX9X7X5X3X<X>X-X&X#X+XXX|.[.`.(.!.E.Y.P.J.H.",
"a.a.f.k.x.b.N.C.S.G.L.U.R.Q.^.).].}..XOX#X&X=X:X<X2X5X7X9XqXuXk.  ~ yXiXiXiXuXuXtXrXwX0X8X6X3X1X>X-X*X$X+XXX|.[.`.(.!.E.Y.P.J.G.",
"s.s.h.l.c.m.B.Z.F.J.P.Y.W.~.(.`.[.|.XX+X$X*X;X,X2X4X7X9XqXeXpXv.   .aXaXaXaXpXiXuXtXeXqX9X7X4X1X,X;X*X$X+XXX|.[.`.(.!.E.Y.P.H.G.",
"d.d.j.z.b.M.V.S.G.K.U.R.Q.^.).].}..XOX#X&X-X>X1X3X6X9XqXeXtXsXh.  ] sXdXdXdXsXaXiXyXrXwX0X7X5X2X,X;X*X$X+XXX|.[.`.(.!.E.Y.P.H.G.",
"d.f.j.x.b.M.C.S.G.L.U.R.!./._.].}.XX+X$X*X;X,X2X5X7X0XwXtXiXyX%.  J iXgXgXfXfXsXaXiXyXrXqX9X6X3X<X:X-X%X@XoX X{.'.).~.W.T.P.J.H.",
"d.f.j.z.b.M.C.S.G.L.U.R.Q./._.].|.XX+X$X*X;X,X2X5X8XqXeXuXW.I =   L aXjXjXhXhXfXdXaXiXyXeXqX8X5X2X,X;X*X$X+XXX}.]._./.Q.R.U.K.J.",
"d.d.j.z.v.M.V.S.G.K.U.R.Q./._.].}.XX+X$X*X;X,X2X5X8XqXrXiX].^ y   [ kXlXlXkXkXhXgXdXaXiXtXwX0X7X4X1X>X-X%X@XoX X{.`.(.~.E.Y.P.L.",
"s.d.h.z.v.m.V.A.G.K.I.R.Q.^._.].}.XX+X$X*X;X<X3X6X9XqXrXuXsXsXY.x p.xXzXxXzXzXkXjXgXdXpXuXrXqX8X5X2X,X;X*X$X+X.X}.].).^.Q.T.I.P."
};
