/* XPM */
static char *result[] = {
/* columns rows colors chars-per-pixel */
"64 64 256 2 ",
"   c black",
".  c #010101",
"X  c #020202",
"o  c gray1",
"O  c #040404",
"+  c gray2",
"@  c #060606",
"#  c #070707",
"$  c gray3",
"%  c #090909",
"&  c gray4",
"*  c #0B0B0B",
"=  c #0C0C0C",
"-  c gray5",
";  c #0E0E0E",
":  c gray6",
">  c #101010",
",  c #111111",
"<  c gray7",
"1  c #131313",
"2  c gray8",
"3  c #151515",
"4  c #161616",
"5  c gray9",
"6  c #181818",
"7  c #191919",
"8  c gray10",
"9  c #1B1B1B",
"0  c gray11",
"q  c #1D1D1D",
"w  c #1E1E1E",
"e  c gray12",
"r  c #202020",
"t  c gray13",
"y  c #222222",
"u  c #232323",
"i  c gray14",
"p  c #252525",
"a  c gray15",
"s  c #272727",
"d  c #282828",
"f  c gray16",
"g  c #2A2A2A",
"h  c gray17",
"j  c #2C2C2C",
"k  c #2D2D2D",
"l  c gray18",
"z  c #2F2F2F",
"x  c gray19",
"c  c #313131",
"v  c #323232",
"b  c gray20",
"n  c #343434",
"m  c #353535",
"M  c gray21",
"N  c #373737",
"B  c gray22",
"V  c #393939",
"C  c #3A3A3A",
"Z  c gray23",
"A  c #3C3C3C",
"S  c gray24",
"D  c #3E3E3E",
"F  c #3F3F3F",
"G  c gray25",
"H  c #414141",
"J  c gray26",
"K  c #434343",
"L  c #444444",
"P  c gray27",
"I  c #464646",
"U  c gray28",
"Y  c #484848",
"T  c #494949",
"R  c gray29",
"E  c #4B4B4B",
"W  c #4C4C4C",
"Q  c gray30",
"!  c #4E4E4E",
"~  c gray31",
"^  c #505050",
"/  c #515151",
"(  c gray32",
")  c #535353",
"_  c gray33",
"`  c #555555",
"'  c #565656",
"]  c gray34",
"[  c #585858",
"{  c gray35",
"}  c #5A5A5A",
"|  c #5B5B5B",
" . c gray36",
".. c #5D5D5D",
"X. c gray37",
"o. c #5F5F5F",
"O. c #606060",
"+. c gray38",
"@. c #626262",
"#. c gray39",
"$. c #646464",
"%. c #656565",
"&. c gray40",
"*. c #676767",
"=. c #686868",
"-. c DimGray",
";. c #6A6A6A",
":. c gray42",
">. c #6C6C6C",
",. c #6D6D6D",
"<. c gray43",
"1. c #6F6F6F",
"2. c gray44",
"3. c #717171",
"4. c #727272",
"5. c gray45",
"6. c #747474",
"7. c gray46",
"8. c #767676",
"9. c #777777",
"0. c gray47",
"q. c #797979",
"w. c gray48",
"e. c #7B7B7B",
"r. c #7C7C7C",
"t. c gray49",
"y. c #7E7E7E",
"u. c gray50",
"i. c #808080",
"p. c #818181",
"a. c gray51",
"s. c #838383",
"d. c #848484",
"f. c gray52",
"g. c #868686",
"h. c gray53",
"j. c #888888",
"k. c #898989",
"l. c gray54",
"z. c #8B8B8B",
"x. c gray55",
"c. c #8D8D8D",
"v. c #8E8E8E",
"b. c gray56",
"n. c #909090",
"m. c gray57",
"M. c #929292",
"N. c #939393",
"B. c gray58",
"V. c #959595",
"C. c gray59",
"Z. c #979797",
"A. c #989898",
"S. c gray60",
"D. c #9A9A9A",
"F. c #9B9B9B",
"G. c gray61",
"H. c #9D9D9D",
"J. c gray62",
"K. c #9F9F9F",
"L. c #A0A0A0",
"P. c gray63",
"I. c #A2A2A2",
"U. c gray64",
"Y. c #A4A4A4",
"T. c #A5A5A5",
"R. c gray65",
"E. c #A7A7A7",
"W. c gray66",
"Q. c #A9A9A9",
"!. c #AAAAAA",
"~. c gray67",
"^. c #ACACAC",
"/. c gray68",
"(. c #AEAEAE",
"). c #AFAFAF",
"_. c gray69",
"`. c #B1B1B1",
"'. c #B2B2B2",
"]. c gray70",
"[. c #B4B4B4",
"{. c gray71",
"}. c #B6B6B6",
"|. c #B7B7B7",
" X c gray72",
".X c #B9B9B9",
"XX c gray73",
"oX c #BBBBBB",
"OX c #BCBCBC",
"+X c gray74",
"@X c gray",
"#X c gray75",
"$X c #C0C0C0",
"%X c #C1C1C1",
"&X c gray76",
"*X c #C3C3C3",
"=X c gray77",
"-X c #C5C5C5",
";X c #C6C6C6",
":X c gray78",
">X c #C8C8C8",
",X c gray79",
"<X c #CACACA",
"1X c #CBCBCB",
"2X c gray80",
"3X c #CDCDCD",
"4X c #CECECE",
"5X c gray81",
"6X c #D0D0D0",
"7X c gray82",
"8X c #D2D2D2",
"9X c LightGray",
"0X c gray83",
"qX c #D5D5D5",
"wX c gray84",
"eX c #D7D7D7",
"rX c #D8D8D8",
"tX c gray85",
"yX c #DADADA",
"uX c gray86",
"iX c gainsboro",
"pX c #DDDDDD",
"aX c gray87",
"sX c #DFDFDF",
"dX c gray88",
"fX c #E1E1E1",
"gX c #E2E2E2",
"hX c gray89",
"jX c #E4E4E4",
"kX c gray90",
"lX c #E6E6E6",
"zX c #E7E7E7",
"xX c gray91",
"cX c #E9E9E9",
"vX c #EAEAEA",
"bX c gray92",
"nX c #ECECEC",
"mX c gray93",
"MX c #EEEEEE",
"NX c #EFEFEF",
"BX c gray94",
"VX c #F1F1F1",
"CX c gray95",
"ZX c #F3F3F3",
"AX c #F4F4F4",
"SX c gray96",
"DX c #F6F6F6",
"FX c gray97",
"GX c #F8F8F8",
"HX c #F9F9F9",
"JX c gray98",
"KX c #FBFBFB",
"LX c gray99",
"PX c #FDFDFD",
"IX c #FEFEFE",
"UX c white",
/* pixels */
"p y p d g k z v m N V A D G K P U T E Q ~ / ) ` ] { }  .X.O.+.X.o.%.*.*.=.-.;.:.>.,.,.<.<.1.1.1.2.2.2.2.1.1.1.<.<.,.>.>.:.;.-.:.",
"a i s g j z c n M V Z S G J L U T E Q ~ / ) ` ] { |  .X.O.! h 8 7 c ] ;.:.:.>.,.<.1.1.2.2.3.3.3.3.3.3.3.3.3.2.2.1.1.<.,.>.:.;.>.",
"d a f h l c b M B Z S F J L I T E Q ~ / ) ` ] { | ..X.+.U =         < R $.,.<.1.2.3.3.4.4.5.5.5.5.5.5.5.5.4.4.4.3.2.2.1.<.,.>.<.",
"g d h k x v m B C A F H L I Y E Q ~ / ) ` ] { | ..o.+.+.p             + 3 E 2.3.4.5.5.6.6.7.7.7.7.7.7.7.7.6.6.5.5.4.3.3.2.1.,.1.",
"j g j z v n N V A D H K I Y R Q ~ / ) ` ] { | ..o.+.#.X.5                 & ~ 6.6.7.7.8.8.9.9.9.9.9.9.9.8.8.8.7.7.6.5.4.3.2.1.3.",
"k h l c n M V Z D G K P Y R W ! / ) ` ] { | ..o.+.#.%.{ -                   q <.8.9.9.0.0.0.q.q.q.q.q.q.0.0.9.9.8.7.7.6.5.4.2.4.",
"z k x b m B Z S G J P U R W ! ^ ) ` ] { | ..o.+.#.%.*...:                   + { w.q.q.w.w.w.e.e.e.e.e.w.w.w.q.q.0.9.8.7.6.5.4.6.",
"c z v m N C S F J L U T E ! ^ ( ` ] { | ..o.+.#.%.*.-.*.t           + >     o ' r.e.e.r.r.r.t.t.t.t.r.r.r.e.e.w.w.q.0.9.8.7.5.7.",
"b c n N V A D H L I Y E Q ^ ( _ ] { | ..o.+.#.%.*.-.:.<.L .         d Q o   : ;.t.t.t.y.y.y.y.u.u.y.y.y.y.t.t.r.e.w.q.0.9.8.7.9.",
"m b M B Z D G K P Y R Q ~ ( _ ' { | ..o.+.#.%.*.-.:.,.1.=.I Z =     7 @.2   p w.y.u.u.i.i.i.i.i.i.i.i.i.u.u.y.y.t.r.e.w.q.0.8.0.",
"M m N C S F J P U R W ~ / _ ' [ | ..o.+.#.%.*.-.:.,.1.2.4.7.8.h     O ' P . S p.i.p.p.a.a.a.a.a.a.a.a.a.p.p.i.u.y.y.t.r.w.q.0.q.",
"B M V A F H L U T W ! / ) ' [ } ..o.+.#.%.*.-.:.,.1.3.4.6.8.-.q       2 N m | s.a.s.s.d.d.d.d.d.d.d.d.s.s.a.a.p.i.u.y.t.r.e.q.e.",
"C B Z D H K I Y E ! ^ ) ` ] }  .X.+.#.%.*.-.:.,.1.3.5.7.9.Y 3 .         . Q s.s.d.f.f.g.g.g.g.g.g.g.f.f.f.d.s.s.a.p.i.u.t.r.e.r.",
"A C S G J P Y R Q ~ ( ` ] {  .X.O.#.%.*.-.:.,.1.3.5.8.4.W &               s i.g.g.h.h.h.j.j.j.j.j.j.h.h.g.g.f.d.s.a.p.i.u.y.r.t.",
"S A F H L U R W ~ / _ ' { | X.O.@.%.*.-.:.,.1.3.6.5.) u +                 - 3.k.j.k.k.k.l.l.l.l.l.k.k.k.j.h.h.g.f.d.s.a.i.u.t.u.",
"F S H K I T E ! / ) ' [ | ..O.@.$.*.-.:.,.1.3.6.5.D #                     o O.z.l.z.z.z.x.x.x.x.x.z.z.l.l.k.j.h.g.f.d.s.a.i.u.i.",
"H F J P Y E Q ^ ) ` [ } ..o.@.$.&.-.:.,.1.3.5.8.,.2                         Q c.x.c.c.c.v.v.v.v.c.c.c.x.z.z.l.k.j.h.g.d.s.a.i.p.",
"K H L U R W ~ ( _ ] }  .o.+.#.&.=.:.,.1.3.5.7.0.4.y                   @ .   z l.v.b.b.b.b.n.n.b.b.b.v.v.c.x.x.z.l.j.h.g.d.s.p.a.",
"L K I T E ! / _ ' { | X.O.#.%.=.;.>.1.3.5.7.9.q.r.:.t               * Q :   3 u.m.m.m.m.m.m.m.m.m.m.n.n.b.v.c.x.z.l.k.h.g.d.s.d.",
"I P Y R Q ^ ) ` [ | ..O.@.%.*.;.>.<.3.5.7.9.q.e.t.i.c               V h.d   $ 3.B.N.N.N.N.N.N.N.N.M.M.m.n.n.b.v.c.z.l.k.h.g.d.f.",
"Y I T W ~ ( ` ] } ..o.@.$.*.-.>.<.2.5.7.9.q.e.t.i.y.a             > 6.N.R   . o.C.B.V.V.V.V.V.V.V.B.B.N.M.m.n.b.v.c.z.l.k.h.f.g.",
"T Y E ! / _ ' {  .X.+.$.&.-.:.<.2.4.7.9.q.e.t.u.a.y.y             L m.B.,.@   T A.C.Z.Z.Z.Z.Z.Z.C.C.V.V.B.N.M.m.n.v.c.z.l.j.g.h.",
"E R Q ^ ) ` [ | X.O.#.%.=.:.,.2.4.6.9.q.e.t.u.p.d.a.d           * 7.V.V.f.4   i v.S.S.S.S.S.S.A.A.A.Z.C.V.B.N.M.m.n.v.c.z.k.j.j.",
"Q W ~ ( _ ] } ..o.@.%.*.;.>.1.3.6.8.q.e.t.u.p.s.g.a.u           , i.Z.C.N.z   + :.G.F.F.F.F.F.D.D.S.S.A.Z.C.V.B.M.m.n.v.x.z.k.k.",
"! Q ^ ) ' {  .X.+.$.*.-.>.<.3.5.8.0.e.t.u.p.s.f.j.p.w           o } A.A.F.`     T J.H.H.H.H.G.G.G.F.D.D.S.A.C.V.B.M.m.b.v.x.l.l.",
"^ ~ ( ` [ | X.O.#.&.=.:.<.2.5.7.0.w.r.u.p.s.f.h.l.u.6             2 t.G.H.t.;   m G.K.K.K.J.J.J.H.H.G.F.D.S.A.Z.V.B.M.m.b.c.z.x.",
"( / _ ] }  .o.@.%.=.;.,.2.4.7.9.w.r.y.p.s.f.h.k.c.2.*               J F.J.F.A   u Z.P.L.L.L.L.L.K.J.J.H.G.F.S.A.Z.V.B.M.n.v.x.c.",
") ( ' [ | X.+.$.*.-.>.1.3.6.9.q.r.y.i.s.f.h.k.z.n.#.o               > p.P.I.r.= 1 c.Y.I.I.I.I.P.P.L.K.J.H.G.F.S.A.C.V.N.m.b.c.v.",
"` _ ] } ..O.#.&.=.:.<.3.5.8.0.e.t.i.a.f.h.k.z.v.c.Y .                 / U.I.P.F # u.R.Y.Y.Y.Y.U.I.I.P.L.K.J.G.F.S.A.C.B.M.n.v.b.",
"] ' {  .o.@.%.*.;.,.2.4.7.0.w.t.u.a.d.h.k.z.c.m.:.%                   h G.T.W.$.X <.Q.R.R.R.T.T.Y.U.I.P.L.K.J.G.F.S.Z.V.N.m.b.n.",
"[ [ | X.+.#.&.-.>.1.3.6.9.w.r.u.p.d.g.k.z.c.b.N.Y                     , c.W.J.b   { !.W.W.W.E.E.R.T.Y.U.I.L.K.J.G.D.A.C.V.M.n.n.",
"} {  .o.@.%.=.:.<.3.5.8.q.e.y.p.s.g.j.l.c.b.N.u.0                     = h.^.p.w X x U.!.!.Q.Q.W.E.E.R.Y.U.I.L.K.H.F.D.A.C.B.m.m.",
" .| X.+.$.*.;.,.1.4.7.0.e.t.i.s.f.j.l.x.b.m.n.V                       2 N.(.0. .3 0 G./.~.~.~.!.Q.W.E.R.T.U.I.L.J.H.F.S.Z.V.M.M.",
"....O.#.&.-.>.<.3.6.9.w.r.u.a.d.h.k.x.v.m.V.,.$                       J W./.I.j.0 H Q.(././.^.^.~.!.Q.E.R.T.U.P.L.J.G.D.A.V.N.N.",
"o.X.+.$.*.;.,.2.5.8.q.e.y.p.d.g.k.z.v.n.N.N.B           - 6         O 0._.(._.R.$.m.`.).).).(./.^.~.!.Q.E.R.Y.U.P.K.H.F.S.C.B.B.",
"O.O.#.&.-.>.1.4.7.0.w.t.i.s.f.j.z.c.n.M.C.q.;         + =.+.        1 B.`._.`.`.'.'.`.`.`._._.).(./.^.!.Q.E.R.Y.I.L.J.G.S.Z.V.V.",
"@.+.%.=.:.<.3.6.8.q.r.u.a.f.h.l.c.b.M.B.A.E           S Y.;.        d E.'.'.].].].].].].].'.`._.).(./.^.!.W.E.T.U.P.K.H.D.A.C.V.",
"$.#.&.-.>.1.4.7.0.e.y.p.d.g.k.x.v.m.B.C.C.v         s N.(.1.X       V _.[.[.{.{.{.{.{.{.[.[.].'.`._.(./.~.!.W.R.Y.I.L.J.F.S.C.C.",
"%.%.=.:.<.3.6.9.w.t.i.s.f.j.z.v.n.N.V.S.z.0       8 h.~.(.7.o       T {.}.}.|.|.|.|.|.|.}.{.{.[.'.`._.(./.~.Q.E.T.U.P.J.G.D.Z.Z.",
"*.&.;.,.2.5.8.q.r.u.p.d.h.l.c.b.M.V.Z.D.^ .     > 9.~.^._.r.+        ..X X X.X.X.X.X.X X X|.}.{.[.].`._.(.^.!.W.R.Y.I.K.H.D.A.A.",
"=.=.:.<.3.6.9.w.t.i.s.g.k.x.v.m.B.Z.D.N.u     # &.!.^.(.'.p.#       2.OXXXXXoXoXoXoXoXXX.X.X X|.{.[.'.`.)./.~.Q.E.T.I.L.J.F.A.A.",
";.;.,.2.5.8.q.r.u.a.f.j.z.c.n.N.C.A.H.0.&     L R.^.(._.[.j.%     @ f.@XOXOX+X+X+X+XOXOXoXXX.X X|.{.[.'._.(.^.!.W.R.U.P.J.G.S.S.",
":.:.<.4.7.0.e.y.p.d.h.k.x.b.M.V.A.F.D.S     + 0.(.(._.'.}.b.&     ; A.#X@X@X@X#X#X@X@X+X+XOXoXXX X|.{.].`.)./.~.Q.E.Y.I.K.G.D.S.",
",.,.2.5.8.q.r.u.a.f.j.z.v.m.B.Z.S.J.4.%     : v.)._.'.[. XA.>     7 E.$X$X$X$X%X%X$X$X#X@X+XOXoXXX X}.[.'._.(.^.!.E.T.I.L.H.D.D.",
"<.<.4.7.0.e.y.p.d.h.l.c.n.N.C.A.G.S.n       u L._.'.[.}..X!.i     s [.&X&X&X&X&X&X&X&X%X$X#X@XOXoX.X|.{.].`.)./.!.W.T.U.L.J.F.D.",
"2.2.5.8.q.t.i.s.g.k.x.b.M.B.Z.D.K.r.=     o @._.`.[.}. XXXoXQ     k  X=X=X=X=X=X=X=X*X&X&X$X#X@XOXXX.X|.[.'._.(.~.Q.R.Y.P.J.F.F.",
"3.3.7.0.e.y.p.d.h.l.c.n.N.C.S.G.J.K     X W E.'.].}. XXXOX@X)     r '.;X;X;X;X;X;X;X-X=X*X&X%X#X+XOXXX X{.].`.(.^.Q.E.Y.P.K.G.F.",
"5.5.8.q.t.i.s.g.k.x.b.M.V.A.F.L.w.;   o ! R.'.].{. XXXOX@X&X-.    - F.,X>X>X>X>X>X:X:X;X-X*X&X$X#X+XoX.X}.[.'.)./.!.E.T.I.K.G.F.",
"6.6.0.e.y.p.d.h.l.c.m.B.Z.D.H.A.b   O / R.`.'.{.|..XOX@X$X=XZ.=     %.<X<X<X<X<X<X,X>X:X;X-X*X&X$X@XOXXX|.{.'._./.~.W.T.I.K.G.G.",
"8.8.q.r.u.s.g.k.x.b.M.V.A.F.K.#.+ o ) W._.'.[.|..XoX@X$X&X-X}.s     f oX3X2X2X2X1X1X<X,X>X;X=X*X%X#X+XXX X}.]._.(.~.W.R.U.L.H.G.",
"9.9.e.y.p.d.h.z.v.m.B.Z.D.K.y.<   6 Z._.`.[.}..XoX+X$X&X=X;X=XH     , W.6X4X4X3X3X2X1X<X,X:X;X=X&X$X@XoX.X}.[.`.(.^.Q.R.U.L.H.G.",
"0.q.r.u.a.g.k.x.b.M.V.A.H.D.V     @ u.'.].{. XoX+X#X&X=X;X>X<X/     - Y.8X6X6X5X5X4X3X2X<X,X:X-X*X%X@XOXXX|.[.'.).^.Q.R.U.L.H.G.",
"w.w.t.p.d.h.l.c.m.B.Z.F.N.' + & 4 s h.[.{.|.XXOX#X%X=X;X>X<X4X*.    1 (.0X7X7X7X6X6X4X3X2X<X>X;X=X&X#X+XXX X{.'.).^.!.E.Y.P.H.G.",
"e.e.u.a.f.k.x.b.M.V.S.H.1.b ) a.A.U._.[.}..XOX@X%X*X;X>X<X2X7Xu..   n >X0X9X9X9X8X7X6X4X3X1X,X:X-X&X$X+XoX X{.]._./.!.E.Y.P.H.G.",
"t.t.i.d.h.l.c.m.B.Z.D.H.H.K.W.^.(._.'.{. XoX@X$X*X-X>X<X2X4X9XV.@   { qXqXqXqX0X0X9X7X6X4X2X<X>X;X*X%X@XoX.X}.]._./.!.E.Y.P.J.H.",
"y.y.a.f.j.x.b.M.V.A.F.K.I.T.W.~.(.`.[.|.XX+X#X&X-X:X,X2X4X6X0XQ.:   4.yXeXeXeXwXqX0X9X7X5X3X1X,X;X=X%X#XOX.X}.]._./.!.E.Y.P.J.H.",
"u.i.s.g.l.c.n.N.Z.D.H.L.U.R.!./._.].}..XOX#X%X=X:X,X1X4X6X8XqXoX9   g.iXtXtXtXrXeXqX0X8X6X4X2X<X:X-X&X#XOX.X|.[.`.(.!.E.Y.P.J.H.",
"p.p.d.j.z.v.M.V.A.F.K.I.T.W.~.(.`.{. XXX+X$X*X;X>X1X3X6X8X0XeX&Xt O D.aXuXuXyXtXrXeXqX9X7X5X3X<X>X-X&X$X+XXX|.[.`.(.!.E.Y.P.J.H.",
"a.a.g.k.x.n.N.C.D.H.L.U.R.!./._.].}..XOX#X&X-X>X<X3X5X8X0XwXtX=Xt % W.dXpXpXiXuXyXrXwX0X8X6X4X1X>X;X*X$X+XXX|.[.`.(.!.E.Y.P.J.G.",
"s.d.h.l.v.m.B.A.F.J.P.T.W.~.(.`.{. XoX@X%X=X:X,X2X5X7X0XwXrXpX*Xq # Y.gXsXaXpXiXuXtXrXqX9X7X4X2X,X;X*X$X+XXX|.[.`.(.!.E.Y.P.H.G.",
"d.f.j.x.b.M.C.S.G.K.U.R.Q.^._.].}..XOX#X&X-X>X1X4X6X9XeXuXiX2Xy.# X m.jXdXdXsXaXiXuXtXwX0X8X5X2X,X:X=X%X@XXX|.[.`.(.~.E.Y.P.H.G.",
"d.f.j.x.b.M.C.S.G.L.U.R.!./._.].|.XX+X$X*X;X,X2X5X7XqX+Xc.*.k +     4.kXgXgXfXdXaXiXyXrXwX9X6X4X1X>X-X&X#XOX X{.'.).^.W.T.I.J.H.",
"d.d.j.z.b.M.V.S.G.K.U.R.Q./._.].}.XX+X$X*X;X,X2X5X8XwX.X .h i 5 o   { jXjXjXhXgXdXaXiXyXrXqX8X5X3X<X:X*X$X+XXX|.[._./.!.R.U.L.K.",
"s.d.j.z.v.M.V.A.G.K.U.R.Q.^._.].}.XX+X$X*X;X,X2X5X8XqXtXeX2X,X|.@.y f.xXlXlXkXjXgXdXaXiXtXeX0X7X4X1X>X-X&X#XoX X{.'.(.~.W.Y.P.L."
};
