/* XPM */
static char *result[] = {
/* columns rows colors chars-per-pixel */
"64 64 256 2 ",
"   c black",
".  c #010101",
"X  c #020202",
"o  c gray1",
"O  c #040404",
"+  c gray2",
"@  c #060606",
"#  c #070707",
"$  c gray3",
"%  c #090909",
"&  c gray4",
"*  c #0B0B0B",
"=  c #0C0C0C",
"-  c gray5",
";  c #0E0E0E",
":  c gray6",
">  c #101010",
",  c #111111",
"<  c gray7",
"1  c #131313",
"2  c gray8",
"3  c #151515",
"4  c #161616",
"5  c gray9",
"6  c #181818",
"7  c #191919",
"8  c gray10",
"9  c #1B1B1B",
"0  c gray11",
"q  c #1D1D1D",
"w  c #1E1E1E",
"e  c gray12",
"r  c #202020",
"t  c gray13",
"y  c #222222",
"u  c #232323",
"i  c gray14",
"p  c #252525",
"a  c gray15",
"s  c #272727",
"d  c #282828",
"f  c gray16",
"g  c #2A2A2A",
"h  c gray17",
"j  c #2C2C2C",
"k  c #2D2D2D",
"l  c gray18",
"z  c #2F2F2F",
"x  c gray19",
"c  c #313131",
"v  c #323232",
"b  c gray20",
"n  c #343434",
"m  c #353535",
"M  c gray21",
"N  c #373737",
"B  c gray22",
"V  c #393939",
"C  c #3A3A3A",
"Z  c gray23",
"A  c #3C3C3C",
"S  c gray24",
"D  c #3E3E3E",
"F  c #3F3F3F",
"G  c gray25",
"H  c #414141",
"J  c gray26",
"K  c #434343",
"L  c #444444",
"P  c gray27",
"I  c #464646",
"U  c gray28",
"Y  c #484848",
"T  c #494949",
"R  c gray29",
"E  c #4B4B4B",
"W  c #4C4C4C",
"Q  c gray30",
"!  c #4E4E4E",
"~  c gray31",
"^  c #505050",
"/  c #515151",
"(  c gray32",
")  c #535353",
"_  c gray33",
"`  c #555555",
"'  c #565656",
"]  c gray34",
"[  c #585858",
"{  c gray35",
"}  c #5A5A5A",
"|  c #5B5B5B",
" . c gray36",
".. c #5D5D5D",
"X. c gray37",
"o. c #5F5F5F",
"O. c #606060",
"+. c gray38",
"@. c #626262",
"#. c gray39",
"$. c #646464",
"%. c #656565",
"&. c gray40",
"*. c #676767",
"=. c #686868",
"-. c DimGray",
";. c #6A6A6A",
":. c gray42",
">. c #6C6C6C",
",. c #6D6D6D",
"<. c gray43",
"1. c #6F6F6F",
"2. c gray44",
"3. c #717171",
"4. c #727272",
"5. c gray45",
"6. c #747474",
"7. c gray46",
"8. c #767676",
"9. c #777777",
"0. c gray47",
"q. c #797979",
"w. c gray48",
"e. c #7B7B7B",
"r. c #7C7C7C",
"t. c gray49",
"y. c #7E7E7E",
"u. c gray50",
"i. c #808080",
"p. c #818181",
"a. c gray51",
"s. c #838383",
"d. c #848484",
"f. c gray52",
"g. c #868686",
"h. c gray53",
"j. c #888888",
"k. c #898989",
"l. c gray54",
"z. c #8B8B8B",
"x. c gray55",
"c. c #8D8D8D",
"v. c #8E8E8E",
"b. c gray56",
"n. c #909090",
"m. c gray57",
"M. c #929292",
"N. c #939393",
"B. c gray58",
"V. c #959595",
"C. c gray59",
"Z. c #979797",
"A. c #989898",
"S. c gray60",
"D. c #9A9A9A",
"F. c #9B9B9B",
"G. c gray61",
"H. c #9D9D9D",
"J. c gray62",
"K. c #9F9F9F",
"L. c #A0A0A0",
"P. c gray63",
"I. c #A2A2A2",
"U. c gray64",
"Y. c #A4A4A4",
"T. c #A5A5A5",
"R. c gray65",
"E. c #A7A7A7",
"W. c gray66",
"Q. c #A9A9A9",
"!. c #AAAAAA",
"~. c gray67",
"^. c #ACACAC",
"/. c gray68",
"(. c #AEAEAE",
"). c #AFAFAF",
"_. c gray69",
"`. c #B1B1B1",
"'. c #B2B2B2",
"]. c gray70",
"[. c #B4B4B4",
"{. c gray71",
"}. c #B6B6B6",
"|. c #B7B7B7",
" X c gray72",
".X c #B9B9B9",
"XX c gray73",
"oX c #BBBBBB",
"OX c #BCBCBC",
"+X c gray74",
"@X c gray",
"#X c gray75",
"$X c #C0C0C0",
"%X c #C1C1C1",
"&X c gray76",
"*X c #C3C3C3",
"=X c gray77",
"-X c #C5C5C5",
";X c #C6C6C6",
":X c gray78",
">X c #C8C8C8",
",X c gray79",
"<X c #CACACA",
"1X c #CBCBCB",
"2X c gray80",
"3X c #CDCDCD",
"4X c #CECECE",
"5X c gray81",
"6X c #D0D0D0",
"7X c gray82",
"8X c #D2D2D2",
"9X c LightGray",
"0X c gray83",
"qX c #D5D5D5",
"wX c gray84",
"eX c #D7D7D7",
"rX c #D8D8D8",
"tX c gray85",
"yX c #DADADA",
"uX c gray86",
"iX c gainsboro",
"pX c #DDDDDD",
"aX c gray87",
"sX c #DFDFDF",
"dX c gray88",
"fX c #E1E1E1",
"gX c #E2E2E2",
"hX c gray89",
"jX c #E4E4E4",
"kX c gray90",
"lX c #E6E6E6",
"zX c #E7E7E7",
"xX c gray91",
"cX c #E9E9E9",
"vX c #EAEAEA",
"bX c gray92",
"nX c #ECECEC",
"mX c gray93",
"MX c #EEEEEE",
"NX c #EFEFEF",
"BX c gray94",
"VX c #F1F1F1",
"CX c gray95",
"ZX c #F3F3F3",
"AX c #F4F4F4",
"SX c gray96",
"DX c #F6F6F6",
"FX c gray97",
"GX c #F8F8F8",
"HX c #F9F9F9",
"JX c gray98",
"KX c #FBFBFB",
"LX c gray99",
"PX c #FDFDFD",
"IX c #FEFEFE",
"UX c white",
/* pixels */
"u r u a d h k x v m N V A D G J P U T E Q ~ / ) ` ' [ } | ..X.O.+.#.%.*.*.-.-.-.;.;.:.>.>.,.,.,.,.,.,.,.,.,.,.>.>.:.:.;.-.=.*.-.",
"i y p s g j z c n M V Z S G J L I T E Q ~ / ) ` ' [ }  ...o.O.@.#.$._ A c G O.>.,.,.,.,.<.<.1.1.1.1.1.1.1.1.<.<.,.,.>.:.;.;.=.:.",
"a i s f j l c b M B Z S F J L I Y E Q ~ / ) ` ] [ }  .X.o.+.@.$.+.b *     . 9 R { -.1.1.2.2.3.3.3.3.3.3.3.2.2.2.1.<.<.,.>.:.;.>.",
"d a d h l x b m B C S F H L I Y R Q ~ / ) ` ] { }  .X.O.+.#.$.*.Y o           o $ d =.4.4.4.5.5.5.5.5.5.5.4.4.3.3.2.1.1.<.,.>.<.",
"g s g k x v m N C A F H K I Y R W ~ / ) ` ] { | ..X.O.@.#.%.*.#.e                   m 4.6.6.7.7.7.7.7.7.6.6.6.5.4.4.3.2.1.<.,.1.",
"h f j z c n N V A D G K P Y R W ! / ) ` ] { | ..o.O.@.$.%.*.-. .=                   : &.9.8.8.9.9.9.9.8.8.8.7.7.6.5.5.4.3.2.1.3.",
"k h l c b M B Z S G J P U R W ! ^ ) ` ] { | ..o.+.@.$.&.*.-.>.' %                   @ | q.0.0.q.q.q.0.0.0.0.9.9.8.7.6.5.4.3.2.4.",
"z k x b m B C S F J L U T W ! ^ ( ` ] { | ..o.+.#.$.&.=.;.:.<.V                     & #.e.w.w.w.w.w.w.w.w.q.q.0.0.9.8.7.6.5.4.5.",
"c z v n N C A F H L I T E Q ^ ( _ ] { | ..o.+.#.%.&.=.;.>.,.2.J           - h b O   w 5.r.r.r.r.r.r.r.r.r.e.e.w.q.0.0.9.8.7.5.7.",
"b c n M V Z D H K I Y E Q ~ ( _ ' [ | ..o.+.#.%.*.-.;.>.<.1.4.] 2 > o     b e.@.$ o / u.y.y.y.y.y.y.y.y.t.t.r.r.e.w.q.0.9.8.7.8.",
"n v m B Z S G K P Y R Q ~ / _ ' [ } ..o.+.#.%.*.-.:.>.<.2.3.5.5.;.$.2     g e.8.r h w.i.i.i.i.i.i.i.i.u.u.u.y.t.t.r.e.w.q.9.8.0.",
"M n N C S F J L U R W ! / ) ' [ }  .o.+.#.%.*.-.:.,.<.2.4.5.7.8.w.$.>     2 3.p.%.:.a.p.a.a.a.a.a.a.a.p.p.i.i.u.y.t.r.e.w.q.9.q.",
"B M V A D H L I T E ! ^ ) ` [ }  .X.+.#.%.*.-.:.,.1.2.4.6.7.9.w.=.r       o ) s.s.s.s.s.d.d.d.d.d.d.s.s.s.a.p.p.i.u.y.t.r.w.q.w.",
"C B Z D G K I Y E Q ^ ( ` ] {  .X.O.#.%.*.-.:.,.1.3.4.6.8.q.0. .7           j i.d.d.f.f.f.g.g.g.g.f.f.f.d.d.s.a.p.p.u.y.t.r.w.r.",
"Z C S F J P U R Q ~ ( _ ] { | X.O.@.%.*.-.:.,.1.3.5.6.8.0.%.M *             , 5.h.g.h.h.h.j.j.j.j.h.h.h.g.f.f.d.s.a.p.i.u.t.r.t.",
"S Z D H L U T W ! / _ ' { | ..O.@.$.*.-.:.,.1.3.5.7.9.0.) ,                 o  .l.j.k.k.k.k.l.k.k.k.k.j.j.h.g.g.f.d.s.p.i.u.t.y.",
"F S G K I Y E ! ^ ) ` [ } ..o.@.$.&.-.:.,.1.3.5.7.9.q.9.i                     L z.l.z.z.z.z.z.z.z.z.z.l.k.k.j.h.g.f.d.s.p.i.y.i.",
"H F J P Y R Q ^ ( ` ] }  .o.+.$.&.=.;.,.1.3.5.7.9.q.e.e.z                     c l.x.c.c.c.c.c.c.c.c.x.x.z.l.l.k.j.h.f.d.s.p.i.p.",
"J H L U T W ~ / _ ] {  .X.+.#.&.=.;.>.1.3.5.7.9.q.e.t.u.>.i                   7 i.b.b.b.b.b.b.b.b.v.v.c.c.x.z.l.k.j.h.g.d.s.p.a.",
"L K I Y E ! / ) ' [ | X.O.#.%.*.;.>.<.3.5.7.9.q.e.t.u.i.f.I                   @ ;.M.m.m.m.m.m.m.m.n.n.b.b.v.c.x.z.l.j.h.g.d.a.s.",
"I L U R Q ^ ( ` [ } ..o.@.$.*.-.>.<.2.5.7.9.q.e.t.u.p.s.g.D             + ;     / B.N.N.N.N.N.N.M.M.M.m.n.b.v.c.x.z.l.j.h.f.d.f.",
"U I T W ~ ( _ ] }  .o.+.$.&.-.:.<.2.4.7.9.q.e.t.u.p.s.f.f.c             * m .   F V.V.V.V.V.V.V.B.B.N.N.M.m.n.b.v.c.z.l.j.h.f.g.",
"T Y E ! ^ ) ' { | X.+.#.&.=.:.,.2.4.6.9.q.e.t.u.p.s.f.h.p.e             O I :   k N.Z.Z.Z.Z.Z.C.C.C.V.B.B.N.M.n.b.v.c.z.l.j.g.h.",
"E R Q ~ ( ` [ | ..O.@.%.=.;.,.1.4.6.8.q.e.t.u.p.s.f.h.k.y.6             X O.z   > w.D.S.S.S.A.A.A.Z.Z.C.V.B.N.M.m.b.v.c.z.k.h.j.",
"W E ! / _ ] }  .o.@.$.*.;.>.1.3.6.8.0.e.t.u.p.s.f.h.k.z.u.5             @ 4. ..   v B.F.F.D.D.D.D.S.A.A.Z.C.V.N.M.m.b.v.x.l.k.k.",
"! Q ^ ) ' { | X.+.$.&.-.:.<.3.5.7.0.w.r.u.p.s.f.h.k.z.c.d.9             5 k.c.d   @ >.K.G.G.G.G.F.F.D.S.A.Z.C.V.B.M.m.b.c.x.l.l.",
"^ ~ ( ` [ } ..O.#.%.=.:.,.2.4.7.9.w.r.y.p.s.f.h.k.z.c.b.h.w             N D.J.y.9   l Z.K.J.J.J.H.G.G.F.D.S.A.C.V.B.M.n.b.c.z.z.",
"( ^ _ ' {  .o.@.$.*.;.,.1.4.6.9.q.r.y.i.s.f.h.k.z.c.b.m.v.s             | L.J.L.i.r + >.I.L.L.K.K.J.H.G.F.D.S.A.C.V.N.M.n.v.x.x.",
") ( ` [ | X.+.$.&.-.>.<.3.6.8.q.e.y.i.a.f.h.k.z.c.b.m.N.N.N             I K.P.P.Y.e.& l D.U.P.P.L.L.K.J.H.G.F.S.A.C.V.N.m.b.c.c.",
"` _ ] } ..O.#.%.=.:.<.2.5.7.0.e.t.i.a.d.h.k.z.c.b.m.N.V.S.)             t Z.U.U.R.w.# o { U.U.U.I.P.P.L.K.H.G.F.S.Z.C.B.M.n.v.v.",
"] ' {  .o.+.$.*.;.,.1.4.7.9.w.r.u.p.d.g.k.z.c.b.m.N.V.S.x.m             5 m.R.T.W.<.6 - 8 B.R.Y.Y.U.I.P.L.K.H.G.D.S.Z.V.N.m.b.b.",
"[ ] } ..O.#.&.-.>.<.3.6.9.q.r.y.p.s.g.j.z.c.b.m.N.V.S.d.c               w S.E.E.Q.j.` j e C.W.R.T.T.Y.U.P.L.K.H.G.D.A.C.B.M.n.n.",
"} {  .o.@.%.=.:.,.2.5.8.0.e.y.i.s.f.j.l.x.b.m.N.V.S.r.i                 M T.Q.Q.!.T.P.k.y.W.Q.W.E.R.T.Y.U.I.L.K.H.F.S.Z.V.N.m.m.",
"| | X.+.$.*.;.>.1.4.7.0.w.t.i.a.f.h.l.x.v.m.N.V.A.3.8                 = 6.~.!.~.~.^.^././.~.!.!.Q.W.E.R.Y.U.P.L.J.G.D.S.C.B.M.M.",
".. .o.@.%.=.:.<.3.6.9.q.r.u.p.d.h.k.x.v.n.N.V.S.8.4                   ~ !.^.^./././././././.^.~.!.Q.W.E.R.Y.U.P.K.J.G.D.Z.V.N.N.",
"o.X.+.$.*.;.,.2.5.8.0.e.y.p.s.g.j.z.c.n.M.V.A.a.e                   X 3._.(.(.).).).).).).(.(./.^.~.!.Q.E.R.Y.I.P.K.H.F.A.C.B.B.",
"O.O.#.&.-.>.1.4.6.9.w.t.i.a.f.j.l.c.b.M.B.A.v.z                     $ d.'._._.`.`.`.`.`._._.).).(.^.~.!.Q.E.T.Y.I.L.J.G.S.Z.V.V.",
"@.+.$.=.;.,.2.5.8.q.r.u.a.d.h.l.x.b.m.B.Z.B.P .         # :         , B.].'.'.].].].].].'.'.`._.).(./.~.!.W.R.T.U.P.K.G.D.A.V.V.",
"#.#.&.-.>.1.4.7.0.e.y.i.s.g.k.z.v.m.N.C.D. .O         = +.P         w U.[.[.[.{.{.{.{.[.[.].].'.`.).(./.~.Q.W.R.Y.I.L.H.F.S.C.C.",
"%.$.=.:.<.3.6.9.w.t.u.a.f.j.z.c.n.N.V.S.w.4         6 6.^.Q         n ).}.}.}.|.|.|.|.}.}.{.[.].'.`._.(.^.~.Q.E.T.U.P.J.G.D.Z.Z.",
"*.&.-.>.1.4.7.0.e.y.p.d.h.l.x.b.M.B.A.t.w       o m k./.).`         ! |.|. X X.X.X.X X X|.|.}.{.[.'.`.).(.^.!.W.R.Y.P.K.H.D.A.Z.",
"=.=.:.<.3.6.9.w.t.i.s.g.k.z.v.m.B.Z.b.k       *  .L././.'.#.        :.oX.XXXXXXXoXXXXXXX.X X|.}.{.[.'.`.)./.~.Q.E.T.I.L.J.F.A.A.",
";.-.,.2.5.8.q.r.u.a.f.h.l.c.n.N.C.S.` X     : :.Q.^./.).[.3..     # j.+XoXOXOXOXOXOXOXoXoXXX.X X|.{.[.'._.(.^.!.W.T.U.P.J.G.S.S.",
":.:.<.3.6.9.w.t.i.s.g.k.x.b.M.V.A.;.-     # &.!.~./.).`.}.e.O     3 P.@X+X@X@X@X@X@X@X+XOXOXXX.X X}.{.].`.)./.~.Q.R.Y.P.K.G.D.S.",
",.>.2.5.8.q.r.u.a.f.j.z.v.m.N.A.8.2       A Y.~./.).`.]. Xl.%     f '.#X#X$X$X$X$X$X#X#X@X+XOXoX.X X}.[.'._.(.^.!.E.T.I.L.H.D.D.",
"<.<.3.6.0.e.y.p.d.h.l.c.n.M.Z.i.r       * i././.).`.].{..XV.=     K @X%X%X&X&X&X&X&X%X%X$X#X+XOXoX.X|.{.].`.)./.!.W.T.U.L.J.F.D.",
"2.2.5.8.q.r.u.a.f.j.z.v.m.V.k.j       . W E./.).`.].{.|.OXk.#      .=X*X*X=X=X=X=X*X*X&X%X$X#X+XOXXX X}.[.'._.(.~.Q.R.U.P.J.F.D.",
"3.3.6.0.e.y.p.d.h.l.c.n.B.v.C       O U L./.(.`.].{.|..X@Xv.%     ) =X-X-X;X;X;X;X-X-X=X*X&X$X#X+XoX.X|.{.].`.(.^.Q.E.Y.P.K.G.F.",
"4.4.8.q.r.u.s.g.j.x.b.N.b.I X   X s :.I.^.(._.].{.|..XoX#X/.r     h  X>X:X>X>X>X:X:X;X-X=X*X&X$X@XOXXX X}.[.'.)./.!.E.T.I.K.G.F.",
"6.6.9.e.y.p.d.h.l.c.M.k.J o   - ' S.!.~./._.'.[.|..XoX+X$X@XD     $ v.1X,X<X<X<X,X,X>X:X;X=X*X%X#X@XOX.X|.{.'._./.~.W.T.I.K.G.G.",
"7.7.q.r.u.s.g.k.x.m.t.z     r 7.U.W.Q.^.).`.[.}..XoX+X#X%X=X'       | 2X1X1X2X1X1X<X<X,X:X;X=X*X%X#X+XXX X{.]._.(.~.W.T.U.L.H.G.",
"9.9.w.t.p.d.h.l.v.1.r   O C l.Y.R.W.~.(.`.].}. XoX+X#X%X*X>X<.      U <X3X3X3X3X3X2X1X<X,X:X-X=X&X$X+XoX.X}.[.`.(.^.Q.R.U.L.H.G.",
"0.0.r.u.a.f.k.c.*.1     3 j.Y.Y.E.!./._.'.{. XXX+X#X%X*X-X1Xh.o     Y 2X5X5X5X5X4X4X3X1X<X>X:X-X*X%X@XOX.X|.[.'.).^.Q.R.U.L.H.G.",
"w.w.t.p.d.j.x.-.1       o 5.T.R.Q.^.).`.[.|.XXOX#X%X*X-X:X2XJ.*     ..8X7X7X7X7X6X5X4X3X1X<X>X;X=X%X#X+XXX|.{.'.).^.Q.E.Y.P.H.G.",
"e.e.u.a.f.t.( >   X 1 y D c.R.W.~.(._.].}..XoX@X%X*X-X:X,X3X`.6     e.wX9X9X9X8X8X7X6X4X3X1X,X:X-X&X$X+XoX X{.'._./.!.E.Y.P.H.G.",
"r.t.i.s.h.] 2 3 c o.f.B.J.Y.R.Q.^.).'.{. XoX+X$X&X-X:X,X2X4X$Xf   @ V.rXqXqXqX0X9X8X7X6X4X2X<X>X-X*X%X@XoX.X}.]._./.!.E.Y.P.J.H.",
"y.y.p.f.j.h.r.s.M.D.H.K.I.T.W.~.(.`.[.|.XXOX#X&X=X:X,X1X4X6X2XH   & P.tXeXeXwXwXqX0X8X7X5X3X1X,X;X=X%X#XOX.X}.]._./.!.E.Y.P.J.H.",
"u.u.s.g.k.c.m.B.Z.D.H.L.U.R.Q.^._.].}. XoX@X%X=X;X,X1X3X6X8X0X]   = !.uXtXtXrXeXwXqX0X8X6X4X2X,X:X=X&X#XOX.X}.].`./.!.E.Y.P.J.H.",
"i.p.d.h.z.v.m.V.A.F.J.P.T.W.~.(.`.[.|.XX+X$X*X-X>X1X3X5X8X0XeX$.  : '.pXuXyXyXtXrXeXqX9X7X5X3X<X>X-X&X$X+XXX|.[.`.(.!.E.Y.P.J.H.",
"a.a.g.k.x.b.N.C.S.H.L.U.R.Q.^._.].}..XOX#X&X-X:X<X3X5X7X0XwXuX1.  < }.sXiXiXiXuXtXrXwX0X8X6X3X1X>X;X*X$X+XXX|.[.`.(.!.E.Y.P.J.G.",
"s.s.h.l.v.m.B.Z.F.J.P.Y.W.~.(.`.[.|.oX@X$X*X;X,X2X4X7X9XeXuX<XE   % Y.fXaXaXpXiXuXtXeXqX9X7X4X1X,X;X*X$X+XXX|.[.`.(.!.E.Y.P.H.G.",
"d.f.j.z.b.M.V.S.G.K.U.R.Q.^.).].}..XOX#X&X-X>X1X4X6X0X9X%Xj.M O     h.jXdXdXsXaXiXyXrXwX0X7X5X2X,X;X*X$X+XXX|.[.`.(.!.E.Y.P.H.G.",
"d.f.j.x.b.M.C.S.G.L.U.R.!./._.].|.XX+X$X*X;X,X2X5X1Xf.^ u o         9.kXgXgXfXsXaXiXyXrXqX9X6X3X1X>X-X&X@XoX X{.'.).~.W.T.I.J.H.",
"d.f.j.z.b.M.C.S.G.L.U.R.Q./._.].|.XX+X$X*X;X,X2X5X6X/.q.+.@.+.W 7 - K.zXjXhXhXfXdXaXiXyXeX0X8X5X2X,X;X*X$X+XXX}.]._./.Q.R.U.K.J."
};
