/* XPM */
static char *result[] = {
/* columns rows colors chars-per-pixel */
"64 64 256 2 ",
"   c black",
".  c #010101",
"X  c #020202",
"o  c gray1",
"O  c #040404",
"+  c gray2",
"@  c #060606",
"#  c #070707",
"$  c gray3",
"%  c #090909",
"&  c gray4",
"*  c #0B0B0B",
"=  c #0C0C0C",
"-  c gray5",
";  c #0E0E0E",
":  c gray6",
">  c #101010",
",  c #111111",
"<  c gray7",
"1  c #131313",
"2  c gray8",
"3  c #151515",
"4  c #161616",
"5  c gray9",
"6  c #181818",
"7  c #191919",
"8  c gray10",
"9  c #1B1B1B",
"0  c gray11",
"q  c #1D1D1D",
"w  c #1E1E1E",
"e  c gray12",
"r  c #202020",
"t  c gray13",
"y  c #222222",
"u  c #232323",
"i  c gray14",
"p  c #252525",
"a  c gray15",
"s  c #272727",
"d  c #282828",
"f  c gray16",
"g  c #2A2A2A",
"h  c gray17",
"j  c #2C2C2C",
"k  c #2D2D2D",
"l  c gray18",
"z  c #2F2F2F",
"x  c gray19",
"c  c #313131",
"v  c #323232",
"b  c gray20",
"n  c #343434",
"m  c #353535",
"M  c gray21",
"N  c #373737",
"B  c gray22",
"V  c #393939",
"C  c #3A3A3A",
"Z  c gray23",
"A  c #3C3C3C",
"S  c gray24",
"D  c #3E3E3E",
"F  c #3F3F3F",
"G  c gray25",
"H  c #414141",
"J  c gray26",
"K  c #434343",
"L  c #444444",
"P  c gray27",
"I  c #464646",
"U  c gray28",
"Y  c #484848",
"T  c #494949",
"R  c gray29",
"E  c #4B4B4B",
"W  c #4C4C4C",
"Q  c gray30",
"!  c #4E4E4E",
"~  c gray31",
"^  c #505050",
"/  c #515151",
"(  c gray32",
")  c #535353",
"_  c gray33",
"`  c #555555",
"'  c #565656",
"]  c gray34",
"[  c #585858",
"{  c gray35",
"}  c #5A5A5A",
"|  c #5B5B5B",
" . c gray36",
".. c #5D5D5D",
"X. c gray37",
"o. c #5F5F5F",
"O. c #606060",
"+. c gray38",
"@. c #626262",
"#. c gray39",
"$. c #646464",
"%. c #656565",
"&. c gray40",
"*. c #676767",
"=. c #686868",
"-. c DimGray",
";. c #6A6A6A",
":. c gray42",
">. c #6C6C6C",
",. c #6D6D6D",
"<. c gray43",
"1. c #6F6F6F",
"2. c gray44",
"3. c #717171",
"4. c #727272",
"5. c gray45",
"6. c #747474",
"7. c gray46",
"8. c #767676",
"9. c #777777",
"0. c gray47",
"q. c #797979",
"w. c gray48",
"e. c #7B7B7B",
"r. c #7C7C7C",
"t. c gray49",
"y. c #7E7E7E",
"u. c gray50",
"i. c #808080",
"p. c #818181",
"a. c gray51",
"s. c #838383",
"d. c #848484",
"f. c gray52",
"g. c #868686",
"h. c gray53",
"j. c #888888",
"k. c #898989",
"l. c gray54",
"z. c #8B8B8B",
"x. c gray55",
"c. c #8D8D8D",
"v. c #8E8E8E",
"b. c gray56",
"n. c #909090",
"m. c gray57",
"M. c #929292",
"N. c #939393",
"B. c gray58",
"V. c #959595",
"C. c gray59",
"Z. c #979797",
"A. c #989898",
"S. c gray60",
"D. c #9A9A9A",
"F. c #9B9B9B",
"G. c gray61",
"H. c #9D9D9D",
"J. c gray62",
"K. c #9F9F9F",
"L. c #A0A0A0",
"P. c gray63",
"I. c #A2A2A2",
"U. c gray64",
"Y. c #A4A4A4",
"T. c #A5A5A5",
"R. c gray65",
"E. c #A7A7A7",
"W. c gray66",
"Q. c #A9A9A9",
"!. c #AAAAAA",
"~. c gray67",
"^. c #ACACAC",
"/. c gray68",
"(. c #AEAEAE",
"). c #AFAFAF",
"_. c gray69",
"`. c #B1B1B1",
"'. c #B2B2B2",
"]. c gray70",
"[. c #B4B4B4",
"{. c gray71",
"}. c #B6B6B6",
"|. c #B7B7B7",
" X c gray72",
".X c #B9B9B9",
"XX c gray73",
"oX c #BBBBBB",
"OX c #BCBCBC",
"+X c gray74",
"@X c gray",
"#X c gray75",
"$X c #C0C0C0",
"%X c #C1C1C1",
"&X c gray76",
"*X c #C3C3C3",
"=X c gray77",
"-X c #C5C5C5",
";X c #C6C6C6",
":X c gray78",
">X c #C8C8C8",
",X c gray79",
"<X c #CACACA",
"1X c #CBCBCB",
"2X c gray80",
"3X c #CDCDCD",
"4X c #CECECE",
"5X c gray81",
"6X c #D0D0D0",
"7X c gray82",
"8X c #D2D2D2",
"9X c LightGray",
"0X c gray83",
"qX c #D5D5D5",
"wX c gray84",
"eX c #D7D7D7",
"rX c #D8D8D8",
"tX c gray85",
"yX c #DADADA",
"uX c gray86",
"iX c gainsboro",
"pX c #DDDDDD",
"aX c gray87",
"sX c #DFDFDF",
"dX c gray88",
"fX c #E1E1E1",
"gX c #E2E2E2",
"hX c gray89",
"jX c #E4E4E4",
"kX c gray90",
"lX c #E6E6E6",
"zX c #E7E7E7",
"xX c gray91",
"cX c #E9E9E9",
"vX c #EAEAEA",
"bX c gray92",
"nX c #ECECEC",
"mX c gray93",
"MX c #EEEEEE",
"NX c #EFEFEF",
"BX c gray94",
"VX c #F1F1F1",
"CX c gray95",
"ZX c #F3F3F3",
"AX c #F4F4F4",
"SX c gray96",
"DX c #F6F6F6",
"FX c gray97",
"GX c #F8F8F8",
"HX c #F9F9F9",
"JX c gray98",
"KX c #FBFBFB",
"LX c gray99",
"PX c #FDFDFD",
"IX c #FEFEFE",
"UX c white",
/* pixels */
"y e y p s g j z c n M B Z S F J L I Y R W ! ^ ( _ ` ] { }  ...o.O.+.#.$.%.*.*.+.o.-.:.:.:.>.>.>.>.>.,.>.>.>.>.:.:.;.;.-.=.*.&.=.",
"u t i a f j l c b m B C A F H K I Y R W ! ^ ( _ ` ] { |  .X.o.+.@.#.%.&.=...m 6 2 c o.,.,.,.<.<.<.<.<.<.<.<.,.,.>.>.:.;.;.-.=.;.",
"p u a d h k x v m N C A D H K P U R W ! ^ ( _ ' ] { | ..X.O.+.#.$.%.*.=...q         2 P ,.2.2.2.2.2.2.2.2.2.1.1.<.<.,.>.:.;.-.:.",
"s p d g k z v n N V A D G K P U T W ! ^ ( _ ' [ } | ..o.O.@.#.%.&.*.-.:.S             $ [ 5.4.4.4.4.4.4.4.3.3.3.2.1.1.<.,.>.:.,.",
"f s f j z c n M V Z D G J P U T E ! ^ ( _ ' [ }  ...o.+.@.$.%.*.=.;.:.-.i               A 6.6.6.6.6.6.6.5.5.5.4.4.3.2.1.1.<.>.<.",
"h d h l c b M B Z S G J L U T E Q ^ ( _ ' [ }  .X.o.+.#.$.&.*.-.;.>.<.} &               g 6.8.8.8.8.8.8.7.7.6.6.5.5.4.3.2.1.<.2.",
"j g k x v m B C S F H L I T E Q ~ ( _ ' [ }  .X.O.+.#.%.&.=.;.:.>.<.3.T .               V 0.9.0.0.0.0.9.9.9.8.8.7.6.6.5.4.3.1.3.",
"l j z v n N V A D H K I Y E Q ~ / _ ' [ }  .X.O.@.#.%.*.-.;.>.,.<.2.5.G               + ] e.q.q.q.q.q.q.q.0.0.9.9.8.7.6.5.4.3.5.",
"x l c b M V Z D G K P Y R Q ~ / ) ' [ }  .X.O.@.$.%.*.-.:.>.<.1.2.4.7.L               b 9.e.e.e.e.e.e.e.e.w.w.q.0.0.9.8.7.6.4.6.",
"v x b m B Z S G J P U R W ! / ) ` [ }  .X.O.@.$.&.=.-.:.,.<.2.3.5.6.9.} :     . .   a 4.y.t.t.t.t.t.t.t.r.r.e.e.w.q.0.9.8.7.6.8.",
"b c n N C A F J L U T W ! ^ ) ` ] {  .X.O.@.$.&.=.;.:.,.1.2.4.5.7.7.5.5.x       ; h >.i.u.u.u.u.u.u.u.u.y.y.t.r.r.e.w.q.0.9.7.9.",
"m b M V A D H K I T E Q ^ ( ` ] { | X.O.@.$.&.=.;.>.,.1.3.4.6.8.=.x w w %       % L 4.y.p.p.p.p.p.p.p.i.i.i.u.y.t.t.r.e.q.0.9.0.",
"N m B Z S G K P Y R Q ~ ( _ ] { | ..O.@.$.&.=.;.>.<.1.3.5.6.8.0.S                 o < N w.s.s.s.s.s.s.a.a.p.p.i.u.y.t.r.e.w.0.w.",
"V N C S F J P U R W ~ / _ ' { | ..o.@.$.&.=.;.>.<.2.3.5.7.8.0.8.i                     . ^ h.f.f.f.f.d.d.s.s.a.p.p.i.u.y.r.e.w.e.",
"C V A D H L I T W ! / ) ' [ } ..o.+.$.&.=.;.>.<.2.4.5.7.9.0.e.<.2                       9 0.j.h.h.g.g.g.f.f.d.s.a.p.i.u.y.t.e.r.",
"A C D G K I Y E ! ^ ) ` [ }  .o.+.#.&.=.;.>.<.2.4.6.8.9.q.e.9.n .                         ! l.k.j.j.j.h.h.g.g.f.d.s.a.p.u.y.r.y.",
"D A F J P U R Q ~ ( ` ] {  .X.+.#.%.=.;.>.<.2.4.6.8.0.q.e.y.| +                     o     u d.z.l.l.l.k.k.j.h.g.f.d.s.a.p.u.y.u.",
"G D H L U T W ~ / _ ' { | X.O.#.%.*.;.>.<.2.4.6.8.0.w.e.t.p._ .                   o S ,   @ @.v.x.x.z.z.l.l.k.j.h.g.f.d.a.p.u.i.",
"H G K I Y E ! ^ ) ' [ | ..O.@.%.*.-.>.<.2.4.6.8.0.w.r.t.u.p.0.z                   r p.P     d g.v.v.c.c.x.z.l.l.k.h.g.f.d.a.i.a.",
"K J P U R Q ^ ( ` [ } ..o.@.$.*.-.:.,.2.4.6.8.0.w.r.y.u.p.s.h._ .               O  .M.u.0   O +.M.b.b.v.v.c.x.z.l.k.j.g.f.d.a.s.",
"P K U T W ~ ( _ ] {  .o.+.$.&.=.:.,.1.4.6.8.0.w.r.y.i.a.s.f.j.L                 h l.M.N.O.@   k x.M.m.n.b.b.v.c.x.l.k.j.g.f.s.d.",
"U P Y E ! / ) ' { | X.O.#.%.=.;.,.1.3.6.8.0.w.r.y.i.a.d.f.h.h.z               & >.V.B.B.b.z   $ ;.C.N.M.m.n.b.v.c.x.z.k.j.g.d.f.",
"Y U R Q ^ ( ` [ } ..O.@.%.*.;.>.1.3.5.8.0.w.r.y.i.a.d.g.h.l.8.2               B M.V.V.C.A.>.#   e ;.m.B.N.M.m.n.b.c.x.z.k.h.g.g.",
"R T W ~ / _ ] }  .o.@.$.*.-.>.<.3.5.7.0.w.r.y.i.a.d.g.j.k.z.H               X %.S.Z.Z.A.A.N.C     $ K l.C.N.M.m.n.b.c.x.l.k.h.j.",
"W R ! ^ ) ' { | X.+.#.&.-.:.<.2.5.7.9.w.r.y.i.a.d.g.j.l.x.u.6               X &.F.S.S.D.D.F.x.C +     j e.C.B.N.m.n.b.c.x.l.j.k.",
"Q W ~ ( ` [ | ..O.#.%.=.:.,.2.4.6.9.q.r.y.i.a.d.g.j.l.x.n.+.O                 V C.F.F.F.F.F.G.B.=.k %   2 o.m.C.N.M.n.v.c.z.k.l.",
"~ ! / _ ] }  .o.@.$.*.;.>.1.3.6.8.q.e.t.i.a.d.g.j.l.x.v.x.v                   @ @.J.H.H.H.H.H.H.J.V.9.Y 7 $ C a.C.N.m.n.v.x.l.z.",
"/ ^ ) ' [ | X.+.$.&.-.>.<.3.5.8.0.e.t.u.a.d.g.j.l.x.v.M.:.$ - w                 y M.L.K.K.K.K.J.J.J.K.G.z.| > 0 &.M.N.m.b.c.z.x.",
"( / _ ] } ..O.#.%.=.:.,.2.5.7.0.w.t.u.p.d.g.j.l.x.v.n.v.c   E ~                 O 1.U.P.P.P.P.L.L.K.J.H.H.H.J X > ..B.M.n.b.x.c.",
"_ ) ' {  .o.@.$.*.;.,.1.4.7.9.w.r.u.p.s.g.j.l.x.v.n.B.6.* > s.)                   ` T.U.U.U.I.I.P.P.L.K.J.J.9.b X.r q.V.M.n.v.v.",
"' ` [ | X.+.#.&.-.>.<.3.6.8.q.r.y.p.s.f.j.l.x.v.n.N.j.k   v A.R                   ~ E.T.T.T.Y.Y.U.I.P.L.K.J.S.X.b.` *.Z.N.m.b.b.",
"] ' } ..o.@.%.=.:.<.2.5.8.0.e.t.i.a.f.h.l.x.v.n.M.C.{   @ ;.J.Z                 . -.Q.E.E.R.R.T.T.Y.U.I.P.K.J.S.D.C.n.C.B.M.n.n.",
"{ [ | X.+.$.*.;.,.1.4.7.0.w.t.u.a.d.h.k.x.v.n.M.B.V.m o h M.N.w                 2 b.!.Q.W.W.W.E.R.R.T.U.I.P.K.J.G.F.S.Z.V.N.m.m.",
"| } ..O.#.&.-.>.<.3.6.9.q.r.u.p.d.g.k.z.c.n.M.B.C.V.m q $.K.u.*               . _ Q.~.!.!.!.Q.Q.W.E.R.T.Y.I.P.K.J.G.D.A.C.B.M.M.",
" .| o.@.%.=.;.,.2.5.8.0.e.y.p.s.g.j.z.c.b.M.B.C.A.D.i.7.H.Y.+..             o J I./.^.^.^.^.~.!.!.Q.W.R.T.Y.I.P.K.H.F.S.Z.V.M.N.",
"X...O.#.&.-.>.1.4.7.9.w.t.i.a.f.j.l.c.b.m.B.C.A.D.G.K.I.Y.f.0           O z 3.T.).(.(.(.(././.^.~.!.Q.W.R.T.U.I.L.J.G.D.A.C.N.N.",
"o.o.@.%.=.:.<.3.6.8.q.r.u.a.d.h.k.x.v.m.N.C.A.D.G.J.L.Y.m.f           X ` T.'._._._._._._.).(.(./.^.~.Q.W.R.T.U.P.K.H.F.S.Z.B.B.",
"+.O.$.*.;.,.2.4.7.0.e.y.p.s.g.k.z.v.n.N.V.A.D.G.J.L.U.D.C             $ j.[.`.'.'.'.'.'.`.`._.).(./.^.~.Q.W.R.Y.I.L.J.G.D.A.V.V.",
"#.@.%.=.:.<.3.6.9.w.t.i.a.f.j.z.c.n.M.V.Z.D.G.J.L.U.P.W .             1 Z.{.].[.[.[.[.[.].].'.`._.)./.^.~.Q.E.T.U.P.K.H.F.A.C.C.",
"$.$.*.;.,.2.5.8.q.r.u.p.d.h.l.x.b.M.B.Z.S.F.J.L.I.R.2.$               h ~.}.{.}.}.}.}.{.{.[.].].`._.)./.^.!.W.R.Y.I.L.J.G.S.Z.C.",
"&.%.-.>.1.4.7.0.w.t.i.s.g.k.z.v.m.N.C.S.F.H.L.I.T.F.f                 ~ |.|.|. X X X|.|.|.}.{.[.].'._.)./.~.Q.E.T.U.P.K.G.D.Z.Z.",
"*.*.;.,.2.5.8.q.r.u.a.f.j.z.c.n.N.V.A.D.H.K.I.T.K.E X     = :       . 6.oX.X.XXXXXXX.X.X X X|.}.[.].'._.(.^.~.Q.R.Y.I.L.H.F.A.A.",
"-.-.>.1.4.7.0.e.y.p.d.h.l.x.b.M.V.Z.D.G.K.P.Y.W.;.o     1 7.U       ; V.OXoXoXoXOXoXoXoXXX.X X|.}.[.].`.).(.^.!.E.T.U.L.J.F.S.A.",
";.;.,.3.5.8.w.t.i.s.f.j.z.v.m.B.C.S.G.J.P.U.E.H.h     = 0. X%.      u /.+X+X+X+X+X+X+XOXOXoXXX.X|.}.[.'.`.)./.!.W.R.Y.P.K.G.S.S.",
">.>.1.4.7.0.e.y.p.d.h.l.c.n.N.V.A.F.J.L.U.T.E.} X     ` ]..Xi.O     Z XX#X#X#X#X#X#X#X@X+XOXoXXX.X|.{.[.'._.(.~.Q.E.Y.I.K.H.D.S.",
",.,.3.6.9.w.t.i.s.g.k.x.b.M.B.Z.D.H.K.I.T.W.2.=     7 F. XoXu.o     ' %X$X%X%X%X%X%X$X$X#X@X+XoXXX X|.{.].`.).^.!.W.T.U.L.H.D.D.",
"1.1.4.7.0.e.y.p.f.j.z.c.n.N.C.S.G.K.P.Y.W.p.2       { |. X+X>.    X q.=X&X*X*X*X*X*X&X%X$X#X@X+XoXXX X}.[.'.)./.~.W.R.U.L.J.F.D.",
"2.2.6.9.w.t.i.s.g.k.x.b.M.V.A.F.J.L.U.E.N.a       u J.XXXX#X1.    * A.;X=X-X-X-X-X=X=X*X&X%X$X@X+XoX.X|.{.]._.(.~.Q.R.Y.P.J.F.F.",
"4.4.7.0.r.u.a.f.j.z.v.m.B.Z.D.H.K.I.R.K.A       e x.XXXXOX%Xb.$   . 6.>X;X:X:X:X:X;X-X-X=X&X%X#X@XOXXX X}.].`.).^.!.E.Y.I.K.G.F.",
"5.5.9.w.t.i.s.g.k.x.n.N.V.A.F.J.P.Y.T.` X   * T S..XXXOX@X&XI.,     G *X,X,X,X,X>X>X:X;X-X=X&X%X#X+XoX.X|.[.'.)./.!.W.T.I.K.G.F.",
"7.7.0.e.u.a.f.j.z.v.m.B.Z.D.H.L.Y.Y.+.$   i i.].XXXXOX@X$X=XQ.4     7 ).2X1X1X<X<X<X,X>X:X-X=X&X$X@XOXXX X{.]._./.~.W.T.I.L.G.G.",
"8.8.w.t.i.s.g.l.c.n.N.C.S.G.K.U.K.{ %   m A.|. XXXOX@X$X&X;X!.4     = L.5X2X2X2X2X1X<X,X>X:X-X*X%X#X+XoX X}.].`.(.~.Q.R.U.L.H.G.",
"0.0.e.y.p.f.j.z.v.m.B.Z.D.H.I.A.I o . Y Y.}.|..XOX@X$X&X=X>X/.5     & J.7X4X4X4X4X3X2X1X,X>X;X=X&X$X@XoX.X|.[.`.).^.Q.R.U.L.H.G.",
"q.q.r.i.s.g.k.x.n.N.C.S.G.L.S.G   o ^ W.{.}..XoX@X$X&X=X;X<X Xy     3 ).8X6X6X6X5X4X3X2X1X,X:X-X*X%X#XOXXX|.{.'.).^.Q.R.U.L.H.G.",
"w.e.y.p.d.j.z.v.m.B.A.F.K.S.P .   & h.{.{. XoX+X$X&X=X;X,X1X=XM     v :X9X8X8X8X7X6X5X4X2X<X>X;X=X&X#X+XXX X{.'.)./.!.E.Y.P.H.G.",
"r.r.u.s.g.k.x.n.N.C.S.H.F.Q X     O y.|.|.XXOX#X%X=X;X>X1X3X3X!     [ 0X0X0X0X9X9X8X6X5X3X1X,X:X-X*X$X@XoX X}.]._./.!.E.Y.P.H.G.",
"t.t.p.d.h.z.v.m.B.Z.F.l.F O   # c %.W.|..XOX@X%X*X;X>X<X3X4X8X+.    q.tXwXwXwXqX0X9X8X6X4X3X<X>X;X*X%X@XOX.X}.]._./.!.E.Y.P.J.H.",
"y.u.a.f.k.x.b.N.C.S.V.H & * s 4.W.[.{. XXX+X$X*X-X>X<X2X5X6XqX5.  @ A.uXrXrXeXeXwXqX9X7X6X4X1X,X:X=X&X#XOX.X}.]._./.!.E.Y.P.J.H.",
"i.i.d.h.l.c.m.B.Z.F.H.n.s.f.J.).`.].}..XOX#X&X-X:X<X2X4X7X9XrXf.  ; (.iXyXyXtXrXeXwX0X9X7X5X2X<X:X-X&X#XOXXX|.[.`.(.!.E.Y.P.J.H.",
"p.p.f.j.x.b.M.V.S.G.K.U.E.~.^.).'.{. XoX@X%X=X;X,X2X4X6X9XqXyXV.O ; _.aXiXuXuXyXtXeXwX0X8X5X3X1X>X-X*X$X+XXX|.[.`.(.!.E.Y.P.J.G.",
"a.s.g.l.c.n.N.Z.D.H.L.Y.E.!./._.].|.XX+X$X*X-X>X1X3X6X8XqXeXiXf.X * !.dXpXpXiXuXyXtXeXqX9X6X4X1X,X;X*X$X+XXX|.[.`.(.!.E.Y.P.H.G.",
"s.d.j.z.v.M.V.A.F.K.I.T.W.^.).'.{. XoX@X%X=X:X<X3X5X8XqXyXqXN.w   * Q.gXsXsXaXpXuXyXrXwX9X7X4X2X,X;X*X$X+XXX|.[.`.(.!.E.Y.P.H.G.",
"d.f.j.x.b.M.C.S.G.L.U.R.!./._.].}..X+X$X*X;X,X1X4X7X0X,XH.` &     $ T.jXfXfXdXsXpXuXtXeXqX8X5X3X<X:X=X%X@XoX X[.`.(.~.W.Y.P.J.H.",
"d.f.j.x.b.M.C.S.G.L.U.R.!./._.].|.XX+X$X*X;X,X2X5X8XwX(.E f S J a h #XkXhXgXgXdXsXpXuXtXwX0X7X4X1X>X-X&X#XOX.X}.].).^.Q.T.I.K.J."
};
