/* XPM */
static char *_124327448254acee6de90bb8af922c79dQ5LxhBkcGv34wI[] = {
/* columns rows colors chars-per-pixel */
"64 64 203 2 ",
"   c #381F1A",
".  c #312124",
"X  c #35342D",
"o  c #2D2D38",
"O  c #3A2E30",
"+  c #323231",
"@  c #5B3E1C",
"#  c #583A1B",
"$  c #653F18",
"%  c #483629",
"&  c #533A24",
"*  c #613F23",
"=  c #5D411D",
"-  c #664516",
";  c #63421B",
":  c #6C461C",
">  c #6D4B1E",
",  c #72431D",
"<  c #744C1C",
"1  c #77581F",
"2  c #48412F",
"3  c #4E4325",
"4  c #5E4220",
"5  c #5D542D",
"6  c #4D4434",
"7  c #4F4939",
"8  c #494438",
"9  c #5A4A3A",
"0  c #594B30",
"q  c #5D503F",
"w  c #614321",
"e  c #6E4524",
"r  c #6D4B22",
"t  c #6D4F2B",
"y  c #734C23",
"u  c #7A4C2B",
"i  c #764B2B",
"p  c #6E5125",
"a  c #6D532B",
"s  c #735424",
"d  c #775C26",
"f  c #7C5B25",
"g  c #73522B",
"h  c #7E562A",
"j  c #7C5C2B",
"k  c #765928",
"l  c #605036",
"z  c #6C5535",
"x  c #755B33",
"c  c #7C5C32",
"v  c #7E5C3B",
"b  c #785936",
"n  c #7C6226",
"m  c #7D612D",
"M  c #7F6236",
"N  c #76633D",
"B  c #7C633B",
"V  c #7E683F",
"C  c #776034",
"Z  c #534A45",
"A  c #735E41",
"S  c #7D6544",
"D  c #7C664A",
"F  c #7D6B4B",
"G  c #776C58",
"H  c #7B7565",
"J  c #7A7469",
"K  c #7B7C6A",
"L  c #787876",
"P  c #787876",
"I  c #805E1E",
"U  c #815D27",
"Y  c #825D2B",
"T  c #82572A",
"R  c #835E32",
"E  c #895F35",
"W  c #846326",
"Q  c #866C27",
"!  c #83632D",
"~  c #8A662D",
"^  c #866A2B",
"/  c #8B6B2D",
"(  c #8A6A24",
")  c #906E27",
"_  c #916C2D",
"`  c #90662C",
"'  c #8D702A",
"]  c #97722B",
"[  c #856433",
"{  c #8A6633",
"}  c #866935",
"|  c #8C6A34",
" . c #856439",
".. c #8B6639",
"X. c #826B3C",
"o. c #8D6B3A",
"O. c #906634",
"+. c #916C35",
"@. c #92663C",
"#. c #926D3A",
"$. c #986D38",
"%. c #986E32",
"&. c #8E7133",
"*. c #8E713A",
"=. c #927235",
"-. c #987235",
";. c #93723B",
":. c #9A7B3D",
">. c #856C44",
",. c #8D6E43",
"<. c #866D4A",
"1. c #896C4C",
"2. c #836541",
"3. c #906E40",
"4. c #867046",
"5. c #8D7344",
"6. c #937241",
"7. c #977842",
"8. c #9C7C43",
"9. c #92764A",
"0. c #957C4C",
"q. c #9E7E49",
"w. c #997541",
"e. c #8C6F51",
"r. c #8E7355",
"t. c #927557",
"y. c #A17E44",
"u. c #A27F49",
"i. c #9B843A",
"p. c #A9893E",
"a. c #9E8043",
"s. c #958049",
"d. c #9F8B50",
"f. c #97855A",
"g. c #A18345",
"h. c #A68A46",
"j. c #AB8C45",
"k. c #A2834B",
"l. c #A58C4B",
"z. c #AB8D4C",
"x. c #AB924B",
"c. c #AB9147",
"v. c #B2914D",
"b. c #A58E54",
"n. c #AB8E53",
"m. c #A28B5E",
"M. c #A98E5D",
"N. c #A2865E",
"B. c #A49154",
"V. c #AC9353",
"C. c #A6915C",
"Z. c #AB945B",
"A. c #AD985F",
"S. c #B19252",
"D. c #B1975E",
"F. c #A78760",
"G. c #A58D61",
"H. c #AA8E6D",
"J. c #A69261",
"K. c #AB9263",
"L. c #AB926B",
"P. c #B19563",
"I. c #7B7E86",
"U. c #788283",
"Y. c #81858A",
"T. c #E6D6BD",
"R. c #E7D3C4",
"E. c #E2D4CD",
"W. c #EBDACB",
"Q. c #ECDAC3",
"!. c #F1DCCB",
"~. c #E9DBD3",
"^. c #EBEBDE",
"/. c #F3E6DE",
"(. c #F9EEDD",
"). c #F4EBDD",
"_. c #F9F3DA",
"`. c #EBE9E4",
"'. c #EDE9EC",
"]. c #E6E5E1",
"[. c #F4E7E2",
"{. c #F5EDE3",
"}. c #FAECE3",
"|. c #F3EDED",
" X c #F9EEE8",
".X c #F9E7E5",
"XX c #F6F4E1",
"oX c #FCF3E5",
"OX c #FAF1EB",
"+X c #FEF8E8",
"@X c #FCEFF1",
"#X c #FBF1F0",
"$X c #F7FFF7",
"%X c #FDFEF6",
"&X c #F9F6FF",
"*X c #F7FFFE",
"=X c #FEFDFA",
"-X c #FFFBFF",
";X c #FBFFFF",
":X c #FFFDFF",
">X c #FFFFFF",
",X c #FCFEFD",
"<X c #F4F7FC",
/* pixels */
"X.n.z.v.z.n.Z.V.j.S.l.V.z.c.j.j.n.l.x.x.x.z.j.p.h.h.h.h.h.z.x.x.x.x.z.l.j.j.g.h.p.j.v.x.x.V.l.z.j.j.c.x.V.l.S.x.V.n.n.n.v.j.n.X.",
"> o.=.=.=.;.| =.| ;.6.3.| o.} | #.o.| | o.6.o.o./ | =.=.*.;.=.l.c.:.*.;.;.=.&./ | o.;.o.| | o.#.o.{ | ..3.#.;.| =.| ;.=.=.=.*.> ",
"y ../ ^ | #.| $.=.~ +._ | +.^ ! / _ / / / / / | O.{ +.[ o...#.V.V.&.o.o.[ | | ~ | / / ' / / _ / ! ~ &.| _ +.~ +.-.+.+.| { { ..r ",
":  .o.| #.$.~ +.#.+.+.~ @.#.#.#.$.;.+.@.+.| o.#.O.| +.#.6.*.;.v.S.;.o.6.@.+.{ O.3.| | @.$.o.;.$.3.o.#.$.{ +.+.#.+.~ #.#.| o.[ < ",
"y { #.+.| | | #.j | | ..o.E { +.| [ E ..#.#.{ R { { ^ | ! ! =.v.v.=.W ~ | ^ [ ..E { #.#...R [ } =.[ E ..{ +.{ T #.| | | | #...y ",
"- [ #.+.~ ! >.D >.5.X.X.,.,.U ) Q } 9.<.>.,.6.3.<.>.s | | +.=.j.h.=.=.| | s >.<.,.6.o.4.>.9.} ' ) U ,.,.X.X.5.>.D >.m / +.;.[ - ",
"y  .o.{ | J.Q.{..X.X{.{..XR.1.! / F.!..X X[.}.(.oXT.>. .{ #.| l.l.| o.{  .>.T.}..X(.).}. X!.N.[ Y 1.R. X X{.[..X}.Q.G.| { |  .y ",
"= c R U j f.).;X;X,X;X*X;X[.D j W N.}.;X;X*X;X-X-X[.D c Y Y s 5.5.s R T j D }.;X;X;X*X;X-X XN.W j D [.;X*X;X;X;X;X).f.j Y R c = ",
"< { ..o./ K.oX$X-X-X%X=X%X).r.{ +.L.(.=X=X;X-X;X%X|.o.{ } ~ Z 8 8 Z ! | [ o.|.%X-X-X=X=X=XXXL.%.{ r.[.=X%X%X-X;X$XoXZ._ o...| < ",
"e | | | ( K.}.;X;X;X;X;X;X[.>.` ( J.XX;X;X;X;X;X=X|...[ | ..L I.U.L o.{ | ..|.*X;X;X;X;X;XXXJ.W ` >.[.;X;X;X;X;X;X}.K./ { ..| e ",
"e { | | ' L.).;X=X;X=X<X;X}.>./ ( K._.;X,X;X$X=X;X|.,.o.#.,.P U.U.P ,.#.o.o.|.;X*X=X;X,X;X(.K.( ( 4.{.;X<X=X=X*X;X}.K.' | | { e ",
"y { ! ^ ) P.!.oX{.{.OX|.@XW.1.[ o.L.W.OX X#X{.{.+XW.o.{ | } G K K G X.| { o.W.+X{. XOX XOX!.L.| [ e.~.@X X X{.{.oX!.P.' ^ ! ! i ",
"y +.$.3.-.8.K.C.Z.Z.V.B.b.d./ / ] :.V.V.b.b.Z.D.G.F.! @.;.*.9.M.M.,.;.;.o.W F.K.D.V.b.b.V.V.:.] ` ^ l.d.B.l.Z.M.C.K.8.-.#.$.| u ",
"y ~ +.@.^ | | ' @.@./ / / { o.......=.=.+.+.$.#.;.+.W } } ^ / v.v._ ^ } } m $.=.@.;.+.| =.;.|  .o.@.{ | =./ $.@.' &.| ^ o.@.~ < ",
"t { #.,.| o.[ ! ....M ! | o.o.,.o.o.{ { [ [  .[ [ ! C | @.*.%.z.z.%.*.@...m ! m [ .. .[ | { o.o.o.o.| [ c M ....! [ &.| o.@.| y ",
"* j Y j d E A ..C B V b B c s d j [ j v S S N C N c a h T k ~ 0.0.{ k h j a v N C B N S  .c [ j k s v X.x V V b  .v M d m M j * ",
"> ..o...' B.~.`.`.^.^.`.|.E.V W Q B.~.'.`.].`.'.'.E.2.[ ! ^ :.h.l.:.^ Y [ S E.'.`.`.].^.'.~.B.Q m 2.E.|.`.^.^.`.[.~.B.' ..#...> ",
": E #.@.=.P.}.=X;X=X%X;X-X/.1.+.&.C.[.-X%X;X=X=X;X/.4.[ ~ ~ 6.n.z.;.~ ~ [ >.[.-X;X=X;X%X;X[.C.&.=.4./.;X;X=X%X;X=X.XA.=.o.o.[ : ",
"y { O.{ / C.#X;X&X-X;X;X;X.X1.O.+.M.@X;X;X;X;X%X;X{.>.@.+._ 6.n.S.6._ +.o.>.{.,X=X;X;X;X;X@XM.@.O.1..X;X;X;X-X&X;X#XC./ { O...y ",
": [ +.O.&.C.#X*X;X=X;X*X=X(.,.` -.V.oX=X$X;X%X%X;XXX2.{ +./ | l.l.../ +.o.X.{.;X%X%X;X$X=XoXV.-._ ,.(.=X*X;X=X;X;X|.C.=.O.+.[ : ",
"y { =.@.+.C. X%X;X-X;X;X;X}.t.{ | Z.oX;X=X;X-X;X;X/.>. .| _ &.x.x.&./ +.E >.[.-X=X;X-X=X;X XV.o.{ t.(.;X;X;X-X;X%XOXC.+.@.+...s ",
"r [ ~ { &.K.!._.}.oXoXOX(.R.t...o.Z.W.oXoXOXOX X(.Q.7.@.{ Q | p.p.| / { #.9.Q.(.OX X#XoXoXW.Z.o.E t.R.{.OXOXoX}._.!.K.&.{ / [ , ",
"y [ &.,.| 7.H.K.C.C.b.b.b.b.^ ~ | i.K.J.B.M.Z.C.L.L.| ..o.#.;.x.x.;.=...o./ J.L.C.C.J.B.K.A.i./ ~ ^ b.C.b.b.C.C.C.H.7.| ,.&. .r ",
"$ h d C 1 W  .n M [ E [ Y c h Y b W R c U R ! d n ~ 1 Y j m  .i.:. .j j ! 1 [ n f ! E U j v W b R h Y j ! E [ [ n  .W 1 c d h $ ",
"<  .@./ ^ | *.| +.|  ...{ O.+./ | ~ } ~ ^ | | | o.| | +.O.@.=.h.h.&.#.@.+.| | #.| | / W } | [ | { +.{ { ..{ | | ..*.| ^ / @.{ < ",
"e  .@.{ ~ { +.+.+.O.{ } { | | } { | | | | #.| ! { [ | | { o.| j.j.| o.{ | { { { [ o.*.| | | } | | | | { } { | +.+.+.{ ~ | o.[ e ",
"g [ / ~ ....+.| { +.~ ~ / | } o.| ..} | o.o.| j ~ | | *...| =.S.S.=.| { o.| | [ j { | | } { | [ | | | | ~ ~ +.+.+.O.O...~ /  .u ",
"u / Q m B x x x j R U f U m j { ! [ U k j m j f f d s [ o.;.=.z.x.=.;.o.[ 1 f f f j ! m k ! [ ~ [ f U U f U [ M x x b B m ( ^ u ",
", ` | z 9 % 2 8 Z A o.{ { ! U O.;.7.&.| | } o.| $.{ j ! ~ _ =.x.V.=./ ~ ! j { $.| o.| } | &.:.;.O.U Y { { ..A Z Z 2 6 9 z [ ~ , ",
"u ..t % O X X o O 9 2.@.| { T { &.a.=.| | | | o.#.#.[ { | { o.f.f.o.{ / | [ 3.#.| o.| | | =.8.+.{ Y [ +.o.2.9 O o X X O % t @.u ",
"i h #   % l 3 . + 2  .| { X.c ..| 8.o.| | [ | { ..[ k ! o.B l 8 6 5  .o.[ s  .{ { ..} | | o.8.} ..j ..| | B 2 + . 3 5 %   # c i ",
"- k = & F i.Q = + % x U f k p j f ;.~ j [ j m j k M s h R S J I.I.J D c h s [ k j ! k [ j ~ ;.f c a k f U k % o # n i.X.& = d $ ",
",  .| | #.q.:.^ [ [ o.| @.[ s | | 8.| ~ #.| ~ o.^ { f ~ | F H Y.U.K >...~ f { ~ ..[ | #.~ | 8./ o.k [ +.| o.{ [ ~ ;.u.;.| |  ., ",
"y { | { o.8.;.| #.| #.| ;.| k ! / :.;.| ;.| | | ! [ k | o.>.F H H G >.o.| k [ ! | | | ;.| ;.:.| ! f | #.| o.| #.&.;.8.+.| | | y ",
"< [ | _ =.k.y.a.k.a.8.8.g.8.| | ;.g.8.a.8.8.8.8.8.7.[ &.+.o.0.N.F.9.#.+.| [ 7.8.8.8.8.8.a.a.a.=.| | 8.k.8.g.g.k.8.y.k.+.| | [ e ",
",  .+.| | ;.=.;.| ;.:.=.=.;.} | | ;.;.=.=.*.;.+.;.o.[ | | / =.z.n.=./ / | [ *.#.=.;.=.&.=.;.;.| | [ #.=.=.=.=.+.;.;.;.| / +.{ : ",
"y ..;.#.| &.| | W ~ / { | +.O.;.+.=.+.+.+.| +.~ ` | / o.o.| -.z.z.=.{ o.*.} | ` ~ #.+.| +.+.+.#.;.| | | { | ^ U | | +.| +.;.@.y ",
": Y { | [ ..[ | +.{ | O.| | @.+.+.o.| #.#.#.;.+.$.+.^ } [ ..&.l.l.+.o.[ } W +.-.| ;.#.$.#.| #.#.#.+.| | +.{ | o.| | o.[ { { Y : ",
"y { | o.| o.[ } o. .[ [ [ M [ [ | | { ..| } o.....[ ! o.3.3.| l.h.&.#.3.o.[ [ ....o...| ..[ | | } [ [ [ [ M [ o.[ [ o.X.o.o.[ y ",
"$ k m ! j j p p p r r a p > d k m j k p p > g g t t s j j Y j i.i.j R c j s p t a s > > p k m m d s > p g r r p p p j j ! j j ; ",
"i  ...| &.8.| ~ [ { ~ [ ~ [ Y | | :.| [ j ! ..| @.| U { | | &.l.l.&.| | [ Y { +.{ | [ j [ | :.| | f [ ~ [ ~ { [ ^ | 8.=.| o.[ y ",
"y R { / &.8.;.| ~ | | | | | Y { | 8.=.| | o.| | { [ j [ | | &.z.z.&.| | [ Y [ { | o.o.{ | +.8.| | j | | | | { ~ o.;.:.| ^ | E e ",
"y @.#.| =.8.;.| { | | | ~ ! j [ | y.+.| #.#.| | | { Y +.+.| ' z.z.=.| &.+.Y | | | | #.#.| +.y.~  .U [ { | | | { +.;.8.=.| #...y ",
": Y +.| | y.;.| #.;.#.+.| { U o.| g.+.| ;.+.| o.{ ~ Y +.$.| &.z.z.' | #.| f { | #.| +.#.+.+.g.+.{ Y | | +.+.;.#.| =.y.+.| +.! , ",
"y { ;.| =.g.;.+.{ | [ { ~ { f | | y.+.| | / ! | o.| f { #.=.;.V.x.;.=.#.| f { | | ~ ~ | | | k.| { j [ ~ | ~ { | | ;.a.;.| #.{ y ",
"y ..o.} | 8.=.| o.*.| ;.o.| j [ | k.:.;.;.=.#.;.*.| k ! { | =.z.z.=.| { Y k | *.:.| o.:.;.;.k.| { Y | | ;.| o.o.| *.a.| | o...y ",
"s [ o.o.*.a.8.q.8.8.7.7.7.7.| o.o.k.7.8.8.8.8.8.7.;.[ [ | | *.V.n.;.| } { [ ;.7.7.7.8.8.a.7.k.*.o.[ 8.8.7.7.8.7.g.8.a.*.o.o.{ y ",
"- h M m j ! f ! ! ! f m ! ~ s j f } j m ! ! ! k m ! k k j j ! 8.8.! m j j k [ j j ! ! m W m { k j s [ ! ! j m ! ~ d M j j R j - ",
"e ..| | #.| o.{ | { | | { | { ~ { { | =.~ | | ^ { ~ ^ W ! | o.V.V.o.| ^ ^ ^ [ { ^ | | { | | | { | ~ | ~ | | { o.| | | o.| | ..r ",
"e ..| | | { | | { [ @.| | +.{ | +.{ { | | o.| @.@.;.| | ~ +.-.x.v.-.{ ~ { o.$.+.@.| | O.+.[ { | | | | { | @.{ { | { { +.| | ..r ",
"> | o.| | { { / { { o.+.| +.| #.o.[ U { { { { { W { o.#.#.@.=.j.j.=.@.@.#.{ ~ n | { { { { ! { o.#.+.o.| o.+.{ { { ~ { | | #...: ",
": { +.| ~ { ! ! Y T ! Y Y Y Y { | { U ! Y ! j Y ! Y j [ | o.o.0.s.o.#.O. .j ! ! U j ! Y Y j { | { Y Y Y U ! T Y ! ! { ~ / o.{ : ",
"r o.;.| ;.w.| ~ { { o.[ { { R @.=.7.+.| | | | [ j Y Y | | x 0 7 7 0 x | | U Y T { | | { | | :.=.#.! [ [ [ O.{ { { | w.;.+.;.o.y ",
"e [ | | o.8.| } +.| o.{ | [ Y | | 8.| | | | | | ..o.Y / | 4.H I.U.J 4.*.| U o...| | | | | | 8./ { Y { | | @.| | [ | 8.o.| |  .: ",
"r [ ..| o.q.o.o.| o.| { o.[ f [ | a.&.| | o.;.o.| o.R { | >.H Y.Y.H >.| { Y o...o.o.| o.| *.a.| [ j [ o.| ..| | | o.q.o.| ..[ r ",
"$ x j j j *.j j m U j f j f > j ! *.j j j k j j d ! y h Y B G L L G B c j < M n m j d j j j ;.! h > f j d j ! m m j *.j j j x $ ",
"y ..o...#.8.;.| #.{ | [ ..{ T o.| 8.{ { { ~ | | o.{ T ..o.[ o.b.n.| { o...T { o.| | { | ~ | 8.+.@.j { o.{ | | #.| ;.q.o.o.o...e ",
"< [ | ~ | :.;.=./ / &.| =.+.f { | i.;.=.=./ =./ | | Y ~ | / =.x.c.&.^ | [ Y | | / =./ ;.=.=.8./ ~ f | =./ | / / =.;.:./ ^ | ~ < ",
"> [ ~ ^ &.a.g.g.g.a.g.8.g.7.W } | 8.:.:.k.8.g.a.8.:./ | | &.&.l.l.&.*.| | | :.a.a.g.a.k.8.:.8./ } W 7.k.a.g.a.g.g.g.a.&.^ { { < ",
"i ..o.{ } | | o.:.o.;.#.6.;.[ o.| ;.*.;.;.;.;.#.*.#. .[ ..o.;.n.V.*.o.| [ [ ;.*.o.;.;.;.#.*.:.[ o.[ ;.6.#.;.#.;.+.| | [ { o...i ",
", E O.@.| ;.| $.| { { | | | { o.{ $.o.| | | | | | | | { { #.:.S.S.;.;.{  .{ +.+.| | { | | | #.| #.{ ..| | | ~ / $.+.#.| o...E , ",
"1 { +.+.} ' W / +./ | / ~ ~ ~ | / | +.+.| $.=.+.+.+.+.| / &./ z.z._ | | { +.+.+.+.| +.+.+.+.| / | / ^ ~ / | | +.~ ^ / ^ +.#.| < ",
"< M [ } [ } [ ..! m M [ ! [ | } } [ | { [ [ ! j ! [ [ [ [ | | z.n.| | [ [ [ ! ! ! [ [ [ } | ~ [ } } [ [ [ M [ m  .[ } } [ [ [ > ",
"# w @ = = = # = 4 = = 4 = = = = @ @ 4 w @ = w = = = @ 4 = ; @ m M = = 4 @ = = ; @ ; w @ = 4 @ = = = @ @ 4 = = 4 = # 4 = = = w # "
};
