/* XPM */
static char *ZWFzdC4_[] = {
/* columns rows colors chars-per-pixel */
"64 64 216 2 ",
"   c #0E1B25",
".  c #111D26",
"X  c #131F29",
"o  c #1C1E2A",
"O  c #152225",
"+  c #15222B",
"@  c #19262E",
"#  c #1A2C2E",
"$  c #16262B",
"%  c #162635",
"&  c #1A2631",
"*  c #172A31",
"=  c #1C2A33",
"-  c #172838",
";  c #1A2B3B",
":  c #192639",
">  c #1E323B",
",  c #1D3132",
"<  c #22262B",
"1  c #25292C",
"2  c #2A2B2B",
"3  c #242827",
"4  c #222D34",
"5  c #212F39",
"6  c #2A2E31",
"7  c #2B3335",
"8  c #23333B",
"9  c #2B343A",
"0  c #243C3C",
"q  c #2D3A3B",
"w  c #243436",
"e  c #373736",
"r  c #393937",
"t  c #3B3B3A",
"y  c #31383C",
"u  c #403E3F",
"i  c #3E403D",
"p  c #1F3040",
"a  c #213242",
"s  c #2C3B43",
"d  c #283A44",
"f  c #333D44",
"g  c #333E49",
"h  c #2B4445",
"j  c #2D4B4B",
"k  c #2A4647",
"l  c #324B4B",
"z  c #384449",
"x  c #2C4752",
"c  c #334D52",
"v  c #3B4756",
"b  c #355353",
"n  c #3B5453",
"m  c #385956",
"M  c #36595A",
"N  c #3B5C5B",
"B  c #3A555A",
"V  c #305154",
"C  c #3F625E",
"Z  c #375E64",
"A  c #3D6263",
"S  c #3F6C72",
"D  c #46494A",
"F  c #454F58",
"G  c #475359",
"H  c #545A5A",
"J  c #61615F",
"K  c #4A5B62",
"L  c #555E64",
"P  c #426563",
"I  c #446C6D",
"U  c #486A68",
"Y  c #5A6669",
"T  c #4C736D",
"R  c #456D72",
"E  c #4B7473",
"W  c #4D7A7A",
"Q  c #497676",
"!  c #537D7B",
"~  c #567574",
"^  c #5C6E70",
"/  c #6C6C6A",
"(  c #656764",
")  c #6E716A",
"_  c #73746E",
"`  c #6C7A7B",
"'  c #687575",
"]  c #757671",
"[  c #7A7A75",
"{  c #7D7E7A",
"}  c #767974",
"|  c #666D71",
" . c #807F7C",
".. c #55807D",
"X. c #5C827B",
"o. c #7D817C",
"O. c #7F897F",
"+. c #81827D",
"@. c #868D7E",
"#. c #4D7D83",
"$. c #548382",
"%. c #5A8584",
"&. c #5D8A86",
"*. c #5C8B8A",
"=. c #568589",
"-. c #5D8C92",
";. c #578989",
":. c #628B88",
">. c #768583",
",. c #64928D",
"<. c #649492",
"1. c #699693",
"2. c #6B9A94",
"3. c #6C9C9A",
"4. c #669897",
"5. c #719C97",
"6. c #628F92",
"7. c #6FA19D",
"8. c #74A39D",
"9. c #74A7A4",
"0. c #79AAA7",
"q. c #7EB3B0",
"w. c #858681",
"e. c #8A8D85",
"r. c #89958B",
"t. c #949888",
"y. c #9A9F99",
"u. c #98A18C",
"i. c #9AA69A",
"p. c #A5A99C",
"a. c #B0B49A",
"s. c #85B2AB",
"d. c #84B4B2",
"f. c #88BBBA",
"g. c #91BDBA",
"h. c #A6A6A1",
"j. c #A8A7A3",
"k. c #ABAAA5",
"l. c #AEAEA9",
"z. c #A7A8A3",
"x. c #B1AFAB",
"c. c #ADB6A7",
"v. c #B2B2AD",
"b. c #B6BDAB",
"n. c #B6B6B1",
"m. c #BBBBB6",
"M. c #BEBEB9",
"N. c #B8B7B2",
"B. c #C0BFBA",
"V. c #93C1BC",
"C. c #B6C2AB",
"Z. c #BBC7B4",
"A. c #C6C9AD",
"S. c #C2CBB5",
"D. c #C3C2BD",
"F. c #C5CCB7",
"G. c #CAD3BB",
"H. c #D4D8BD",
"J. c #D0CAB2",
"K. c #E1DCBF",
"L. c #96C3C0",
"P. c #C6C6C1",
"I. c #C8C7C2",
"U. c #C7C8C3",
"Y. c #CBCAC5",
"T. c #CECDC9",
"R. c #D0CFCA",
"E. c #CFD0CA",
"W. c #CCD5C2",
"Q. c #D3D2CD",
"!. c #D5DCC5",
"~. c #D6D6D1",
"^. c #D8D7D2",
"/. c #D7D8D2",
"(. c #DBDAD5",
"). c #DEDDD8",
"_. c #E0DFDA",
"`. c #DEE2CB",
"'. c #DFE0DA",
"]. c #E4E6CD",
"[. c #E3E2DD",
"{. c #E9ECD5",
"}. c #E6E5E1",
"|. c #E8E7E2",
" X c #E7E8E3",
".X c #EAEAE5",
"XX c #EDEEE9",
"oX c #EDEDE9",
"OX c #F0EFEA",
"+X c #EFF0EA",
"@X c #EFF0EB",
"#X c #F1F2ED",
"$X c #F3F4EF",
"%X c #F2F2ED",
"&X c #F5F6F1",
"*X c #F7F7F5",
"=X c #F5F5F2",
"-X c #F7F8F3",
";X c #F7F8F3",
":X c #F9FAF5",
">X c #F9F9F7",
",X c #F8F8F6",
"<X c #F9FAF5",
"1X c #FBFCF7",
"2X c #F9F9F6",
"3X c #FAFAF8",
"4X c #FBFBF9",
"5X c #FAFAFA",
"6X c #FCFCFA",
"7X c #FDFDFB",
"8X c #FDFEF9",
"9X c #FDFDFD",
"0X c gray99",
"qX c #FDFDFE",
"wX c #FCFCFA",
"eX c #F8F7F3",
/* pixels */
"Q.T.R.T.R.Y.Q.Q.R.~.^.Y.(.(._._.).T.[.[.[.}.[.[.#X=X#X=X-XoX$X&X$X-X+X.X-X1X8X9X=X4X8X9X9X9X,X8X0X9X9X0X=X8X9X8X3X4X,X8X5X3X9X3X",
"D.m.D.D.m.m.B.B.D.D.Y.Y.R.R.R.R.T.T.T.Q.~.~.^.(.).[.[.|. X[.[. X.X[. X XXX$X$X+X#X#X=X=X=X=XeX,X3X,X,X#XXX#X=X$X=X*X-X=X:X,X,X=X",
"Q.I.Q.Q.D.D.D.D.Y.D.R._._.Q.Q.R.~.).(.}..X.X|..X[..X#X#X$X$X#X-X$XXX-X1X:X1X1X:X8X8X3X8X4X3X8X0X9X9X8X#XXXXX:X-X$X,X8X8X1X9X9X8X",
"Y.B.P.I.B.B.B.M.B.B.I.R.Q.R.R.Y.R.R.Q.).).[.).).[.|.oX.XoXoXoX#X+X.X#X$X&X-X-X*X:X,XeX,X,X,X3X4X3X3X,X=X#X#X:X=X#X,X,X,X3X,X,X,X",
"^.Q.Y.Q.Q.~.^.~.Q.Y.Y.Y.Y.R.R.R.T.T.T.R./. X.X.XXXXX+X$X-X-X,X,X&X3X1X3X3X3X:X3X0X4X4X4X4X9X0X9X9X3X8X9X8X3X9X3X9X9X9X9X9X9X9X8X",
"Q.Q.D.Q.Q.Q.Q.^.R.I.Y.Y.R.T.R.R.T.T.T.T.~.[..X XXXOX#X$X$X-X,X3X#X:X=X*X3X:X,X3X8X8X9X4X0X0X9X0X9X3X8X,X0X5X4X,X3X3X,X3X,X*X8X5X",
"T.Y.R.Y.R.Q.Y.D.D.D.R.Q.Q.~.(.^./.).(.).).}.).}.|. XoXoX+X#X#X.XXX=X=X:X*X3X3X3X3X,X,X4X4X4X8X3X3X3X3X:X3X,X8X9X4X4X9X3X8X9X3X0X",
"T.T.^.Q.Q.Q.R.I.T.D.R.~.~.(._._.).}._.}.}.}.(.}. XoX#X#X-X1X#Xe.{ .X3X1X,X1X9X1X4X4X4X9X8X4X9X4X8X4X,X$X4X3X9X8X3X0X8X,X3X3X3X4X",
"Y.Y.Y.Y.Y.U.I.I.I.D.Y.Y.Q.R.Q.Q.Q.E./.(.(./.).).[.[. X.X/.D.T.v.z.T.U.~.*X*X*X*X:X>X>X>X,X8X,X4X3X,X,X=X:X,X1X1X3X3X,X3X3X3X3X3X",
"(./././.(.Q./.~.^.(./.^.[.[.[.[.'.'..X+X+X+X@X XXX(.D.U.[.+X1X1X3X1X*X.XE.T.}.*X>X1XqXqX9X9X8X9X9X9X9X9X1X1X9X9X9X9X8X8X9X9X9X0X",
"Y.Y.Y.Y.Y.U.Y.Y.T.R.Y.Y.Q.Q.Q.Q.Q.Q./.'.(.'.E.m.D./.XX.XXXXX+X+X@X@XXX@X&X*X}.T.Y./.:X>X,X,X,X,X1X9X1X,X,X3X:X,X=X,X:X:X,X3X3X,X",
"R.Y.I.D.D.Y.T.Y.Y.Y.Q.Q.^.Q.~.Q./.Q.E.W.v.z.Z.)..X.X+X X X+XXXXX@XXX+X}..X&X.X#X>X Xm.T.$X1X1X1X1X1X8X,X,X&X$X-X-X,X1X1X,X,X5X3X",
"Q.Y.R.D.D.E.Y.T.T.T.Q.Q.(.^.F.( Y J J i J ( J ( ) ( / / / / / / / / / ( / / / / | / ) / D / ) | ) E.0X3X1X,X-X,X:X8X3X3X8X,X9X3X",
"^.T.Q.I.D.E.T.Q.T.Q.Q.Q.(.Q.x.2 > i i i 7 7 7 7 w 7 7 q h n z z n n n n z f q w 6 4 4 1 1 4 1 4 1 l.=X,X8X3X,X1X,X9X3X3X8X1X8X3X",
"T.I.R.I.P.Y.D.Y.I.T.Q.Q.~.M.e.2 > , 0 i k l l k h b P W %.,.<.<.%.%.T A j d , * * * * * * * * * 1 e.(.=X8X,X=X*X-X,X3X3X3X,X5X3X",
"~.R.T.Q.Q.Q.^./.Q.^././.T.v. .2 0 i j b l l k j b N A A A B M b V h d > > 8 0 > > > , > , > > > 1 { T..X,X3X1X:X3X8X9X9X9X3X9X9X",
"T.Y.Y.R.R.R.Q.Q.Q.Q.Q.^.U.l.{ 6 l j j C m m m b m c V V j x j V I ! W E #.:.#.E S A j k k k V j 6 #.R..X:X:X:X:X:X:X3X3X3X=X1XqX",
"Q.Y.Q.Q.D.D.D.R.(.(.(.[.E.N.w.2 k j m P U ..,.2.<.&.I A Z P E ..! %.,.1.1.,.! W T A A M N M M M 6 { J.|.3X1X=X1X3X&XqX3X:X3X:X:X",
"^.R.^.~.I.D.D.Q._._._.[.~.N.w.2 i b C U U T E ..! &.<.<.*.%.,.*.&.3.:.x 4 5 ~ <.;...Q Q Q Q Q I 6  .Y..X3XqX3X1XqX:X3X1X3X1X3X,X",
"Y.I.R.R.Y.D.T.R.~./.Q.Q.W.v.{ 2 b C C C C C U Q $.3.9.0.0.q.d.d.f.g.K f 4 o s 5.4.<.;.;.$.W Q I 9  .I.|.&X:X3X:X:X:X*X>X=X*X:X:X",
"Q.R.~.Q.~.Y._.[.[.[.)./.Q.N.@.6 b m b b C P I ..%.&.%.! %...! %.#.~ b K g a a 6.7.7.<.*.-.$.W S e  .U.oX*X3X1XqX8X8X3X1X1X3X9X1X",
"Y.Y.Y.R.R.R.R.Q.~.^.^.~.T.l.{ 2 m m C C C I T W ..W ! W ..$...$.! ! v g s d f :.9.9.9.q.9.3.4.$.9 { P.}.&X*X*X>X3X,X,X,X&X*X-X=X",
"^.Q._.(.Q._._.^./.Q.[.[.Q.p.o.6 T X...T T ! ! ! ! $.$.$.*.<.3.3.3.5.~ 8 s 9 N -.-.-.4.4.-.=.#.#.y  .I.}.1XqX:XqX9X3X9X9X3X9X1X:X",
"Q.R.~.Q.Q.~.~.Q.Q.Q./.(.Y.z.[ 2 b T X.,.&.&.,.<.<.,.<.<.<.2.9.0.0.8.5.g s d ~ =.$.#.#.$.#.R R #.9 { U.|.:X>X:X*X*X:X,X,X=X,X=X*X",
"~.~.Q.R.~.(.~.~.Q.(.(.^.E.v.{ 2 i 0 C 2.8.2.2.7.2.2.7.2.3.3.9.3.1.6.R 4 + + c =.-.#.#.#.#.Z #.#.u  .P..X4X4X8X4X3X9X8X3X3X3X3X9X",
"_._.~.~.(.(.)._.^.^.(.].Q.v.o.2 , k i ,.0.0.V.0.0.2.7.2.1.1.<.<.&.B @ X + + X U d.f.f.f.9.Z =.q.u #.P.oX9X9X8X,X1X9X3X8X9X3X3X0X",
"^.Y.R.Q.R.R.R.R.T.Q.Q.(.Y.v.o.3 , 0 , 0 ..8.9.,.T C 2.q.f.d.0.U = + + % + + & X % B -.9.-.Z #.d.f  .P.[.*X3X=X,X,X:X:X,X=X3X*X=X",
").Q.~.~.Q.~.Q.R.^./.).|./.M.+.2 , , , 0 C 8.8.A m m X.V.f.&.v + o + + + & & & + X X p 4.S Z S -.t  .T.[.1X9X*X8X8X,X3X8X=X8X1X,X",
"Q.Y.Q.R.Q.R.Q.Q.~.~./.(.T.v.+.2 # * # 0 k M *.S j V ..2.&.N = O o + + + + = + + X X X Z S x Z Z 6 { P.[.=X*X$X1X=X=X=X=X#X*X*X#X",
"/.Q.~.~.^.~.[.[.[.|.|.'./.m.w.2 # O # # , , 0 > i b C T E l + . . X X + + + + X       : x d v g 6 +.Y.oX:X3X,X8X8X8X,X0X9X9X9X8X",
"^.Q.Q.Q.~.~.(.(.(.(.'.(.~.m.+.3 O O O # O * O * m T ^ ' ` K + . . X + + + + + X       % a a a s 6 w.P.}.=X*X,X5X3X*X*X=X*X*X,X3X",
"Q.Q./.~.Q.(.(.~.).).(.[.E.v.w.2 O O O O O * O > j M C b d 4 . . . X X + + + + X       % a a p a 2 #.Y. X3X0X,X5X3X*X5X3X=X,X,X*X",
"~.R.^.~.Q./.(.~.[.).).[.Q.v.@.3 O O O * = d M ..1.5.! d 4 @   . . . + + + + + +   X     p p - p 1 { U.}.3X5X=X3X,X:X5X*X=X*X*X*X",
"Q.R.R.R.R.Q.Q.Q.Y.Q.Q.(.Y.k. .2 # * * w j b E 1.9.:.9 = 4 o   . . X . X + . +           - p p p 4 [ P. X,X3X3X*X:X,X*X*X*X=X,X*X",
"_.(.~.(._.^._._./.^.^.^.R.v.+.3 w h N X.s.g.g.s.1.x < = : + . . . . . + + + +           - - ; p 4 [ U.oX4X9X0X,X1X8X8X8X8X%X0X9X",
"R.R.Y.Q.R.~.^.Q.Q.R.R.~.G.l. .2 w h V U :.2.1.U 9 & = = = + .   . . X o + + + .         p - - p 4 [ B.}.=X=X=X=X=X$X=X=X#X#X=X=X",
"~.Q.Q.Q.^.)./.~.(.^.).[.Q.n.+.2 j U X.2.5.5.~ 5 + + = @ = + . . +   + + + X X           - - - ; 1  .U. X5X5X3X8X4X,X9X4XeX3X3X:X",
"R.D.T.R.Q.Q.Q.R.Q.R.Q./.Y.l.+.2 X.8.g.V.g.:.8 $ & & & + + + . .   +     O + + X         - - ; - 1  .D.}.=X=X,X,X*X$XeX$X%X%X%X%X",
"(.~.~.~.^.Q.(.(.(._._.Q.^.n.+.6 U ,.q.s.^ = = = = = = @ = = o .   + + + + + X   X   X - ; ; p p 1  .Y..X@X5X0X0X4X,X%X4X3X3X8X8X",
"~.~.~.Q.Q.R.~.~.Q.^.(.R.R.n.+.6 T X.! n @ = = + = = + 4 @ : : X . + + + + + + X     + - ; ; p p 1  .U. X@X*X,X=XeX=X#X,X$XeX=X$X",
"R.F.R.R.I.P.P.Y.R.R.Q.~.Y.l.[ 2 z 0 w = = 4 = @ @ = = = = = : & + + + $ + + + X . . & % - - p p 4 { P.).[.}.oX.X.XOX%X%XOX$XeX#X",
").R.(.(.Y.P.I.P.R.D.Q._.Q.l. .3 @ @ @ @ = 5 z 5 @ # 4 = : 5 : 4 + + & & + + + + X X % % - - - ; 1 { Y.~.)._.oX.X}.OXeX%X#X:X:X:X",
"T.P.P.T.P.P.P.P.D.D.Y.R.D.j.[ 2 < & H @.t.@.a.@.H F , 4 4 5 5 s ( t.p.r.` ' L f + + : % - - ; ; 1 [ B.(..X.XOX|..XXX#X#X%X|.#X#X",
"(.^.R.~.^.(.(._.~.R.Y.R.F.k.[ 3 < ] J.H.u.t.H.K.J.a.8 4 5 v ` H.{.{.].].!.{.{.{.].S.N.b.c.u.O._ e [ Y.|.3X3X3X=X3X:X=X:X3XeX4X8X",
"R.R.I.R.R.Q.R.R.Y.Y.R.Y.D.j.] 3 6 a.t.t.@.@.a.A.A.@.u.p.A.H.H.].`.!.W.G.i.F.F.Z.Z.C.F.Z.F.Z.A.H.D [ D._.%XOXOXOXOX.X.X.X.X.X$X$X",
"R.R.^.R.R.~.R.I.D.D.Q.Q.D.l. .2 t ) H H ) _ +.@.@.Y @.C.G.G.`.`.`.Z.r.` Y ' } #.` ` } #.>.>.5.r.t [ M.Q..X.X3X4X=XOX=X#XeXeX#XeX",
"R.Y.~.R.R.~.R.I.Y.D.R.~.D.x.+.2 7 D f D G } @.e.H J @.u.A.G.c.S.].{.{.W.U.S.y.' K v F K F v v G 6 [ m.Y. X{.%X#XOX.X#XOX#XOX.XeX",
"R.Y.Y.Y.Y.P.Y.Y.Y.Y.Y.D.D.k.] 2 = D y 7 y H G D F F G G Y ^ Y p.!./.S.C.b.S.G.W.G.c.z.i.l.C.C.z.i [ M.).|.oX%X#X=X=X.XOXOX.XOX.X",
"^.~.~.~.^.T.Q.^.^.~.Q.T.T.x. .2 + < g D f D f 4 4 4 5 f G G G L | | L L K Y ' '  .#.w.#.^ Y ^ ' e o.I.XX.X%X3X4X4X4X.X%X%X%X$X$X",
"P.B.B.B.B.B.B.D.B.I.I.I.B.p.] 3 @ @ @ = = + & & = = = = = d F z s g f s g g g v F F v v v v v v 6 [ M.Q._._._.}._._._.[._.[._._.",
"R.D.I.B.B.D.I.I.D.I.Y.Y.B.h. .3 @ + + @ @ & + = @ @ @ @ = @ & 5 4 5 5 4 5 5 s g v g g g d d d p 1 ] m.Q.}._._._._.|.|.|._.[.OX.X",
"R.B.T.D.B.I.Y.T.Y.Y.Y.Y.I.h. .3 @ + + + + @ & + & = & = & & @ $ X X X % + X X % o o p p p p - ; 1 ] Z./.|._._._.[.|.|.|.[.|.oX.X",
"R.T.R.B.B.Y.I.Y.I.I.T.J.I.j. .3 + X + + & + + + = & & = @ @ & = : X + & X X X X . : p p ; : ; - 1 ] B.Q.OX.X}.}.[..X|.[.[..XOXoX",
"Y.B.Y.B.B.D.B.I.B.I.Y.Y.B.j.] 2 X . + + + X o X + + @ + @ @ & $ & X X X X X X X : : : : ; p % ; 1 _ n.Q.}.[._._.[.|.[.[._._.|.[.",
"Y.I.P.Y.Y.Y.T.Q.T.R.R.R.B.j. .3 + & @ O X X . . X + + + + + & % + & X + X X X X % : : : : a a = < ] v.R._._._._.[.%XOXOXOX|.OXOX",
"I.B.B.D.B.B.B.B.I.Y.Y.Y.B.y. .3 1 1 < 3 @ < < < 1 < < < 1 1 1 1 1 < 1 1 < < < < < < 4 & 4 4 6 4 2 _ x.Y._._._.(.[.[.[._._._._._.",
"Y.I.Y.Y.B.x.B.I.R.Q.R.Q.I.j.w.u r e e e e e e e e e e r e r r r e e e e e r e e r r r r r r r r u  .x.T.[.|._.[.[._.[.[.[.[._._.",
"I.B.Y.T.B.B.x.I.R.R.R.Q.T.B.h.w.] ] ] ] ] [ _ _ ] ] [ ] ] ] ] [ [ ] [ { { {  .{  . .{ +.+.{ +.+.e.j.B.~..XoX[.|.[.[.[._._.[._._.",
"B.B.B.B.B.B.I.I.Y.R.I.I.Y.P.B.j.h.y.p.k.k.k.k.j.h.j.j.j.k.j.k.j.l.k.k.j.k.k.x.x.x.l.x.x.v.v.l.x.N.D.Q._._._._._._._._._.^._._._.",
"B.B.I.B.B.B.R.Q.Q.R.R.I.Q.R.Y.B.B.B.P.D.Y.Y.Y.D.P.I.I.I.Y.P.Y.I.Y.I.Y.P.Y.T.R.T.T.I.T.T.Y.R.Y.Y.^._.[.[._._.|.[.[..X[._._._._.[.",
"B.B.B.B.B.B.B.B.B.I.I.Y.T.B.I.Y.I.I.I.Y.Q.Q.R.Q.R.~.R.R.R.~.R.Q.~.R.Q.Q.Q.^.(.~.^.^.^._._.~.~.~.R.^.^.^._._._.[._._._._.Q.^.^.^.",
"Y.B.R.Y.I.Y.Y.I.I.B.Y.Q.R.B.I.R.Q.(.^.Q.^.^.Q.R.R.(._.(.(.).(._._.(.)._._._._._.|.[.(.[.|._._._.^._._.^.[.|._.oXoX[.|.oX_.[._._.",
"B.B.B.B.B.B.B.B.B.B.I.I.B.B.B.I.Y.Y.Y.Y.Y.R.R.R.R.Q.~.R.(.R.R.~.(.^.^.^.~.Q.(.^._.^.^.(._.^._.^.~.^.~.~._._._.[._.^._._.~.^.~.^.",
"B.Y.B.B.I.Y.Y.Y.B.I.I.Y.Y.Y.Y.T.R.Q.R.Q.R.~.^.^.^.^.R.~.~.(.^.R.~.(.^.^.~.R.~.)._._.[._.~._._.[._._._._._._._._._._._._.[._.[.|."
};
