/* XPM */
static char *bm9ydGgu[] = {
/* columns rows colors chars-per-pixel */
"64 64 224 2 ",
"   c #2D2D2E",
".  c #302F2D",
"X  c #36342D",
"o  c #2C2D36",
"O  c #302F36",
"+  c #2C393A",
"@  c #343332",
"#  c #393633",
"$  c #3A3935",
"%  c #3C3A3B",
"&  c #36363C",
"*  c #443C3B",
"=  c #493D39",
"-  c #593C33",
";  c #40382F",
":  c #6B3D36",
">  c #2A413D",
",  c #37443D",
"<  c #49443A",
"1  c #564738",
"2  c #5D563C",
"3  c #684B3A",
"4  c #73493A",
"5  c #685238",
"6  c #795836",
"7  c #70542B",
"8  c #6E603D",
"9  c #3E3B41",
"0  c #363947",
"q  c #373A56",
"w  c #2E3042",
"e  c #383B65",
"r  c #443D43",
"t  c #2E4548",
"y  c #344B4D",
"u  c #384645",
"i  c #39514E",
"p  c #384D52",
"a  c #3B5553",
"s  c #3D5955",
"d  c #395857",
"f  c #3F4266",
"g  c #3D4170",
"h  c #444144",
"j  c #4D4443",
"k  c #494749",
"l  c #534B43",
"z  c #544A4B",
"x  c #574A48",
"c  c #465348",
"v  c #5C5344",
"b  c #59534B",
"n  c #474856",
"m  c #554D58",
"M  c #435B55",
"N  c #485957",
"B  c #565459",
"V  c #664E43",
"C  c #724C43",
"Z  c #645244",
"A  c #695549",
"S  c #7C5A4C",
"D  c #785745",
"F  c #635B53",
"G  c #6A5A58",
"H  c #745D55",
"J  c #4A615A",
"K  c #566459",
"L  c #5D624E",
"P  c #7B624C",
"I  c #766448",
"U  c #6A6359",
"Y  c #7B665C",
"T  c #786758",
"R  c #706C54",
"E  c #474A68",
"W  c #4D506A",
"Q  c #5B5B6B",
"!  c #565666",
"~  c #4B4F72",
"^  c #645D65",
"/  c #605F71",
"(  c #5B6662",
")  c #6C6C6A",
"_  c #676466",
"`  c #746966",
"'  c #78746A",
"]  c #757671",
"[  c #7A7A76",
"{  c #7D7E7A",
"}  c #777773",
"|  c #756E73",
" . c #9E542E",
".. c #835939",
"X. c #9B5634",
"o. c #975029",
"O. c #A2532C",
"+. c #A85A39",
"@. c #A04F31",
"#. c #88673D",
"$. c #98693B",
"%. c #9A753B",
"&. c #AC6A3E",
"*. c #A7663B",
"=. c #B56A3D",
"-. c #B1753D",
";. c #9E4A1E",
":. c #855C45",
">. c #925B4A",
",. c #A65D42",
"<. c #8B654B",
"1. c #876849",
"2. c #986747",
"3. c #89754A",
"4. c #987648",
"5. c #846552",
"6. c #896B57",
"7. c #946B54",
"8. c #897559",
"9. c #967657",
"0. c #A46343",
"q. c #AB6C43",
"w. c #A76947",
"e. c #B16F44",
"r. c #AB7645",
"t. c #AD7B4C",
"y. c #A57648",
"u. c #B67747",
"i. c #A97B55",
"p. c #A26F50",
"a. c #826D66",
"s. c #8A7464",
"d. c #887867",
"f. c #947967",
"g. c #827E79",
"h. c #937D73",
"j. c #7F807C",
"k. c #B4863D",
"l. c #8C8458",
"z. c #988559",
"x. c #8E844A",
"c. c #B6864A",
"v. c #BA994A",
"b. c #AB8657",
"n. c #B48955",
"m. c #B79759",
"M. c #AD834B",
"N. c #98886A",
"B. c #9D906A",
"V. c #82827D",
"C. c #8B8574",
"Z. c #968873",
"A. c #8B8369",
"S. c #A88B68",
"D. c #BA9B67",
"F. c #A6926F",
"G. c #BEA06A",
"H. c #C29D62",
"J. c #C2A368",
"K. c #C19558",
"L. c #7E7E80",
"P. c #7C8081",
"I. c #848581",
"U. c #8B8B88",
"Y. c #9F9E9A",
"T. c #A4A49F",
"R. c #A8A7A3",
"E. c #ABAAA5",
"W. c #ADAEA9",
"Q. c #A6A6A1",
"!. c #B0AFAA",
"~. c #B2B2AD",
"^. c #B6B5B0",
"/. c #BBBBB6",
"(. c #BEBDB8",
"). c #B7B7B2",
"_. c #AFB1AB",
"`. c #AA9A81",
"'. c #C0BFBA",
"]. c #C3C2BD",
"[. c #C6C6C1",
"{. c #C8C7C2",
"}. c #CBCAC5",
"|. c #CECEC9",
" X c #C7C8C3",
".X c #D0CFCA",
"XX c #CFD0CA",
"oX c #D3D2CD",
"OX c #D6D6D1",
"+X c #D8D7D2",
"@X c #D7D8D2",
"#X c #DBDAD5",
"$X c #DEDDD8",
"%X c #E0DFDA",
"&X c #DFE0DA",
"*X c #E2E2DD",
"=X c #E6E5E1",
"-X c #E8E7E2",
";X c #E7E8E3",
":X c #EAEAE5",
">X c #EDEDE9",
",X c #F0EFEB",
"<X c #EFF0EA",
"1X c #EFF0EB",
"2X c #F1F2ED",
"3X c #F3F4EF",
"4X c #F2F2ED",
"5X c #F5F6F1",
"6X c #F7F7F5",
"7X c #F5F6F2",
"8X c #F7F8F3",
"9X c #F7F8F3",
"0X c #F9F9F7",
"qX c #F9FAF5",
"wX c #F9FAF6",
"eX c #FAFAF8",
"rX c #FBFBF9",
"tX c #FAFAFA",
"yX c #FCFCFA",
"uX c #FDFDFD",
"iX c gray99",
"pX c #FCFDFE",
"aX c #FCFCFA",
"sX c #F8F7F3",
/* pixels */
"oX|..X|.|.{.oXoX|.OX#X{.#X%X#X%X%X|.*X*X*X*X*X*X4X4X3X5X8X>X3X3X5X8X2X;X8XqXyXuXqXrXyXiXuXuXqXiXiXiXuXiX5XyXuXrXaXrXqXrXiXiXrXrX",
"]./.].].(.(.'.'.].].{.}..X.X|.|.}.|.|.oX@X+XOX#X%X*X*X*X;X*X*X;X;X*X;X;X<X3X3X2X2X2X5X5X7X3X8X6X0X0X5X7X>X4X5X5X5X5X5X5X9XqXqX5X",
"oX{.oXoX].].].].}.]..X%X%XOXOX|.OX$X#X*X:X:X*X;X*X:X3X4X3X3X2XsX3X>X8XqX8XyXqXqXyXyXqXuXrXrXyXiXiXuXiX3X>X>X8X5X5XqXyXaXrXuXiXiX",
"}.'.[.{.'.(.'.'.'.'.{.oXoX|.|.}..XoXOX#X*X*X*X*X*X-X>X>X>X>X>X3X2X:X2X5X5X8X8X8X8XqX6XqXqX0XqXrXrXqXqX7X4X5XqX5X4X6XrX6X6X6XqXrX",
"OXoX}.oXoXOXOX+XoX}.}.}.}..X.X|.|.|.}.oX@X;X:X:X2X>X2X3X8X8XqXqX5XrXqXrXrXrXrXrXrXuXrXrXrXuXiXuXiXrXrXiXyXrXuXrXrXiXuXuXuXuXuXyX",
".XoX].oXoXoXoXOXoX].}.}.|.|..X.X.X}.|..XoX=X:X;X>X,X<X3X3X8X8X8X5XqX5X6XqXqXqXrXrXrXyXrXiXiXuXiXiXrXrXrXiXrXrXqXrXrXqXrX6X6XrXiX",
"|.}.oX}..XoX}.].].].|.oX.XOX#X#X+X$X#X#X&X*X#X=X*X;X<X>X<X3X2X:X:X5X5X6X6XqXrXqXrXrXqXrXqXrXrXrXrXrXqXqXrXqXyXuXiXrXuXrXrXyXrXrX",
".X|.OXoXoXoX.X{.}.].|.OXOX%X%X%X%X=X*X;X;X;X#X;X;X>X2X4XsXrX2XU.{ :XrXrXqXyXrXrXrXrXrXyXyXuXuXrXrXrXqX4XrXrXyXrXrXrXrXqXrXrXrXaX",
"}.}.}.}.XX].}.].}.}.}.}.oX.XoXoXOX|.OX#X#X#X#X$X*X*X;X:X@X[.XX_.R.|. XOX6X6X6X6X6X0X6XrXrXqXrXrX6XrX6X5X9XqXaXaX6XrXqXrXrXqXrXrX",
"#X+X+X#X#XoX@X@X+X+X+XOX*X*X*X*X*X#X:X>X>X>X1X;X>X#X X X*X<XqXqXaXaX6X;X.X|.=X6XiXiXiXiXuXuXrXuXuXuXuXuXaXuXuXuXuXiXuXuXuXuXiXiX",
"}.{.}.}.}.{.}.}.}.|.|.|.OXoXoXoXOXOX#X#X$X$X|./.].@X:X>X<X:X<X<X1X2X<X1X5X6X=X|. X#X0XrXqXrXqXyXuXrXrXqX9XqXqXqX6XqX6XqX6XrXrX6X",
".X}.].].].XX}.}.}.|.|.oXOXoXOXoX+X.XOX.X_.R.[.#X>X;X<X;X:X<X>X>X1X:X1X=X;X5X>X4XtX=X(.}.4XqXqXqXrXrXaXqXqX5X2X9X5XqXqXqXqX6XiXrX",
"OX}.|.].].XX}.XXXXXXXXoX#XOX].U _ _ K k K _ _ _ ) _ ) ) ) ) ) U ) ) ) _ _ ) ` ) ) ) ) ) z ) ) ) ) oXyXqXqXqX9XqX6XiXrXrXqXrXuXrX",
"OX|.oX}.].oXXXoXXXoXoXoX#XOX_.. v 3 3 V V 3 Z v Z Z v 5 C Z 1 1 < 1 2 v Z Z A Z Z F Z Z b 1 1 l @ E.5XrXaXaXqXqXqXrXrXrXyXqXaXrX",
"oX].|.}.].}.].{.].|.oXoX@X/.U.@ f.s.` a.6.6.7.4.8.8.5.:.1.......#.$.%.%.4.l.N.z.z.z.B.z.l.z.x.I @ U.#X5XrX6X9XqX6XqXqX0XrX6XrXrX",
"OX|.}.oXoXoX+X+X@X+X@X@XXX_.j.@ 8.2.>.5.6.7.7.1.4.2.2.1.<.1.4.2.$.$.#.$.$.*.%.4.4.y.y.$.y.y.4.<.# { }.:XqXqXaX6XrXaXuXuXuXrXuXiX",
"|.}.|.|.|.|.oXoXoX@XoX@X{.W.j.@ N.6.2.p.7.w.2.2.2.$.2.4.b.t.t.c.M.M.w.y.y.y.y.%.%.%.%.y.y.p.p.4.# {  X;XqXqX6XqXqX6XaXaXqX9XrXaX",
"OX}.OXoX].].].|.#X#X#X*XoX^.j.@ 9.+.+.O.@.@.O.@. .X. . . .*.q.&.q.u.-.u.u.c.c.u.-.%.-.-.e.u.i.S.$ L. X;XqXaXqXaXaX9XaXqX9XaXqXqX",
"+XoX+X+X].].].OX&X&X&X*X@X^.V.@ p.,.,.,.e.e.e.t.t.t.r.r.&.&.&.&.&.&.&.e.r.r.u.i.y.q.q.q.w.*.2.7.$ L. X;XaXyXaXuXyXaXaXyXqXaXrXqX",
"}.].|.|..X].}..XoX#XoXoX}.~.V.X 7.0.t.i.t.i.i.i.i.i.y.$.$. .o.O.O.+.*.e.u.c.c.u.u.-.=.=.w.,.,.2.$ {  X;X9X6X6XqXqXqX6X6X9X6XqX6X",
"oXoXoXOXOX].*X*X*X&X$X#XoX).j.@ 7.,.,.>.p.0.p.p.w.X.;.;.O.O.*.u.n.D.H.J.H.J.G.J.J.J.D.D.K.c.=.2.# g. X:X6XiXaXaXuXyXrXrXaXaXaXyX",
"].|.].|.oX|.oXOX@X@X@XoXXXW.j.. Z.Z.i.p.w.w.w.q.w.y.i.b.m.F.D.D.D.H.J.J.H.K.n.c.u.u.u.u.n.n.D.b.% g.[.=X5X7X9XrXqX6X5X6X5X5X9X5X",
"%XoX#X%XoX%X%XOX@XoX&X&XoXT.j.  Z.`.F.F.S.S.b.n.b.n.b.m.b.m.m.D.D.K.n.u.u.=.=.&.q.y.w.w.0.0.0.9.$ g.}.=XrXaX6XiXuXrXiXuXqXuXqXqX",
"oX|.OXoXoX+XOXoXoXXX@X&XXXQ.j.. F.S.u.&.0.,.,.,.+.,.+.+.w.y.u.u.e.e.e.u.u.n.m.m.m.m.n.m.n.y.2.>.$ g. X;X6XaX6XrXqX6XrXqX6XqX6X6X",
"+XOXoX.XOX#XOXOXOX#X#X+XXX^.j.@ f.,.,.0.p.i.i.b.c.b.t.u.u.e.e.r.e.i.b.m.v.v.v.n.t.M.4.i.9.8.8.9.& {  X:XrXyXuXrXrXyXrXrXrXqXrXrX",
"%X%XOXOX#X#X%X#X+X+X#X*XXX^.j.  7.,.i.S.c.u.-.*.-.k.c.c.v.m.m.m.v.v.v.k.$.4 z n E E f e f E W Q # L.[.:XyXyXyXqXqXuXyXrXuXrXrXuX",
"OX}..XoX.X.X.X.X.XoXoX#X}._.j.@ 7.n.7.V k n N ! Q B G S :.:.$.1.D D m E e e e q e q e E f g f N @ {  X*X6XrX5XqXqXqXqXqX5XqX6X5X",
"*XoXOXOXoXOXoXoXOXOX*X*X@X/.I.X 8.G B m N B Q B N E E E ~ g E W W W ~ ~ ~ E e q 0 w w 0 n m f B # P.}.*XyXyX6XyXyXqXyXyX6XyXrX6X",
"oX].|.XXoXoX|.oXOXOX@X#XXX_.j.@ d._ ' _ | | j.' ' ' ' ' A.A.C.d.) / Q / W m n g q w O w & p n _ & { [.*X5X6X5X9X5X5X5X5X4X6X5X4X",
"+X+XOX+X+X+X*X*X*X*X*X*X#X/.V.@ d.E ^ ! Z.B.C.Z.N.N.C.C.A.Z.C.| ) Q / W E ~ E W E p q 9 r m n ) $ j.|.:X6XrX6XyXuXiX6XiXuXuXuXuX",
"+XoXXXoXOXOX#X#X$X$X$X#XOX/.C.@ ` E m n m.B.Z.Z.V.P.I.V.V.B.Z.B.N.' ` m Q Q n n n n k h m k ( ( & L. X=X5X6X6XiXrX6X6X7X6X6X6XrX",
"OX|.+X+XoX#X#X+X*X#X#X*XXX~.V.X U m m W F.B.C.Z.C.C.C.V.j.} ) L n n 0 q q p 0 0 9 r n n j B ( N @ L. X=XiXiX6X6XrX6XtXrX5X0X0X6X",
"+X|.+X+XoX#X#XoX&X&X#X*XoX~.V.@ 6.b ^ ^ a.H ^ ~ W W W E p 0 0 0 q q w p 0 w w w w r l c J J s B % P. X;X0XiX7X0X0X6XaX0X1X6X0X7X",
"oX|.|.|.|.oXoXoXXXoXoX#XXX_.[ @ T G F / f.m Y ~ E e e e e W ' ' U 0 0 q o o w 0 u i p p d d J K $ [ [.=X0XrX0X6X6XqX6X6X0X5X0X6X",
"*X#XOX#X#X#X#X*X#XoX#X@X}.~.{ . U Y G _ f.5.x G ^ ~ e e ! ' l.l.b.8.0 w o & & i y i t i d d ( K & [  X>XrXiXiX6XaXaXyXiXrX7XuXuX",
"|.|.}.oXoXOX+XoXoX|.oX@X{.W.{   Y S.5.T _ s.G m m H m E _ l.l.x.z.N.m o 9 % t t y y i d J M J K $ [ ].*X5X6X5X5X5X3X5X5X4X1X5X5X",
"+XoXOXoX+X*X+X+X#X+X$X*XoX~.I.@ T S.S 5.C ^ a.G F m H H ) l.z.x.z.z.U o * 0 t i y J y s s s J ( $ j. X;XiXiX0XiXiX6XiXqX6XrX8XrX",
"|.].}.|.oXoXoX|.oX|.oX#X}.~.V.@ U f.6.5.C ` H ` G m G S d.l.z.x.l.N.z 0 9 y t y t d y s d s J ( $ j.[.&X5X5X6X0X7X7X7X7X3X4X4X2X",
"#X+X+X+X+XoX#X#XOX*X*X|.oX~.V.@ G D s.6.C 5.` Y 6.m A S ` 8.x.3.x.8.h 9 r y y t t d d s d M J R $ j.}.>X1XiXiXrXrXqX3XrXrXrXqXqX",
"@XoX+XoXoX|.+XoXoX#X%X}.oX~.{ . ^ C :.5.S :.6.^ Y D b 3 T R R x.N.U k r * u i t t i s d d J J K % j. X;X>X6X6X6X7X8X4X8X5X5X8X8X",
"}.{.oX|.{.].}.}.|.|.OXOX}.E.{ @ Y C 5.7.S C <.` ^ :.H Z Z G ` z.8.8.Z k = u n t t y d d M M J K $ j.[.#X*X*X>X:X:X,X3X,X,X5X5X4X",
"#XoX#X#X}.{.}.].}.{.OX%XoX!.{ . ` C 6.7.P C : 6.^ H S = k T F 9.B 8.6.I 1 * i a y t a s s M M L $ P. XOX%X*X:X:X=X,X8X3X4XqXqX8X",
"}.].{.}.].].{.].].].}.|.].E.} . Y D 9.8.5.5.- :.8.H A r l A k F z z b P <.I c M a i i N s i i L $ [ ].#X:X:X,X-X>X,X,X4X3X-X3X,X",
"#X#X|.#X#X#X#X*X+X.X}.|.].E.} @ Y 4 5.7.7.5.: : 7.f.m r l r k z l F z v V <.3.1 u y s J K s s J % [ {.:XqXrXrX7X0X6X5XqXrX8XyXuX",
"|.|.}..XoXoXoX|.}.}.}.}.].R.[ . T D <.9.:.5.S : :.7.j x r r x r < b x n < b 5.b.3.c i i N M i K $ [ '.%X3X,X,X,X,X:X:X:X:X-X3X5X",
".X|.OXoXoXOXoX].{.].oXoX].W.{   G <.<.9.:.:.5.: 4 C x x r * r r r z l A u u b T 7.4.I i s t i L $ [ (.OX:X-XqXrX7X,X8X3X8X8X,X8X",
"|.|.OX|.oXOXoX].{.'.|.oX].!.V.@ F 1.<.9.<.D 7.4 : - x r r ; * = r Z b 1.V u 9 b Y 1.4.4.v t y J # [ /.}.-X-X3X3X,X:X,X,X,X,X,X7X",
"|.}.}.}.}.].}.}.}.}.|.{.].E.} . U 8.7.s.9.D S :.: r r 9 r r r # x D x D ..7 u 0 z T P <.4.I c L # [ (.#X-X>X,X4X7X7X:X,X,X:X,X:X",
"+XOXOXOX+X}.oX+XOXOX+X.X}.!.g.. F S f.f.Z.6.D 6.4 - O 0 * 9 & . A l l 1 6 ..5 < * V L I 3.#.3.R # j.}.:X,X4XqXqXqXyX,X3XsX,X4X4X",
"].].].'.'.].].].].].}.].'.Q.} . U S f.f.h.f.:.f.:.4 = & # 9   O 3 8 v > < 1 7 7 1 3 u , I 3.3.3.$ ] (.@X*X*X*X*X*X*X*X*X%X*X*X%X",
".X].].].'.].}.].].}.}.}.[.R.} . G D f.f.Z.Z.7.f.9.D & r # r   # 1 7 6 < + = 1 ..6 3 i > t 2 3.x.@ ] /.@X*X*X#X*X#X*X-X*X*X*X,X*X",
".X].}.].'.}.}.}.}.}.}.}.{.R.[ . F :.f.s.f.Z.h.s.Z.9.r j % % . 1 3 - 7 7 , + < 1 4 3 1 > > > c 3.$ ] /.@X*X*X%X*X*X-X,X*X*X*X,X>X",
"oX}.|.].'.}.}.}.{.}.}.{.{.E.[   F P f.a.6.h.h.d.Z.f.k b b h @ 5 I V 3 7 7 , > , 1 4 ..1 > > , c @ ] /.@X<X;X*X*X*X>X*X*X*X-X,X,X",
"{.].{.].'.].'.].].{.}.}.].T.} . F A s.s.5.f.U.a.d.B.z z G b ; 2 3.3.5 7 7 7 > , 1 3 #.#.5 , t , X ) ^.oX*X*X%X*X*X:X*X*X*X*X*X*X",
"}.].].}.}.}.|.oX}..X.X.X].R.} . b G A d.a.a.C.f.s.Z.Y m U H P 6.8.z.4.1.7 ..2 < 2 5 3.3.#.8 u , @ ] ~.oX*X#X*X*X*X4X,X,X,X*X4X,X",
"{.].].].'.'.'.].{.}.}.}.'.T.}   l ; < l l l < l x b v < = < l < 1 1 1 < < X < ; , X $ X X X X $   ] W.}.%X*X#X#X*X*X*X*X*X%X%X*X",
"}.].}.}.(.^.).{..XoX.XoX{.E.V.* @ # # # & @ # # # # & # # & # # $ @ # $ $ $ % @ # % $ % % # $ $ = g.~..X-X-X%X*X*X*X*X*X*X*X%X*X",
"}.].}.}./.).).{..X.X.XOX|.(.R.I.} } ] ] [ [ ) ] ] ] ] ] ] } ] [ [ } [ j.[ j.j.[ V.g.[ V.I.[ V.V.U.R.'.oX-X-X*X-X-X*X*X*X%X*X%X%X",
"'.'.'.].'.'.].{.}..X}.].}.[.).E.T.Y.R.R.R.W.E.R.Q.R.R.R.E.R.E.E.W.W.E.R.W.W._._.~.!.~.~._._.W.~./.].oX%X%X%X%X%X$X*X#X%X#X#X%X%X",
"].'.{.].{.'..XoXoX.X|.{.oXoX}.].]./.[.[. X}.}.].[.}. X X}.[.}.{.}. X X]. XXX|.|.}.}.}.}.|.|.}.}.OX%X*X*X%X%X-X-X*X-X*X%X%X%X%X%X",
"'.'.'./.'.'.'.].].].{.}..X].{.{.{.{.{.{.oXoX|.oXXXoXoXXXoXoX.XOXoXoXoXoXoX@X#XOX+X%X+X%X%X+XOXOX.XOX+X+X%X%X#X*X%X#X%X#XoX+X+X+X",
"}.].}.}.{.}.}.{.[.]..XoXoX(.{..XoX+XOXOX#XOXoX.XXX#X&X#X#X$X+X%X*X#X$X*X$X&X*X$X*X-X+X*X-X%X#X%X+X%X%X+X-X-X%X:X:X-X:X:X*X*X#X%X",
"/./.'.'.'.'.'.].'./.].{.]./.].{.}.|.}.}.}.|.oX|.|.oXOXoX+XoX.XOXOX+XOX+XOXoX#XOX#X+X+X%X%X+X%X+XOX#XOXOX%X%X%X*X%X#X%X%XoX#X+X+X",
"{.{.].].{.}.{.}.].{.}.}.}.}.}.}..X.XoXoX|.OX#XOX#XOXXXoX+X+XOXoXOX#X+X+XOX|.OX$X%X%X*X%XOX%X%X*X*X%X+X*X*X%X%X%X%X%X%X*X*X*X*X-X"
};
