/* XPM */
static char *c291dGgu[] = {
/* columns rows colors chars-per-pixel */
"64 64 242 2 ",
"   c #3B2D1E",
".  c #2C2C2C",
"X  c #2A2724",
"o  c #342D2C",
"O  c #352D26",
"+  c #34312E",
"@  c #3B3328",
"#  c #2B2C35",
"$  c #342E31",
"%  c #2D3136",
"&  c #353433",
"*  c #393936",
"=  c #3A3838",
"-  c #2F312D",
";  c #1C1618",
":  c #453729",
">  c #473837",
",  c #503532",
"<  c #6E3239",
"1  c #4E4838",
"2  c #6D5238",
"3  c #785739",
"4  c #6D4C2E",
"5  c #70653B",
"6  c #27314B",
"7  c #35364F",
"8  c #2A376C",
"9  c #4E3B47",
"0  c #733A44",
"q  c #6E3847",
"w  c #433D68",
"e  c #3A4751",
"r  c #2A5963",
"t  c #494846",
"y  c #594845",
"u  c #575749",
"i  c #595B5B",
"p  c #4F4956",
"a  c #7B4549",
"s  c #695848",
"d  c #775B45",
"f  c #794B52",
"g  c #645955",
"h  c #7A595A",
"j  c #664C52",
"k  c #5B6357",
"l  c #517850",
"z  c #7A634A",
"x  c #69665A",
"c  c #756958",
"v  c #707556",
"b  c #545268",
"n  c #6B596E",
"m  c #566C68",
"M  c #54746C",
"N  c #6C6C6B",
"B  c #676664",
"V  c #786966",
"C  c #767569",
"Z  c #757672",
"A  c #797A76",
"S  c #7D7E7A",
"D  c #777973",
"F  c #6C766F",
"G  c #86343C",
"H  c #855839",
"J  c #975732",
"K  c #A9562D",
"L  c #88613B",
"P  c #976438",
"I  c #9A6831",
"U  c #A86836",
"Y  c #B26B3B",
"T  c #A7753C",
"R  c #B6763A",
"E  c #AF682B",
"W  c #A3541B",
"Q  c #D56C35",
"!  c #CB7331",
"~  c #E37735",
"^  c #883C46",
"/  c #A53C40",
"(  c #87454A",
")  c #865B46",
"_  c #874A52",
"`  c #9A4C54",
"'  c #885657",
"]  c #96585A",
"[  c #96474A",
"{  c #AB504F",
"}  c #846749",
"|  c #986B46",
" . c #997748",
".. c #876A59",
"X. c #94615C",
"o. c #9A7858",
"O. c #897456",
"+. c #A87A47",
"@. c #B67946",
"#. c #A96F52",
"$. c #8C5C64",
"%. c #A65C63",
"&. c #B05E62",
"*. c #846765",
"=. c #966566",
"-. c #9A7866",
";. c #876675",
":. c #986B76",
">. c #847C79",
",. c #8D766D",
"<. c #A66868",
"1. c #AA7676",
"2. c #B4797A",
"3. c #B26F6A",
"4. c #CE7749",
"5. c #C76C6E",
"6. c #C65459",
"7. c #59825B",
"8. c #6C885E",
"9. c #778469",
"0. c #7B8379",
"q. c #6D8A6F",
"w. c #B3813E",
"e. c #C3843A",
"r. c #968D5B",
"t. c #AB834B",
"y. c #B8874A",
"u. c #AC8654",
"i. c #B78A55",
"p. c #BA9558",
"a. c #A39C58",
"s. c #95836A",
"d. c #81827E",
"f. c #898A7B",
"g. c #988878",
"h. c #8B9577",
"j. c #97947A",
"k. c #908E6B",
"l. c #A78866",
"z. c #B68C66",
"x. c #B69766",
"c. c #A68878",
"v. c #B68B77",
"b. c #A7957A",
"n. c #B79876",
"m. c #A7946C",
"M. c #96A46E",
"N. c #B4B070",
"B. c #B1AB5D",
"V. c #C38C4A",
"C. c #C48843",
"Z. c #C49757",
"A. c #CC8D53",
"S. c #C9A15B",
"D. c #C69A66",
"F. c #C98F6F",
"G. c #C9A569",
"H. c #CDAC72",
"J. c #7C7386",
"K. c #5E6488",
"L. c #926D85",
"P. c #A9778A",
"I. c #8A5A80",
"U. c #778B83",
"Y. c #7AA387",
"T. c #868783",
"R. c #988782",
"E. c #899689",
"W. c #9A9584",
"Q. c #9B9C96",
"!. c #859995",
"~. c #AC9C83",
"^. c #A69987",
"/. c #B79A86",
"(. c #B38B8A",
"). c #92A38A",
"_. c #AAA38B",
"`. c #B7A68A",
"'. c #AAA798",
"]. c #B6AA94",
"[. c #B8B795",
"{. c #ACB48D",
"}. c #96AEA2",
"|. c #ABAAA5",
" X c #AEAEA9",
".X c #A7A6A2",
"XX c #B0AFAB",
"oX c #B2B2AD",
"OX c #BCB7A6",
"+X c #B5B5B0",
"@X c #BBBBB6",
"#X c #BEBDB8",
"$X c #B8B7B2",
"%X c #ACB6A8",
"&X c #8D9AA3",
"*X c #C19182",
"=X c #C4B798",
"-X c #C4A88E",
";X c #C0BFBA",
":X c #C4BDA6",
">X c #CCC494",
",X c #C8C4A7",
"<X c #C3C2BD",
"1X c #D2CAB3",
"2X c #C6C6C1",
"3X c #C8C7C2",
"4X c #CBCAC5",
"5X c #CECDC9",
"6X c #C7C8C3",
"7X c #D0CFCA",
"8X c #CFD0CA",
"9X c #D3D2CD",
"0X c #D6D6D1",
"qX c #D8D7D2",
"wX c #D7D8D2",
"eX c #DBDAD5",
"rX c #DEDDD8",
"tX c #E0DFDA",
"yX c #DFE0DA",
"uX c #E2E2DD",
"iX c #E6E5E1",
"pX c #E8E7E2",
"aX c #EAEAE5",
"sX c #EDEDE9",
"dX c #E7E8E3",
"fX c #F0EFEA",
"gX c #EFF0EB",
"hX c #F1F2ED",
"jX c #F3F4EF",
"kX c #F2F2ED",
"lX c #F5F6F1",
"zX c #F5F6F3",
"xX c #F7F8F3",
"cX c #F7F8F3",
"vX c #F9F9F7",
"bX c #F9FAF5",
"nX c #F9FAF6",
"mX c #FAFAF8",
"MX c #FAFAFA",
"NX c #FCFCFA",
"BX c #FCFCFB",
"VX c #F8F7F3",
/* pixels */
"9X5X7X5X5X3X9X9X7X0XeX3XtXtXeXtXtX7XuXuXuXuXuXuXkXkXjXxXlXsXkXlXlXxXkXdXxXNXmXNXlXmXBXBXBXBXbXBXBXBXBXBXxXmXBXmXmXmXcXmXBXBXmXmX",
"<X@X<X<X;X@X;X;X<X<X3X3X7X5X5X5X4X4X5X9XwXqX0XeXtXuXuXuXaXuXuXdXdXuXuXaXgXjXkXkXkXkXlXlXzXlXlXvXmXvXvXlXgXgXlXlXlXcXcXcXcXmXcXvX",
"9X3X9X9X<X<X<X<X4X<X9XtXtX0X0X5X0XrXeXuXaXdXiXiXuXsXjXkXjXjXhXxXlXgXxXnXxXNXNXxXNXNXbXBXBXmXmXBXBXBXmXlXsXgXxXxXlXmXBXmXvXBXBXmX",
"4X;X2X3X;X#X;X;X;X;X3X7X9X7X7X3X9X9X0XeXuXuXuXuXuXuXsXsXgXaXsXjXgXdXkXlXjXxXxXxXbXbXbXmXmXvXmXmXmXvXvXlXkXlXcXxXgXcXmXcXvXvXmXmX",
"0X9X4X9X9X0X0XqX9X5X4X4X4X9X5X5X5X5X4X9XwXiXaXaXhXsXgXlXlXxXbXnXlXmXmXmXmXmXnXNXmXBXBXmXBXBXBXBXBXmXBXBXBXBXBXmXBXBXBXBXBXBXBXBX",
"9X9X<X9X0X9X9XqX7X<X4X4X5X5X5X7X5X5X5X7X0XiXaXaXsXfXgXjXjXxXxXnXlXcXlXcXmXnXnXmXNXmXNXmXBXBXBXBXBXmXmXmXBXBXmXmXmXmXmXmXvXvXmXBX",
"5X4X7X4X5X9X3X<X<X<X5X9X9X9XtXqXwXrXeXrXyXyXrXyXuXdXgXgXgXkXkXsXsXkXxXxXcXmXnXmXmXmXbXNXNXNXNXmXBXmXvXcXmXnXBXBXBXmXBXmXBXBXmXBX",
"7X5X0X9X9X9X7X3X5X<X5X0X0XtXtXtXyXiXyXiXdXdXeXiXaXaXkXkXxXmXkXT.S dXmXmXbXNXNXnXNXmXmXBXNXBXBXNXmXBXcXkXmXmXNXNXmXBXmXnXmXmXvXBX",
"4X3X4X3X4X6X3X3X1X3X4X4X8X9X9X0X0X9X0XeXeXeXrXrXuXiXdXaXwX2X5XoX|.5X6X0XvXzXcXcXvXvXvXvXmXnXbXNXmXmXbXlXcXmXmXmXmXmXmXmXmXmXmXmX",
"eXwXeXeXeX9XwXwXqXqXeX0XuXrXtXyXuXrXdXgXgXsXgXdXsXeX6X4XyXgXmXnXmXmXcXaX9X5XiXzXmXBXBXBXNXNXNXBXBXBXBXBXBXBXBXBXBXBXBXBXBXBXBXBX",
"4X4X4X4X4X3X4X4X5X5X5X5X0X9X0X0X9X9XeXrXeXyX8X@X<X0XaXaXsXsXhXgXsXlXgXgXlXcXiX8X6XeXvXBXmXmXmXmXBXBXnXmXbXmXbXcXcXcXcXnXcXmXBXvX",
"7X4X3X<X<X4X4X4X3X5X5X9X0X9X0X9X0X9X9X9XoX'.<XeXaXdXgXdXdXgXsXsXsXsXgXiXdXlXsXkXMXiX@X5XkXmXxXxXmXBXmXbXbXlXlXlXcXvXmXnXbXcXBXmX",
"9X4X7X<X;X8X5X5X5X8X8X9XeX0X2XB B B i t i x B B N B N N N N N B N N N B N N V N N N N N p N F N N 0XBXcXNXbXlXbXcXBXmXBXmXmXBXmX",
"qX7X9X3X<X9X5X9X5X9X9X9XeX0X X. 3 c N x 3 H H *.d H H d c d ) 3 d B x b y t 9 p b b x c x x * 1 o |.lXmXBXmXbXnXbXBXmXmXmXmXBXmX",
"4X3X7X3X2X6X<X4X4X5X9X9X0X#XE.o @.b.].n.A.4.4.4.~ 4.F.i.t.+.T +.| o.o.| | I P } =.=.P.b.g._.N 4 @ T.eXlXmXcXcXvXcXcXmXmXmXcXBXvX",
"qX7X5X9X9X9X0XeX9X0XwXwX5XoX>.o +.v.{.F.F.F.F.4.~ Q @.y.i.4.y.u.+.t.#.t.T T J 4 , @ > c f.j.V x @ U.6XaXcXmXBXbXmXBXBXBXBXBXBXBX",
"5X4X4X7X7X7X9X9X9X9XqXqX3XXXA + z.b.%X`.Z.i.Q.@.! @.w.t.u.y.C.Z.Z.i.z.y.w.U W , @ + . . i N >.m $ J.6XdXcXnXbXnXnXnXmXmXmXnXnXmX",
"9X4X9X9X<X<X<X5XeXeXwXuX9XoXT.& Q.'.%XOX~ Q A.@.R C.u.y.i.y.Z.-XS.C.T E E U H : @ - * & = F M q.& S 6XdXmXBXxXnXmXxXmXmXxXmXmXnX",
"eX7XqXqX3X<X<X9XtXtXtXuXwX$XT.& /.`.:X,XF.Q ! #.y.V.Z.p.F./.x.i.t.u.T K U P 2 : + % . X o B M M $ d.6XdXmXmXmXBXNXnXmXmXmXmXmXnX",
"4X3X5X7X5X<X4X9X0XwX9X9X4XoX0.+ ^.].>X,X>X4.i.V.y.V.p.y.p.p.t.i.n.x.T E I | : : > X - . . t M m & 0.3XuXxXcXmXnXnXnXcXmXxXcXbXbX",
"9X9X0X0X0X3XuXuXuXuXyXwX9X$Xd.@ i.|.>X1X1Xz.+.y.R t.x.N.H.Z.u.w.i.y.| P L c @   O + X O X 1 d.i o >.6XsXcXmXBXBXBXmXmXmXmXmXmXmX",
"4X3X3X5X5X5X7X9X9X0XwXqX5X X0.o U %XOX>X>Xi.w.@.+.r.G.H.p.S.w.@.T | T I J | 1 : @ & - O X p 0.m % S 2XiXlXzXcXMXmXvXcXvXlXxXxXxX",
"eX9XtXeX9XtXtXwXwX9XyXuX9X.XA O { =X@X,Xn.y.t.e.t.w.S.G.Z.B.w.u.Y J I J E 3 2   O X . . O b M N - S 4XiXmXmXcXBXBXmXBXBXmXBXnXnX",
"9X5X0X9X9XqX0X9X9X9XeXrX4X.XA + 4./.:X,Xn.p.p.y.w.y.A.S.G.V.T  . .| I P | H z 1 @ + -   , L M V & S 2XiXnXMXvXvXcXcXvXmXcXcXcXcX",
"0X0X9X7XqXeXqXqX9XeXeXqX8X+XS + 3.'.,X,Xx.y.u.y.t.r.p.Z.G.y.I T @. .O.O.j.j.s.C u 1 > 4 4 W B M & 0.2XsXmXmXBXBXBXBXBXmXNXmXmXNX",
"tXtX0X0XeXeXtXeXqXqXeXuX9XoXS & b.[.1X1Xb.x.l.k.r.u.i.Z.V.I E R t.s.s.s.m.[.>X=X].`.j.O.5 n b B & J.<XsXBXBXBXvXNXBXmXNXBXmXmXBX",
"qX4X5X7X7X7X7X4X8X9X9XeX4XXXS o v.,X1X1X}.v.2.q.y.Z.a.p.p.T w. .z z c z 3 } b.`.[.-X`.`.Z K.w b % 0.6XyXvXmXzXvXbXcXnXnXlXnXcXlX",
"tX9X0XwX9X9XqX9XqXqXuXuXwX@XT.& g.;X1X=X}.0.A D y.V.Z.Z.p.+.O.3 H } } } L } 5 j._.`.-X-XW.Z w w - >.5XyXBXBXcXBXNXnXNXmXcXBXmXcX",
"9X5X7X9X7X7X7X9X9XqXwXeX7X%XS $ c.:XOX).h.Y.Q.E.t.Z.Z.p.B.v z 3 ) x z } z z 2 v E.W.-X-X].f.j p % >.6XiXzXvXlXcXzXzXlXlXlXvXzXgX",
"0X9X0X0XeXqXuXuXuXuXuXuXeX#Xf.& W.=X%X).h.Q.;.;.T p.p.p.p.O.) d } L L 3 s s 2 c j.f._.`._.j.z d 6 >.6XsXvXvXcXBXBXBXvXBXBXBXBXBX",
"0X9X9X9X0X0XeXeXeXeXyXeX9X$Xf.& g.[.:X{.N.W.(.1.E V.V.y.#.Z } 3 ) 3 d 3 s 2 s c f.m._.n._.W.9.i % U.6XiXhXzXvXvXvXvXzXzXzXzXmXmX",
"0X5XqX0X9XeXeX0XuXyXwXuX9XoXd.+ 1.{.[.{.N.).J.Q.R e.V.V.V J.z 3 3 d s s z H s s.b._.^._._.W.0.s o J.6XiXBXBXvXMXvXvXMXBXzXvXvXvX",
"qX5XeX0X9XeXeX0XyXyXeXuX9XoXT.o <.[.[..XQ.I.P.P.@.y.V.V.u.L.n.3 s d 4 2 2 H ..b.~.W.^.b.~.W.f.s @ 0.6XiXvXMXzXBXvXvXMXvXhXvXvXzX",
"9X7X5X5X5X9X9X9X9X9X9XeX4XoXA o 2.[.[.[.6.6.P.J.o.Z.V.D.H.i.m.f 2 4 4 2 2 s s.~.~.W.^.b.b._.E.x O A 6XiXvXBXvXzXcXcXcXvXvXhXvXvX",
"tXeX0XeXeXeXtXtXwX9XeXwX7XoXS + 2.F.OX,X6.5.M r x V.p.G.D.x.i.| d 2 4 d s z b.b.~.W.b.b.b.^.E.x o A 6XsXBXBXBXvXmXmXBXBXBXlXBXBX",
"7X5X3X9X9X0X0X9X9X9X9X9X3X X>.& (.F.H.F.&.$.q.J.D w.S.p.p.p.A.Y 3.f.*.s ..O.b.~./._.j.m.b.j.f.k & A ;XiXzXzXzXzXlXlXzXlXgXgXzXlX",
"0X9X0X7X0XtXwX0XwXqXeXuX9XoXT.& (.D.4.! *.M r M M B o.i.y.t.R / { (.].W.=.[ { g.`.].W.g.b.j.A x & >.6XaXMXMXvXBXMXvXBXbXvXbXvXbX",
"5X1X4X5X9X9X9X7X9X9X9XeX4X X0.$ ' Z.A.~ v.}.P.T.D U.!.k.r.r.s { 6.v._._.-.{ { =.R.R.T.g.c.f.F v & S ;XiXzXzXzXvXlXlXvXlXlXkXkXkX",
"wX0XwXwX0X9XeXeXqXtXuX9X0X+Xd.. 8 R Q ! i.0.h.h.h.).&X!.9.f.u [ 6.F.g./.W.,.,.,.g.g.R.l.s.f.x ,.& 0.4XaXgXBXBXBXmXbXkXmXmXmXNXmX",
"0X0X0X0X9X9X0X0X9XwXrX4X5X+XS . 6 E ! e.D.f.Y.Y.!.0.T.U.E.L.:.{ { | ) c.b.b.c.^.b.b.c.,.>.V c v * S 6XaXsXvXzXzXzXzXhXvXjXvXlXjX",
"5X6X7X7X3X3X3X4X7X5X9X0X4XXXA . 7 Q ! Z.n.(.Y.Y.q.q.U.0.>.n P.5.5.5.&.5.<...g.b.R.^.g.,.V g C C * S 2XrXiXuXaXaXaXfXkXkXfXjXxXkX",
"eX7XrXqX3X3X3X2X4X<X0XtX9X XA . H ! ! n.x.s N.B.>X!.!.0.,.g.2.P.3.&.&.3.&.3.X._ c V h h h f f c & S 6X0XtXuXaXaXiXfXVXjXhXxXbXxX",
"5X3X3X5X3X2X3X2X<X3X4X7X<X|.A - O.v.@.! ! -.N.B.N.!.!.0.f.N.v.(.(.%.` ] ' ] &.^ _ _ ^ _ ` _ ^ j & A ;XrXaXaXkXpXaXsXkXfXkXdXkXkX",
"qXqX5XqXqXqXeXrXqX7X4X5X<X|.Z + g.t L E e.p.a.M k.E.M.r.q.B.c.R.R.` { 2.3.&.&.` <.$.^ a _ a _ j & A 3XaXnXnXmXkXMXvXlXvXnXxXBXNX",
"7X7X3X7X7X0X7X7X4X3X4X4X<X.XD o | #.E R R R r.B Z F v v 9.h.L.P.P.%.&.=.=.%.&.) 1.X.X.[ f c g x & D ;XtXkXfXfXfXfXaXsXdXsXdXjXlX",
"7X7X0X7X7XqX7X2X3X<X9XqX2X XS o K E E Y R #.1.x.c.C v 9.h.M.F 3.2.P.2.2.X.1.<.X.=.$.' ( _ h m c & A #X0XaXaXmXmXlXfXVXkXVXVXfXVX",
"5X5X0X7X7X9X7X2X4X;X7X9X<XXX0.& ~.g.z.@.'._.l.x x.c x F C r.*.*X=.1.3.<.<.:.<.X.] =.' _ a q k c & A $X4XdXpXlXkXsXaXkXfXfXfXsXVX",
"5X4X4X4X5X2X5X3X4X5X4X3X<X.XD o c.g.l.*XR.`.1.m.1.x n P.;.A ;.(.;.=.1.:.%.=.<.' ' X.*.=.a a i x + A #XeXiXaXkXkXlXvXdXfXfXaXfXaX",
"0X0X0X0X0X4X0X0X0X0X0X5X4XXX>.$ o.4.@./.` %.R.:.V 1 x L.;.n =.%.n $.%.^ ' *.j , $.' f $.q < p x & d.6XaXaXkXnXmXmXmXfXlXlXfXkXlX",
"2X;X<X;X;X;X;X2X<X2X3X4X;X'.Z % #.@.@.v._ q _.q.8.q.7.M F :.<.<.P.1./ G >.R.g ; h ' ( ( V 2 e g + A #XwXuXuXuXuXuXuXuXuXtXuXuXtX",
"7X<X2X;X@X3X3X4X<X3X4X4X<X.XA $ -.E Y v.P.R.T.8.8.7.l 7.( <.`.` %.] ^ 0 V R.9 ; h ' _ h h 0 = p + Z #X9XuXtXeXtXeXaXuXuXuXuXfXuX",
"7X<X4X<X;X4X4X4X4X4X3X4X3X|.A + ,.+.+.+.M F 0.C 8.7.7.s { / R.` [ ] ' f f _ 9 6 j a ( p p 9 $ 6 . Z #XwXaXuXtXuXuXuXsXuXuXuXfXfX",
"7X5X7X<X@X4X3X4X3X4X4X3X3X|.A & k.c.R.U l.-.+.} 7.7.q.-.] ` ` ( ^ X.=._ 0 < n b p B g p t 7 6 p . Z #X0XfXaXpXuXuXfXuXuXuXuXfXfX",
"2X<X3X;X;X<X;X2X;X3X4X4X<X'.Z $ ,.< < [ W K U o.u 7.c <.v.2.' [ G ' ] h G < b j 0 g u t 7 9 6 b . Z +X9XuXuXtXtXuXpXuXuXuXuXpXuX",
"4X3X<X4X4X4X7X7X4X7X7X7X2X.XD o V q q | J P &.< 1 v -.<.c.1.( [ G a _ ' < < b q 0 u i 5 e 6 6 9 . D oX9XuXtXuXuXuXkXsXfXfXuXfXfX",
"3X<X;X2X;X;X;X<X3X4X3X4X;X.XZ . & * = , 1 , 9 $ * 1 y 1 y y , > > > > > $ > > , > * * 1 * % # # . N oX4XrXtXwXeXuXuXuXuXuXtXuXuX",
"4X<X4X4X@X$X$X3X7X9X7X7X4X|.T.> * & = & * & & = = & = & & * * * * * * * * * * = = = = * = = * * 9 >.OX7XpXpXuXuXuXuXuXuXuXuXtXuX",
"3X<X4X4X@X$X$X3X7X7X7X0X4X@X.XT.Z Z Z Z D D C Z Z D D Z D Z Z D A Z A A A 0.d.A 0.>.S d.d.0.d.d.T.'.;X9XpXaXuXpXuXuXuXuXuXuXeXuX",
";X;X;X<X;X;X<X3X4X7X4X2X5X2X$X|..XQ..X.X|.|.|..X.X.X|..X|.|.|.|.|. X|.|.|. XXXXXoXXXXXXXoXoX XXX$X<X9XtXeXeXtXtXtXuXtXeXeXeXtXtX",
"<X<X2X3X3X;X7X9X9X7X7X3X9X5X4X2X;X;X2X3X4X4X4X<X2X3X3X3X3X2X4X3X3X4X3X<X3X5X7X5X4X3X5X7X4X7X4X4X0XrXuXpXtXuXuXpXuXpXuXtXtXtXtXuX",
";X;X;X@X;X;X;X<X<X<X2X4X5X<X2X4X4X3X3X3X9X7X7X7X7X9X9X7X9X9X7X0X0X9X9X9X9XqXqXqXqXeXqXtXrXqXqX0X9XwXeX0XeXtXtXuXtXeXtXeX9XqXqXqX",
"3X<X4X4X3X4X4X3X2X<X5X9X7X#X3X5X7X0X0X0XeXeX9X7X7XeXtXeXeXrXqXtXuXeXrXtXtXuXtXtXiXiXqXuXaXtXeXrXwXeXeXeXpXpXuXaXfXpXaXaXuXuXeXuX",
";X$X;X;X@X<X;X;X;X#X2X2X<X@X2X2X5X5X4X4X4X7X7X7X7X7X0X7XqX9X7X0XqXqX0XqX9X9XeXqXeXqXeXeXrXeXeXqX0XeX0XqXtXtXeXuXtXqXtXtX9XeX9XeX",
"3X3X<X<X3X4X4X3X<X3X4X4X4X4X3X5X7X7X7X9X7XqXeXqXqXqX7X0X0XqX0X9XqXqXqXeX0X7X0XrXtXrXiXuX0XrXrXuXiXtXeXuXuXtXuXtXtXtXtXuXuXuXuXpX"
};
