/* XPM */
static char *d2VzdC4_[] = {
/* columns rows colors chars-per-pixel */
"64 64 233 2 ",
"   c #0D0603",
".  c #0E0A06",
"X  c #0F0B09",
"o  c #140A05",
"O  c #1A0C05",
"+  c #120C09",
"@  c #1A0E09",
"#  c #120605",
"$  c #1C1107",
"%  c #15120C",
"&  c #1D130B",
"*  c #1B150B",
"=  c #170F12",
"-  c #1C1413",
";  c #181313",
":  c #3C0705",
">  c #221306",
",  c #2A1506",
"<  c #2B1A06",
"1  c #23140B",
"2  c #2A160A",
"3  c #241A0C",
"4  c #2B1B0C",
"5  c #331C0A",
"6  c #3B1B0B",
"7  c #351A07",
"8  c #231B14",
"9  c #2A1C12",
"0  c #221714",
"q  c #311D12",
"w  c #280B05",
"e  c #2E220D",
"r  c #33220C",
"t  c #3C240D",
"y  c #38280B",
"u  c #2B2519",
"i  c #342413",
"p  c #3B2513",
"a  c #3B2B13",
"s  c #362A1A",
"d  c #3B321B",
"f  c #262524",
"g  c #292625",
"h  c #2A2925",
"j  c #2A2B2A",
"k  c #332E26",
"l  c #393428",
"z  c #353534",
"x  c #3A3B37",
"c  c #2E362F",
"v  c #400D07",
"b  c #471B0C",
"n  c #44240A",
"m  c #432C0C",
"M  c #4A2C0B",
"N  c #462908",
"B  c #552A0A",
"V  c #4D320A",
"C  c #46310C",
"Z  c #59370A",
"A  c #442B13",
"S  c #462A15",
"D  c #4B3412",
"F  c #45361A",
"G  c #4A3719",
"H  c #543314",
"J  c #573A17",
"K  c #5A2D17",
"L  c #653B0D",
"P  c #683B16",
"I  c #753C15",
"U  c #6D2F13",
"Y  c #463B29",
"T  c #4A3A26",
"R  c #573D23",
"E  c #643924",
"W  c #35403A",
"Q  c #5B4218",
"!  c #694519",
"~  c #774917",
"^  c #7B5318",
"/  c #65420C",
"(  c #4A4329",
")  c #564727",
"_  c #594E32",
"`  c #544E32",
"'  c #684B25",
"]  c #754C24",
"[  c #67542A",
"{  c #785529",
"}  c #675736",
"|  c #785E38",
" . c #796538",
".. c #6F613E",
"X. c #3F4B47",
"o. c #52534A",
"O. c #5A6656",
"+. c #7A6545",
"@. c #6C705F",
"#. c #6C6B6A",
"$. c #72736E",
"%. c #757672",
"&. c #777873",
"*. c #7A7A76",
"=. c #7D7D79",
"-. c #787773",
";. c #706F6D",
":. c #854A1B",
">. c #914D17",
",. c #87551A",
"<. c #97561D",
"1. c #8E570F",
"2. c #A35B1B",
"3. c #B4671F",
"4. c #B2761A",
"5. c #845928",
"6. c #965D26",
"7. c #895B34",
"8. c #844D29",
"9. c #8C622E",
"0. c #986329",
"q. c #886638",
"w. c #976937",
"e. c #977538",
"r. c #A36223",
"t. c #AB6B2A",
"y. c #A86827",
"u. c #B56D28",
"i. c #B7722C",
"p. c #A46C34",
"a. c #A8743A",
"s. c #B37332",
"d. c #BC7A35",
"f. c #B87936",
"g. c #AC7428",
"h. c #9E611E",
"j. c #C3782A",
"k. c #C47C34",
"l. c #846A46",
"z. c #897445",
"x. c #977749",
"c. c #977B55",
"v. c #886C4F",
"b. c #A97B49",
"n. c #A77E53",
"m. c #B17E45",
"M. c #827F7D",
"N. c #7F807B",
"B. c #BF833E",
"V. c #9D8137",
"C. c #C58439",
"Z. c #998453",
"A. c #AB864D",
"S. c #B68548",
"D. c #B58858",
"F. c #B18E5A",
"G. c #81817D",
"H. c #9C8563",
"J. c #B99767",
"K. c #B0976E",
"L. c #C68A45",
"P. c #CA924A",
"I. c #CA9655",
"U. c #CE9552",
"Y. c #D5A15E",
"T. c #C99C6B",
"R. c #CCA365",
"E. c #D2A66C",
"W. c #858582",
"Q. c #888785",
"!. c #898986",
"~. c #9A9A95",
"^. c #A3A39E",
"/. c #A6A5A1",
"(. c #AAAAA5",
"). c #AEAEA9",
"_. c #A8A7A3",
"`. c #AFB1AB",
"'. c #B2B2AD",
"]. c #BCBBB6",
"[. c #BEBEB9",
"{. c #B7B6B2",
"}. c #B0AFAB",
"|. c #C0BFBA",
" X c #D8BD92",
".X c #BFC0BA",
"XX c #C3C2BD",
"oX c #D8C59A",
"OX c #C6C6C1",
"+X c #C8C7C2",
"@X c #CBCAC5",
"#X c #CECDC9",
"$X c #C7C8C3",
"%X c #D0CFCA",
"&X c #CFD0CA",
"*X c #D3D2CD",
"=X c #D6D6D1",
"-X c #D8D7D2",
";X c #DBDAD5",
":X c #DEDED9",
">X c #D7D8D2",
",X c #E0DFDA",
"<X c #DFE0DB",
"1X c #E3E2DD",
"2X c #E6E6E1",
"3X c #E8E7E2",
"4X c #EAEAE5",
"5X c #EDEEE9",
"6X c #EDEDE9",
"7X c #E7E8E3",
"8X c #F1EEEA",
"9X c #EFF0EB",
"0X c #F1F2ED",
"qX c #F2F2ED",
"wX c #F5F6F1",
"eX c #F5F6F2",
"rX c #F7F8F3",
"tX c #F7F8F3",
"yX c #F9F9F7",
"uX c #F9FAF5",
"iX c #FBFCF7",
"pX c #F9F9F6",
"aX c #FAFAF8",
"sX c #FBFBF9",
"dX c #FAFAFA",
"fX c #FCFCFA",
"gX c #FDFDFB",
"hX c #FCFDF8",
"jX c #FDFDFD",
"kX c gray99",
"lX c #FDFDFE",
"zX c #FCFCFA",
"xX c #F8F7F5",
/* pixels */
"*X#X*X#X*X+X*X*X%X-X;X+X;X,X,X,X;X*X1X1X1X1X1X1XqXqXtXtXwX5XtXrXtXwXtX4XrXhXgXjXeXsXgXjXjXgXaXjXjXjXjXjXwXjXjXlXhXaXrXhXlXhXkXaX",
"].].XX[.].].|.|.XX+X@X+X%X@X#X%X#X#X%X%X;X-X-X;X1X1X1X1X4X1X1X1X1X1X1X1X0XwXwX0X0XqXqXyXwXqXeXuXuXyXyXqX9XqXwX0XwXwXrXwXwXaXxXxX",
"%X+X*X*XXXXXXXXX+XXX*X,X,X*X*X%X-X;X;X1X4X4X1X1X1X5XqX0XwX9X9XtXrX5XrXiXrXgXiXrXsXsXyXjXsXaXgXgXaXjXjXwX6X6XxXwXwXhXhXlXaXlXkXaX",
"+XXXOX+X|.|.|.[.[.|.@X%X%X#X%X@X%X=X>X:X1X1X1X1X1X1X5X5X5X5X5X0X9X5X0XwXwXrXrXrXyXuXyXuXsXaXaXsXaXaXyX0X0X0XuXwX0XrXaXxXrXxXaXkX",
"*X*X+X*X*X*X*X*X#X@X@X@X#X*X#X#X#X#X@X*X>X7X4X7X5X5X5XtXtXqXrXrXeXuXaXaXaXuXuXgXsXsXsXsXkXkXkXkXjXaXgXjXgXsXjXaXjXkXjXjXjXkXlXlX",
"%X*X+X*X-X-X-X-X#X@X@X#X#X%X#X%X#X@X%X%X>X7X4X4X5X0X0XrXtXrXiXrXeXrXwXaXaXuXaXhXsXgXsXjXkXkXkXkXjXaXgXsXjXsXaXuXuXaXaXaXyXxXaXaX",
"@X@X%X@X@X*X+XXXXXXX#X*X%X-X;X-X>X;X>X;X;X2X:X2X1X1X9X5X5X0X9X0X6X0XwXrXwXrXaXrXpXpXpXpXdXdXkXdXsXsXuXuXuXaXgXgXaXaXhXaXhXgXaXjX",
"%X%X-X%X*X*X%X+X@XXX%X-X*X;X1X,X:X2X<X2X7X2X;X7X4X9XqXqXrXhX0X!.!.0XaXhXaXkXhXhXsXsXsXsXsXdXjXkXpXgXuXqXsXaXjXgXgXaXlXaXaXaXaXjX",
"@XXX#XXX@XXX@XXXXX@X@X@X&X%X*X*X*X*X=X;X;X>X;X<X<X7X6X7X>X$X@X^._.@XOX:XdXeXeXxXxXdXxXxXxXdXxXdXyXrXxXwXrXuXaXaXaXaXuXuXuXaXaXaX",
">X>X-X;X:X*X>X>X-X-X-X-X1X1X1X1X2X>X7X9X9X9X9X7X9X;X$X$X<X9XdXdXaXgXrX1X#X%X7XdXdXkXlXlXkXdXkXkXlXlXlXjXhXjXjXjXjXkXjXjXjXjXjXjX",
"@X@X#X@X#XXX@X@X#X#X&X#X-X*X-X*X=X*X;X>X:X<X*X[.XX=X7X5X9X6X9X0X9XwX5XwXxXeX,X#X@X2XxXaXdXdXxXdXhXlXaXaXuXaXaXuXrXuXuXaXaXaXaXaX",
"#X+XXXXXXX#X#X@X+X#X#X*X-X*X-X*X=X=X&X&X'.(.[.;X6X7X9X7X7X5X6X5X5X5X5X2X4XeX6X8XyX-X.X&XeXdXxXxXuXaXhXuXuXwXqXwXwXuXuXuXrXxXkXaX",
"*XXX*XXXXX#X#X&X#X*X*X*X;X>XXX#.#.#.#.o.#.#.#.;.%.%.%.$.%.&.&.%.&.&.*.%.$.&.*.*.*.&.*.;.o.-.*.*.*.:XlXyXuXuXwXrXuXaXjXaXhXaXlXaX",
"*X#X>XXXXX*X#X*X#X*X*X*X;X*X_.j f f 8 f f f u h h j l l l l ( ( l l l k k k k j g j g j g j g g g {.eXyXgXiXuXaXrXhXgXaXaXaXkXaX",
"#XXX*X+XXX@XXX#X+X#X*X&X>X[.!.f X X X % X % - u d T F T ` ` ` ` R F ( F T T k S k q q 0 0 0 ; 0 f ~.<XeXgXuXrXaXuXxXaXxXaXrXaXaX",
"*X&X@X*X*X*X*X>X*X>X>X>X@X'.&.f % X + X % % 1 G q.x.[ ( ` ( ( ( ` s G G S S i s k b E = = 0 ; f f Q.#X5XuXuXaXrXaXjXjXjXjXaXjXjX",
"#X@X@X&X&X&X*X*X*X>X>X>X@X).&.f X   + . X % 3 Q ) | c.o.W z W l l d a F S K s s ' R S @ = ; - 8 f W.$X4XrXrXrXrXyXyXaXhXkXrXkXaX",
"*X@X*X*XXXXXXX%X;X;X>X:X&X`.=.f .   X X + % i d ( _ F.c.X.o.c j h e u F A H p S E S S = = = % 8 f Q.$X7XyXhXdXhXhXrXhXrXrXaXrXyX",
"-X&X-X-XXXXXXX-X1X:X<X1X>X{.=.f X     % 3 * y F G _ c.T.o.` ` ` l k s d F S 9 q q p ~ q = % % - f Q.@X4XhXlXdXhXlXhXlXlXaXhXlXaX",
"XX@X#X&X@XXX@X#X*X>X*X*X@X`.*.f X     * 3 * e Q ) _ +.K.l. .e.^ } O.O.@.+.S i 9 0 1 V I S A 8 - j Q.$X7XeXrXyXuXrXuXxXrXxXrXrXrX",
"&X*X*X-X-X@X1X1X1X<X:X>X&X{.N.f X     % X y C Q A s ` x.v.[ R 8. .} { v.K.' z ; o 2 b b ! 0.G * f Q.&X6XeXdXlXlXjXjXrXhXhXaXhXkX",
"XX@X@X&X%X@X%X=X>X>X>X-X@X).$.h + . # o e C n y n i ) q.w.E R 7.q.w.p.A.F.e...0 # @ q b ) ) ) 1 f W.$X2XwXeXtXyXaXyXrXrXwXwXrXwX",
"-X=X;X;X-X;X,X-X>X&X<X<X*X/.&.f X .   + 1 e N G s a K ' 7.v.I.8.w.D.T.A.S.p.R.} 4 @ 2 6 4 9 9 @ f W.$X7XdXdXuXhXgXaXlXlXaXhXrXaX",
"=X@X=X*X*X-X=X*X*X>X;X;X&X^.&.f .   . @ + % ( +.J J E v.c.T.n.8.n.b.y.T.F.a.R.x.^ 1.P P S H 6 1 f W.@X7XdXdXrXdXrXxXyXxXxXaXrXrX",
"*X*X#X&X=X-X=X=X%X-X;X-X@X`.&.f X . % $ $ O d +.' E c.T.c.7.8.7.n.I.T. Xm.n.I.7./ 4.4.h.1.1.m 3 f W.$X6XkXhXhXaXlXaXaXaXaXrXaXlX",
",X,X*X-X-X,X,X,X-X-X;X1X&X`.&.h X     # $ o e a S ~ b.b.U K E 8.6.b.T.S.p.w.n.T.9.~ 4.B.,.1.t 1 f W.$X5XhXlXlXaXaXgXlXhXjXaXkXjX",
"-X@X&X%X&X%X*X@X&X*X*X;X$X`.&.h +       o o O i ` } P 6.r.I ] 6.>.I r.2.t.a.c. Xw.! ,.y.~ L < 4 f W.$X2XxXaXwXrXrXxXxXxXwXxXwXwX",
";X%X-X-X%X=X=X*X=X-X1X1X>X].N.f % #     + # . > d o.P a.a.p.p.u.r.:.s.j.k.s.U n.w./ ^ 1./ y , 4 f W.@X1XkXhXwXlXjXaXhXkXwXgXaXrX",
"*X@X&X&X%X%X&X&X=X*X-X;X@X`.*.f % .       # # > t T K 7.p.a.t.u.u.y.s.j.u.k.>.p.5.L / L 7 4 7 0 f W.$X<XrXrXwXyXeXeXwXwXwXxXwX9X",
"=X=X-X-X-X-X1X1X1X1X1X1X>X].N.h %       . # # O 3 b v K >.6.r.i.k.k.B.B.u.k.j.b.| V N N 1 $ 2 0 f Q.#X6XrXaXaXkXkXaXyXlXaXjXjXjX",
"*X*X*X*X-X-X;X:X1X1X1X;X=X{.N.h * X . # # # O O O w v v P <.<.r.B.B.Y.U.k.B.t.6.! n n 6 O 1 @ @ f W.$X7X0XxXaXaXyXyXxXyXxXyXaXaX",
"*X%X-X-X=X;X-X-X;X:X-X1X&X'.*.h * * + # # # O O # w : : b :.>.s.L.k.Y.L.s.u.p.6.~ N Z n 1 O X = f Q.#X7XhXaXyXlXyXxXdXyX0XxXrXxX",
"-X%X;X-X*X;X;X-X<X<X;X1X*X'.N.h e * > e > $ 6 S t : : : U 8.f.C.k.L.Y.j.j.u.u.u.:.V Z Z 7 > $ * f W.@X7XyXaXyXyXyXrXkXxX9XyXyXrX",
"%X%X@X@X%X*X%X%X#X*X*X;X@X).&.h a y d d r H 9.w.~ B : v U :.f.C.k.L.U.j.k.k.3.r.:.t V N y y a 4 f G.OX4XyXrXyXeXyXyXeXxXxX9XyXyX",
"-X;X-X-X;X;X,X,X;X>X>X>X#X`.&.j Q ( _ _ i 4 J ] { L : B :.d.C.C.U.U.U.P.L.f.u.3.~ , r 7 ' [ J r f G.#X4XlXlXlXyXhXlXlXlXhXeXaXlX",
"%X%X%X%X*X-X*X*X*X#X*X>XXX).*.k [  .x.V.! @ w ' S.w.6 L h.C.C.P.E.Y.U.U.m.u.f.s./ O > 7 | x.! a f N.$X2XwXeXeX9XwXeXwX0X5X9XwXwX",
"*X%X%X*X-X,X-X-X>X-X;X1X&X'.N.k  . .[ [ [ > < ' w.5.~ :.0.C.i.P.E.Y.P.C.k.r.3.6.B o < r [ x.Q e f Q.$X7XdXdXaXlXyXxXkXyXuXsXuXuX",
"%X@X#X%X%X-X*X%X*X*X-X;X@X).*.j ` [ Q Q ! e > ! { ^ r.0.s.C.i.Y.Y.P.P.C.s.3.2.8.n o > 7 S  ...( f W.$X1XxXeXyXyXwXwXxXwXwX0X0XwX",
"-X-X-X*X>X*X;X-X>X,X,X#X*X'.=.h d G Q G [ K.v.{ 5.u.i.p.p.R.I.R.U.L.L.d.y.t.6.I r O r m ' z.Z.+.k Q.#X6X0XlXkXyXhXyXwXyXaXaXuXuX",
"=X-X;X*X-X*X-X-X-X;X;X#X&X'.=.h e y d y s +.oXJ.<.3.u.2.6.I.I.S.P.L.f.f.y.2.6.P < $ J { z. .V. .k Q.@X6X0XeXyXyXxXwX9XxXxXwXxXwX",
"@X+X%X%X+XOX+X@X%X#X*X*X@X(.%.h u y y e u d  .K.>.2.<.2.6.P.R.P.U.d.s.u.y.r.:.m > < m ' Z. . . .k W.XX:X1X1X9X4X6X8X0X8X0XwXwX0X",
"-X%X;X-X@X+X+XOX@X+X-X,X*X(.&.h u * 3 * * e y Q ! :.:.6.0.t.s.d.u.t.t.r.0.0.J O $ < R Z.Z. .Z.) h !.@X-X1X1X4X4X2XwXuXwX0XuXuXeX",
"@X+X+X#X+XXXOXXXXX+X@X%XXX(.$.h * % * * $ e e d p p D 8.9.0.p.r.<.r.t.y.5.^ < o o < { K.Z.q.[ Q h N.XX;X1X8X8X1X4X6X0X6X8X5XqXqX",
"-X-X%X-X-X-X;X,X*X%X#X#XXX(.$.h * * 3 * $ * * $ 1 4 V I ~ 5.6.6.i.i.f.p.:.H # # o < ' x.e. . .) h W.@X4XiXhXiXwXyXwXwXuXpXeXgXgX",
"#X%X+X%X%X*X*X%X@X@X@X@XXX/.%.g 0 * 1 $ $ 4 4 i ! q.7.:.P P 6.t.u.i.I.e.L 4 # @ $ e !  .x.'  .[ u N.$X1XwX8XqX8X6X6X4X4X4X4XwXqX",
"@X%X-X%X%X-X%X+X+XXX*X*XXX(.&.h i t t n t r A A.A.7.I J n P ,.t.C.S.S.~ t @ > > > D ~ x.A.{ ) ) h G.[.>X4X4XuXuXqX8XwXqXuXwX0XpX",
"#X%X-X%X%X*X%XOX@X[.*X*XXX).*.g q 6 7 N :.,.w.p.' A i 5 1 ' r.t.B.A.9.J 4 % 4 O O { q.z.A.Q C Q h G.{.#X4X4XwXrXqX4XqXqXqXqX6XeX",
"+X@X+X@X#XOX@X@X@X+X#X+X.X/.$.g 5 < < B I J { 5.t 5 r 3 t :.t.S.e.| ! C i 4 $ @ O { 9.e.{ y y e f G..X;X1X4X9X8XqXqX3X6X6X4X6X4X",
"-X-X-X*X*X%X*X-X*X-X*X%X#X).-.h 2 w , b L B ! s.D < Z D ] s.w.9.J p A p S q 1 @ % H ! ] 9.V y e f Q.#X5X6X0XuXhXhXgX0XqXwXqXqXqX",
"|.XXXX|.|.|.XXXXXX+X+XXX|.^.$.h 1 > 7 O > $ m ~ ^ < H q.0.w.J 4 0 - 2 p 6 2 1 - 5 t Z ! 9.^ y y f G.[.-X1X1X1X1X1X1X1X1X,X1X1X,X",
"@XXX+X|.|.+XXX+X+X+X+X@XXX^.$.h > O < O O , 6 m / p ) K.c.p $ @ o 0 1 2 q 2 2 6 D C C Z { 9.C y u *.[.*X1X1X-X1X;X1X4X1X1X1X6X1X",
"%XXX#X|.|.+X@X@X+X#X#X@X+X/.%.g @ O O @ , , , Z J A A H.} m r 4 4 2 0 - @ 1 0 9 q 5 < B ~ 5.V N h =.XX>X1X1X,X1X1X1X5X1X1X1X6X8X",
"%X+X%X|.|.#X+X#X+X@X@X+X@X(.-.g $ o # # # o # O , n V J C V V C A H F p i 6 q q q 2 6 n M 6.Z C h =.XX-X9X4X1X1X1X8X3X1X1X4X8X8X",
"XXXX+X|.|.XX|.+X|.+X#X@X|.^.;.g * > < $ o o > 7 n B V Z V V V J Q Q Q J J H R G H T G H P / Z V h &.{.*X1X1X,X,X1X1X1X1X1X1X1X1X",
"@X+XXX@X@X#X#X%X#X%X%X%X|._.;.h e r t r > O 1 3 , < < y V m D Q [ ] ] ! ' E R R R J R P J C C m f N.'.*X1X,X1X1X3X8X8X8X8X3XqX8X",
"XXXXXXXX|.|.|.XX@X@X@X#X|.^.$.h u u u u s u u s s s s s s s l Y Y Y ) ( Y Y Y T T Y Y Y l s k u j &.'.#X;X,X;X;X1X1X1X1X1X1X,X,X",
"+X+X@X+X|.{.{.+X%X%X%X=XXX^.M.Y z z z z z z z z z z z z z z z z z z z z z z z z z z z z z z z x Y G.{.*X3X3X1X1X1X,X1X1X1X1X,X,X",
"+X|.%X#X|.{.{.@X%X%X%X-X#X|.^.W.$.$.$.$.-.$.;.$.$.$.-.$.$.$.$.-.%.-.*.*.-.=.=.*.=.M.*.M.M.=.M.M.!._.|.*X3X3X1X3X3X1X1X1X1X1X,X1X",
"|.].|.|.|.|.XXOX@X#X@X|.#XXX{./.^.~.^./././.(.^.^./././.(./._./.(.(.(./.(.(.}.(.}.(.}.}.}.).(.}.{.OX*X,X-X,X1X,X,X,X,X-X-X-X,X,X",
"|.|.+X+X|.|.%X*X%X%X#X@X%X%X@X|.|.|.+XXX+X@X@XXXXX+X+X+X@XXX+X+X+X+X+XXX+X@X%X#X@X@X@X@X@X#X+X@X%X,X1X1X,X1X1X1X1X3X1X,X,X,X,X,X",
"|.|.|.|.|.|.|.|.OX|.@X@X#XOX+X@X@X+X+X+X*X*X%X%X%X=X%X%X%X*X%X-X*X*X*X*X*X-X-X-X-X-X-X,X;X-X-X-X*X-X-X-X,X,X,X1X,X,X,X-X*X-X-X-X",
"XX|.@X+XOX#X@XOXOX|.%X%X%X].+X%X%X-X*X-X;X-X%X%X*X;X,X;X;X,X;X,X1X;X;X,X,X,X,X,X3X3X-X1X4X,X;X;X;X,X;X;X1X1X,X8X4X1X8X4X1X1X,X1X",
"|.].|.|.|.|.|.|.|.|.OXOXOX{.OXOX%X%X#X%X%X%X%X%X#X-X-X*X;X*X%X;X;X-X-X-X*X-X;X-X;X;X-X,X,X-X;X;X-X;X-X-X,X,X,X1X1X-X,X,X*X,X*X-X",
"|.XX|.|.OXOX@X|.|.OXOXOX@X+X+X@X@X%X@X%X@X%X=X-X=X*X%X%X*X*X-X%X*X-X-X-X*X#X*X;X,X,X,X,X*X;X,X,X,X;X;X,X,X,X,X,X,X,X,X,X,X,X1X3X"
};
